<svg xmlns="http://www.w3.org/2000/svg" xmlns:xlink="http://www.w3.org/1999/xlink" width="300" zoomAndPan="magnify" viewBox="0 0 224.87999 149.999998" height="200" preserveAspectRatio="xMidYMid meet" version="1.0"><defs><g/><clipPath id="id1"><path d="M 194 1 L 221 1 L 221 31 L 194 31 Z M 194 1 " clip-rule="nonzero"/></clipPath><clipPath id="id2"><path d="M 198.789062 0.0390625 L 224.910156 5.171875 L 219.289062 33.785156 L 193.167969 28.652344 Z M 198.789062 0.0390625 " clip-rule="nonzero"/></clipPath><clipPath id="id3"><path d="M 198.789062 0.0390625 L 224.910156 5.171875 L 219.289062 33.785156 L 193.167969 28.652344 Z M 198.789062 0.0390625 " clip-rule="nonzero"/></clipPath><clipPath id="id4"><path d="M 0 29.320312 L 22 29.320312 L 22 45.167969 L 0 45.167969 Z M 0 29.320312 " clip-rule="nonzero"/></clipPath></defs><g clip-path="url(#id1)"><g clip-path="url(#id2)"><g clip-path="url(#id3)"><path fill="rgb(80.778503%, 29.019165%, 5.488586%)" d="M 200.472656 14.921875 C 200.558594 14.792969 200.308594 14.257812 200.128906 14.28125 C 199.984375 14.296875 199.8125 14.597656 199.730469 14.707031 C 199.441406 15.101562 199.101562 15.46875 198.808594 15.871094 C 198.195312 16.710938 197.683594 17.628906 197.261719 18.582031 C 196.847656 19.53125 196.429688 20.480469 196.144531 21.480469 C 196.027344 21.90625 195.863281 22.410156 195.816406 22.84375 C 195.738281 23.585938 196.363281 23.101562 196.730469 23.027344 C 196.746094 22.980469 196.757812 22.9375 196.773438 22.890625 C 196.78125 22.890625 196.785156 22.890625 196.789062 22.890625 C 196.863281 22.390625 197.105469 21.875 197.230469 21.425781 C 197.460938 20.597656 197.691406 19.769531 197.980469 18.960938 C 198.492188 17.539062 199.164062 16.183594 200.304688 15.175781 C 200.359375 15.09375 200.414062 15.007812 200.472656 14.921875 Z M 202.410156 16.398438 C 202.410156 16.375 202.414062 16.355469 202.410156 16.332031 C 202.386719 16.078125 202.203125 15.730469 202.035156 15.511719 C 201.183594 14.402344 200.21875 15.851562 199.726562 16.515625 C 199.132812 17.308594 198.730469 18.242188 198.410156 19.171875 C 198.167969 19.875 197.960938 20.585938 197.757812 21.300781 C 197.585938 21.921875 197.230469 22.523438 197.234375 23.1875 C 197.234375 23.398438 197.28125 23.558594 197.363281 23.675781 C 197.699219 24.152344 198.617188 23.84375 199.113281 23.53125 C 198.707031 22.179688 199.175781 20.714844 199.804688 19.5 C 200.40625 18.34375 201.160156 16.945312 202.410156 16.398438 Z M 202.417969 18.808594 C 202.589844 18.269531 202.789062 17.699219 202.925781 17.121094 C 202.671875 17.015625 202.414062 16.960938 202.144531 17.082031 C 201.792969 17.238281 201.558594 17.585938 201.328125 17.875 C 200.882812 18.4375 200.546875 19.074219 200.230469 19.714844 C 199.726562 20.734375 199.28125 21.917969 199.488281 23.066406 C 199.519531 23.046875 199.554688 23.035156 199.589844 23.035156 C 199.601562 23.03125 199.613281 23.03125 199.625 23.03125 C 199.832031 23.074219 199.929688 23.089844 200.03125 23.121094 C 200.042969 23.101562 200.0625 23.082031 200.082031 23.066406 C 201.492188 22.039062 201.917969 20.386719 202.417969 18.808594 Z M 207.945312 6.882812 C 208.113281 6.730469 208.179688 6.414062 207.984375 6.253906 C 207.945312 6.21875 207.921875 6.179688 207.917969 6.140625 C 207.421875 6.246094 206.796875 6.136719 206.351562 5.867188 C 206.332031 5.890625 206.304688 5.90625 206.269531 5.914062 C 206.03125 5.992188 205.96875 6.308594 206.070312 6.511719 C 206.074219 6.523438 206.078125 6.527344 206.082031 6.539062 C 206.695312 6.652344 207.316406 6.742188 207.921875 6.90625 C 207.929688 6.898438 207.933594 6.890625 207.945312 6.882812 Z M 208.617188 4.867188 C 208.652344 4.667969 208.695312 4.472656 208.734375 4.273438 C 208.46875 4.28125 208.167969 4.21875 208.160156 3.914062 C 208.152344 3.714844 208.265625 3.527344 208.402344 3.367188 C 208.183594 3.28125 207.96875 3.175781 207.894531 2.929688 C 207.867188 2.839844 207.902344 2.765625 207.960938 2.714844 C 207.960938 2.710938 207.964844 2.710938 207.964844 2.710938 C 207.96875 2.707031 207.972656 2.703125 207.972656 2.703125 C 207.984375 2.695312 207.992188 2.691406 208.003906 2.683594 C 208.199219 2.570312 208.242188 2.34375 207.976562 2.292969 C 207.878906 2.273438 207.695312 2.257812 207.644531 2.367188 C 207.621094 2.402344 207.601562 2.449219 207.609375 2.496094 C 207.609375 2.507812 207.609375 2.515625 207.609375 2.519531 C 207.769531 2.566406 207.796875 2.746094 207.730469 2.851562 C 207.714844 2.878906 207.695312 2.90625 207.664062 2.925781 C 207.425781 3.097656 207.152344 3.089844 206.878906 3.074219 C 206.90625 3.25 206.933594 3.425781 206.9375 3.601562 C 206.9375 3.671875 206.910156 3.726562 206.863281 3.765625 C 206.835938 3.828125 206.777344 3.882812 206.703125 3.878906 C 206.539062 3.871094 206.289062 3.828125 206.125 3.800781 C 206.09375 3.957031 206.058594 4.109375 206.003906 4.257812 C 206.160156 4.289062 206.316406 4.328125 206.476562 4.359375 C 206.578125 4.378906 206.628906 4.449219 206.636719 4.53125 C 206.664062 4.570312 206.679688 4.617188 206.671875 4.679688 C 206.640625 4.9375 206.488281 5.140625 206.269531 5.261719 C 206.523438 5.710938 207.621094 5.890625 208.074219 5.644531 C 207.960938 5.464844 207.929688 5.238281 207.957031 5.023438 C 207.933594 4.941406 207.9375 4.859375 208 4.785156 C 208.082031 4.695312 208.203125 4.691406 208.308594 4.722656 C 208.417969 4.753906 208.519531 4.808594 208.617188 4.867188 Z M 208.492188 13.183594 C 208.554688 13.085938 208.632812 12.945312 208.558594 12.835938 C 208.375 12.574219 206.082031 12.488281 206.152344 12.15625 C 206.164062 12.085938 206.601562 12.117188 207.957031 12.394531 C 208.007812 12.238281 208.046875 12.042969 208.074219 11.910156 C 207.824219 11.839844 207.605469 11.777344 207.425781 11.71875 C 207.1875 11.652344 206.996094 11.601562 206.855469 11.558594 C 206.574219 11.46875 206.472656 11.410156 206.480469 11.375 C 206.492188 11.335938 206.605469 11.328125 206.902344 11.371094 C 207.046875 11.394531 207.238281 11.421875 207.484375 11.476562 C 207.640625 11.515625 208.566406 11.886719 208.539062 11.535156 C 208.507812 11.160156 206.867188 11.210938 206.917969 10.953125 C 206.933594 10.882812 207.261719 10.878906 208.285156 11.039062 C 208.96875 10.128906 209.226562 8.964844 210.027344 8.144531 C 209.433594 7.804688 208.816406 7.542969 208.144531 7.386719 C 208.121094 7.386719 208.097656 7.386719 208.070312 7.375 C 207.355469 7.160156 206.617188 7.066406 205.886719 6.925781 C 205.867188 6.925781 205.84375 6.925781 205.816406 6.921875 C 205.097656 6.792969 204.382812 6.800781 203.664062 6.894531 C 204.105469 7.976562 203.886719 9.171875 204.195312 10.292969 C 206.105469 10.679688 206.6875 10.859375 206.675781 10.929688 C 206.617188 11.210938 203.875 10.285156 203.683594 10.632812 C 203.535156 10.898438 204.082031 10.804688 204.195312 10.8125 C 204.445312 10.839844 204.691406 10.886719 204.933594 10.941406 C 205.238281 11.015625 205.464844 11.082031 205.640625 11.132812 C 205.988281 11.242188 206.117188 11.296875 206.109375 11.335938 C 206.101562 11.371094 205.960938 11.378906 205.597656 11.320312 C 205.414062 11.292969 205.183594 11.246094 204.886719 11.1875 C 204.652344 11.144531 204.375 11.09375 204.054688 11.074219 C 204.054688 11.082031 204.054688 11.085938 204.050781 11.097656 C 204.03125 11.203125 204 11.367188 203.980469 11.523438 C 204.089844 11.542969 204.191406 11.5625 204.28125 11.582031 C 204.496094 11.628906 204.660156 11.675781 204.785156 11.714844 C 205.03125 11.789062 205.125 11.84375 205.117188 11.882812 C 205.109375 11.917969 205.003906 11.929688 204.746094 11.902344 C 204.613281 11.886719 204.445312 11.859375 204.230469 11.824219 C 204 11.785156 203.449219 11.648438 203.25 11.792969 C 203.144531 11.871094 203.15625 12.03125 203.175781 12.148438 C 203.179688 12.171875 203.171875 12.21875 203.175781 12.21875 C 204.164062 12.410156 205.113281 12.597656 206.066406 12.785156 C 206.851562 12.941406 207.667969 13.15625 208.46875 13.246094 C 208.476562 13.226562 208.484375 13.199219 208.492188 13.183594 Z M 208.890625 14.484375 C 209.121094 14.300781 209.113281 14 208.90625 13.800781 C 208.6875 13.589844 208.429688 13.542969 208.136719 13.5 C 207.875 13.464844 207.609375 13.425781 207.347656 13.371094 C 206.816406 13.257812 206.277344 13.148438 205.742188 13.042969 C 205.082031 12.914062 204.421875 12.785156 203.761719 12.65625 C 203.328125 12.570312 203.035156 12.382812 202.617188 12.566406 C 202.492188 12.621094 202.390625 12.566406 202.324219 12.71875 C 202.265625 12.851562 202.226562 13.0625 202.320312 13.191406 C 202.484375 13.429688 202.839844 13.46875 203.101562 13.519531 C 203.125 13.527344 203.148438 13.535156 203.164062 13.546875 C 203.214844 13.546875 203.269531 13.566406 203.3125 13.601562 C 204.917969 13.910156 206.539062 14.160156 208.136719 14.496094 C 208.164062 14.5 208.1875 14.511719 208.207031 14.527344 C 208.433594 14.574219 208.71875 14.625 208.890625 14.484375 Z M 207.5625 30.550781 C 207.734375 30.375 207.9375 30.183594 208.027344 29.960938 C 207.847656 29.964844 207.679688 29.96875 207.527344 29.964844 C 207.339844 29.957031 207.167969 29.949219 207.015625 29.941406 C 206.863281 29.925781 206.730469 29.90625 206.609375 29.890625 C 206.488281 29.875 206.386719 29.863281 206.296875 29.835938 C 205.941406 29.753906 205.8125 29.699219 205.820312 29.664062 C 205.828125 29.625 205.96875 29.613281 206.324219 29.648438 C 206.410156 29.660156 206.515625 29.660156 206.632812 29.667969 C 206.75 29.671875 206.882812 29.683594 207.03125 29.691406 C 207.179688 29.695312 207.347656 29.695312 207.527344 29.699219 C 207.660156 29.699219 207.804688 29.695312 207.957031 29.691406 C 207.84375 29.59375 207.667969 29.523438 207.570312 29.480469 C 207.488281 29.445312 207.457031 29.382812 207.453125 29.316406 C 207.441406 29.28125 207.4375 29.242188 207.445312 29.207031 C 207.449219 29.171875 207.449219 29.132812 207.445312 29.089844 C 207.269531 29.125 207.101562 29.128906 206.941406 29.132812 C 206.589844 29.140625 206.277344 29.085938 205.996094 29.058594 C 205.714844 29.023438 205.472656 28.964844 205.253906 28.925781 C 205.035156 28.882812 204.851562 28.835938 204.6875 28.796875 C 204.042969 28.636719 203.804688 28.550781 203.808594 28.511719 C 203.816406 28.476562 204.070312 28.496094 204.726562 28.609375 C 204.890625 28.636719 205.078125 28.671875 205.292969 28.707031 C 205.511719 28.734375 205.753906 28.785156 206.027344 28.8125 C 206.300781 28.832031 206.601562 28.875 206.9375 28.867188 C 207.117188 28.863281 207.3125 28.851562 207.496094 28.804688 C 207.515625 28.789062 207.535156 28.773438 207.566406 28.761719 C 207.589844 28.753906 207.621094 28.75 207.648438 28.753906 C 208.847656 28.175781 207.703125 27.132812 207.371094 26.40625 C 207.148438 25.910156 207.179688 25.453125 207.339844 24.972656 C 207.324219 25.015625 206.476562 24.832031 206.410156 24.824219 C 206.214844 24.792969 206.0625 24.769531 205.945312 24.742188 C 205.71875 24.691406 205.636719 24.652344 205.640625 24.613281 C 205.644531 24.578125 205.738281 24.550781 205.972656 24.554688 C 206.085938 24.550781 206.238281 24.558594 206.429688 24.574219 C 206.542969 24.578125 206.675781 24.589844 206.820312 24.601562 C 206.066406 23.308594 206.042969 21.816406 206.1875 20.359375 C 206.296875 19.3125 206.308594 18.230469 206.574219 17.207031 C 206.683594 16.789062 206.800781 16.363281 207.015625 15.988281 C 207.257812 15.5625 207.527344 15.167969 207.664062 14.695312 C 206.238281 14.410156 204.796875 14.183594 203.367188 13.910156 C 203.285156 14.804688 203.589844 15.675781 203.433594 16.589844 C 203.253906 17.636719 202.894531 18.636719 202.59375 19.652344 C 202.175781 21.074219 201.578125 22.472656 200.355469 23.382812 C 201.09375 23.628906 201.738281 23.785156 202.28125 23.910156 C 202.898438 24.046875 203.382812 24.152344 203.753906 24.234375 C 204.488281 24.398438 204.765625 24.492188 204.761719 24.527344 C 204.753906 24.5625 204.464844 24.542969 203.714844 24.425781 C 203.339844 24.367188 202.851562 24.292969 202.222656 24.164062 C 201.625 24.039062 200.894531 23.890625 200.050781 23.585938 C 199.949219 23.566406 199.886719 23.523438 199.785156 23.5 C 199.75 24.003906 199.609375 24.429688 199.214844 24.804688 C 198.632812 25.351562 197.175781 25.882812 198.070312 26.871094 C 198.097656 26.878906 198.121094 26.894531 198.140625 26.910156 C 198.164062 26.929688 198.179688 26.953125 198.191406 26.976562 C 198.195312 26.980469 198.203125 26.984375 198.210938 26.988281 C 198.40625 27.117188 198.625 27.203125 198.839844 27.28125 C 199.273438 27.445312 199.671875 27.558594 200.027344 27.671875 C 200.382812 27.777344 200.710938 27.847656 200.996094 27.925781 C 201.285156 27.996094 201.539062 28.046875 201.753906 28.097656 C 202.628906 28.296875 202.960938 28.390625 202.953125 28.425781 C 202.945312 28.464844 202.601562 28.4375 201.71875 28.285156 C 201.496094 28.246094 201.238281 28.207031 200.949219 28.144531 C 200.65625 28.078125 200.324219 28.015625 199.957031 27.914062 C 199.59375 27.800781 199.183594 27.691406 198.75 27.53125 C 198.550781 27.460938 198.339844 27.378906 198.132812 27.253906 C 198.109375 27.292969 198.09375 27.332031 198.089844 27.367188 C 198.078125 27.402344 198.058594 27.4375 198.035156 27.464844 C 198.007812 27.523438 197.953125 27.570312 197.867188 27.574219 C 197.777344 27.578125 197.652344 27.578125 197.535156 27.597656 C 198.085938 27.964844 198.695312 28.160156 199.25 28.3125 C 199.871094 28.476562 200.449219 28.582031 200.964844 28.691406 C 201.996094 28.90625 202.796875 29.074219 203.410156 29.210938 C 204.023438 29.347656 204.445312 29.445312 204.714844 29.503906 C 204.980469 29.566406 205.09375 29.609375 205.09375 29.625 C 205.089844 29.644531 204.972656 29.640625 204.695312 29.609375 C 204.421875 29.574219 203.988281 29.515625 203.375 29.398438 C 202.757812 29.285156 201.945312 29.136719 200.910156 28.9375 C 200.394531 28.828125 199.816406 28.734375 199.183594 28.570312 C 198.582031 28.40625 197.910156 28.199219 197.28125 27.75 C 197.265625 27.785156 197.257812 27.824219 197.261719 27.875 C 197.285156 28.121094 197.386719 28.359375 197.476562 28.59375 C 198.335938 28.875 199.164062 29.261719 200.035156 29.492188 C 200.859375 29.703125 201.695312 29.828125 202.527344 30.015625 C 203.355469 30.203125 204.191406 30.410156 205.042969 30.476562 C 205.542969 30.515625 206.035156 30.507812 206.535156 30.511719 C 206.820312 30.519531 207.257812 30.59375 207.5625 30.550781 Z M 209.976562 23.8125 C 210.214844 23.375 210.496094 22.953125 210.835938 22.601562 C 209.386719 22.050781 207.886719 21.542969 206.578125 20.773438 C 206.492188 22.050781 206.519531 23.324219 207.226562 24.46875 C 207.238281 24.492188 207.246094 24.515625 207.25 24.539062 C 207.355469 24.550781 207.460938 24.570312 207.546875 24.589844 C 207.570312 24.59375 207.585938 24.597656 207.601562 24.605469 C 207.734375 24.605469 207.875 24.746094 207.808594 24.90625 C 207.707031 25.152344 207.648438 25.382812 207.636719 25.609375 C 208.085938 25.871094 208.535156 26.144531 208.980469 26.410156 C 209.191406 25.480469 209.585938 24.53125 209.976562 23.8125 Z M 212.140625 23.71875 C 212.414062 23.4375 213.199219 23.125 213.148438 22.644531 C 213.101562 22.179688 212.324219 22.101562 211.976562 22.222656 C 211.152344 22.511719 210.574219 23.617188 210.238281 24.355469 C 209.832031 25.257812 209.410156 26.304688 209.320312 27.300781 C 209.304688 27.488281 209.296875 27.671875 209.308594 27.847656 C 209.394531 27.964844 209.535156 28.054688 209.6875 28.128906 C 210.117188 28.347656 210.40625 28.261719 210.640625 28.011719 C 210.457031 26.480469 211.0625 24.816406 212.140625 23.71875 Z M 213.625 24.164062 C 213.65625 24.140625 213.691406 24.132812 213.722656 24.125 C 213.726562 24.019531 213.714844 23.910156 213.667969 23.8125 C 213.195312 22.816406 212.296875 24.226562 212.039062 24.609375 C 211.746094 25.039062 210.28125 28.277344 211.699219 27.875 C 211.820312 27.839844 211.917969 27.777344 212.003906 27.699219 C 212.035156 26.457031 212.566406 24.871094 213.625 24.164062 Z M 214.3125 24.761719 C 214.160156 24.707031 213.996094 24.628906 213.875 24.570312 C 213.289062 24.96875 212.933594 25.644531 212.722656 26.304688 C 212.628906 26.59375 212.476562 27.003906 212.496094 27.3125 C 212.507812 27.476562 212.441406 27.496094 212.574219 27.648438 C 212.605469 27.683594 212.867188 27.785156 212.867188 27.800781 C 212.882812 27.765625 212.894531 27.738281 212.90625 27.707031 C 212.804688 26.640625 213.589844 25.503906 214.3125 24.761719 Z M 217.332031 25.953125 C 217.410156 25.667969 217.476562 25.367188 217.425781 25.0625 C 216.9375 25.132812 216.429688 25.113281 215.925781 25.050781 C 215.851562 25.042969 215.109375 24.910156 214.777344 24.828125 C 214.765625 24.839844 214.757812 24.855469 214.742188 24.867188 C 213.941406 25.644531 212.878906 27.042969 213.441406 28.203125 C 213.449219 28.222656 213.453125 28.242188 213.457031 28.261719 C 213.8125 28.480469 214.140625 28.707031 214.355469 29.085938 C 214.574219 29.46875 214.691406 29.867188 214.785156 30.261719 C 214.972656 30.144531 215.140625 29.984375 215.265625 29.792969 C 214.949219 29.40625 214.761719 28.949219 215.144531 28.589844 C 215.421875 28.332031 215.863281 28.367188 216.203125 28.5625 C 216.371094 28.207031 216.53125 27.851562 216.679688 27.484375 C 216.226562 27.285156 215.753906 26.90625 216.058594 26.433594 C 216.296875 26.066406 216.835938 25.84375 217.332031 25.953125 Z M 217.449219 28.046875 C 217.730469 27.515625 218.007812 26.984375 218.066406 26.371094 C 217.953125 26.300781 217.835938 26.238281 217.710938 26.199219 C 217.710938 26.199219 217.707031 26.199219 217.707031 26.203125 C 217.703125 26.226562 217.691406 26.246094 217.675781 26.261719 C 217.644531 26.359375 217.535156 26.433594 217.394531 26.371094 C 217.097656 26.234375 216.578125 26.355469 216.449219 26.621094 C 216.285156 26.960938 216.703125 27.09375 216.992188 27.203125 C 217.035156 27.214844 217.0625 27.238281 217.085938 27.265625 C 217.148438 27.320312 217.1875 27.402344 217.152344 27.488281 C 216.957031 27.972656 216.742188 28.449219 216.519531 28.917969 C 216.5 28.953125 216.476562 28.976562 216.449219 28.992188 C 216.367188 29.058594 216.21875 29.070312 216.113281 28.960938 C 215.925781 28.761719 215.546875 28.734375 215.402344 28.941406 C 215.253906 29.15625 215.433594 29.398438 215.601562 29.59375 C 215.636719 29.605469 215.671875 29.628906 215.695312 29.65625 C 215.9375 29.734375 216.183594 29.792969 216.425781 29.863281 C 216.90625 29.351562 217.128906 28.660156 217.449219 28.046875 Z M 218.621094 27.3125 C 218.53125 27.25 218.441406 27.195312 218.34375 27.148438 C 218.195312 27.585938 217.964844 27.996094 217.75 28.410156 C 217.574219 28.75 217.429688 29.101562 217.246094 29.433594 C 217.367188 29.464844 217.480469 29.5 217.59375 29.539062 C 217.957031 28.808594 218.292969 28.0625 218.621094 27.3125 Z M 219.609375 28.933594 C 219.707031 28.703125 219.792969 28.40625 219.582031 28.171875 C 219.375 27.9375 219.070312 27.941406 218.855469 28.113281 C 218.8125 28.148438 218.769531 28.160156 218.71875 28.160156 C 218.589844 28.445312 218.460938 28.730469 218.328125 29.019531 C 218.453125 29.3125 218.75 29.695312 219.113281 29.496094 C 219.34375 29.367188 219.507812 29.164062 219.609375 28.933594 Z M 199.75 14.015625 C 199.140625 13.746094 198.421875 14.496094 198.050781 14.859375 C 197.695312 15.199219 197.386719 15.585938 197.113281 15.996094 C 196.574219 16.808594 196.1875 17.710938 195.894531 18.636719 C 195.640625 19.417969 195.433594 20.214844 195.261719 21.019531 C 195.097656 21.769531 194.851562 22.433594 195.371094 23.082031 C 195.378906 23.058594 195.386719 23.03125 195.394531 23.003906 C 195.390625 22.980469 195.386719 22.957031 195.390625 22.925781 C 195.511719 21.324219 196.265625 19.570312 196.949219 18.128906 C 197.320312 17.339844 197.742188 16.574219 198.238281 15.851562 C 198.371094 15.664062 199.546875 13.976562 199.75 14.015625 Z M 213.496094 23.175781 C 213.730469 23.28125 213.9375 23.441406 214.046875 23.667969 C 214.140625 23.867188 214.15625 24.070312 214.140625 24.277344 C 214.226562 24.3125 214.320312 24.355469 214.410156 24.394531 C 214.4375 24.378906 214.46875 24.371094 214.515625 24.371094 C 214.707031 24.378906 214.894531 24.441406 215.0625 24.535156 C 215.082031 24.535156 215.101562 24.535156 215.125 24.539062 C 215.914062 24.679688 216.703125 24.808594 217.464844 24.65625 C 217.5 24.648438 217.527344 24.648438 217.554688 24.65625 C 217.644531 24.636719 217.75 24.675781 217.785156 24.789062 C 217.890625 25.152344 217.875 25.492188 217.800781 25.828125 C 218.007812 25.894531 218.199219 26.003906 218.378906 26.125 C 218.40625 26.140625 218.425781 26.167969 218.4375 26.195312 C 218.476562 26.234375 218.5 26.285156 218.5 26.347656 C 218.492188 26.496094 218.46875 26.636719 218.4375 26.777344 C 218.625 26.855469 218.796875 26.957031 218.949219 27.085938 C 219.050781 27.132812 219.128906 27.238281 219.078125 27.351562 C 219.035156 27.445312 218.996094 27.539062 218.957031 27.628906 C 219.234375 27.5625 219.542969 27.601562 219.789062 27.835938 C 220.171875 28.195312 220.207031 28.652344 220.027344 29.058594 C 219.859375 29.445312 219.558594 29.84375 219.082031 29.921875 C 218.667969 29.992188 218.339844 29.761719 218.117188 29.457031 C 218.050781 29.597656 217.980469 29.738281 217.910156 29.878906 C 217.859375 29.980469 217.742188 30 217.632812 29.957031 C 217.445312 29.875 217.253906 29.816406 217.058594 29.78125 C 217.054688 29.777344 217.050781 29.777344 217.042969 29.777344 C 216.941406 29.929688 216.824219 30.074219 216.6875 30.210938 C 216.640625 30.257812 216.585938 30.273438 216.53125 30.265625 C 216.492188 30.269531 216.457031 30.269531 216.414062 30.253906 C 216.15625 30.164062 215.890625 30.105469 215.628906 30.027344 C 215.417969 30.347656 215.113281 30.605469 214.746094 30.773438 C 214.609375 30.835938 214.4375 30.765625 214.40625 30.609375 C 214.320312 30.121094 214.226562 29.546875 213.882812 29.121094 C 213.675781 28.863281 213.40625 28.683594 213.128906 28.511719 C 212.878906 28.402344 212.683594 28.050781 212.441406 28.015625 C 212.222656 27.988281 212.027344 28.222656 211.820312 28.257812 C 211.566406 28.300781 211.328125 28.253906 211.09375 28.136719 C 211.078125 28.15625 211.0625 28.175781 211.042969 28.191406 C 210.683594 28.617188 210.171875 28.835938 209.523438 28.46875 C 209.347656 28.371094 209.148438 28.246094 209.003906 28.09375 C 208.914062 28.074219 208.84375 28.007812 208.835938 27.890625 C 208.832031 27.867188 208.835938 27.847656 208.832031 27.824219 C 208.816406 27.773438 208.804688 27.722656 208.804688 27.667969 C 208.804688 27.574219 208.816406 27.488281 208.832031 27.402344 C 208.84375 27.210938 208.871094 27.007812 208.902344 26.804688 C 208.5 26.566406 208.097656 26.320312 207.695312 26.078125 C 207.738281 26.214844 207.800781 26.351562 207.894531 26.488281 C 208.132812 26.851562 208.417969 27.164062 208.550781 27.582031 C 208.757812 28.226562 208.410156 28.808594 207.863281 29.105469 C 207.863281 29.125 207.867188 29.140625 207.863281 29.160156 C 208.179688 29.316406 208.535156 29.566406 208.464844 29.953125 C 208.402344 30.273438 208.15625 30.53125 207.933594 30.765625 C 207.929688 30.839844 207.890625 30.90625 207.792969 30.929688 C 207.78125 30.929688 207.769531 30.933594 207.757812 30.933594 C 207.71875 30.957031 207.675781 30.960938 207.636719 30.953125 C 207.367188 30.988281 207.109375 30.9375 206.824219 30.933594 C 206.308594 30.925781 205.789062 30.933594 205.273438 30.910156 C 204.398438 30.863281 203.542969 30.667969 202.695312 30.476562 C 201.785156 30.273438 200.851562 30.15625 199.957031 29.898438 C 199.046875 29.632812 198.179688 29.246094 197.277344 28.960938 C 197.222656 28.941406 197.179688 28.910156 197.15625 28.867188 C 197.136719 28.847656 197.117188 28.820312 197.105469 28.785156 C 196.976562 28.445312 196.753906 28.007812 196.871094 27.636719 C 196.988281 27.277344 197.375 27.191406 197.714844 27.167969 C 197.722656 27.148438 197.726562 27.132812 197.734375 27.113281 C 197.34375 26.632812 197.238281 25.964844 197.675781 25.445312 C 197.960938 25.105469 198.347656 24.941406 198.699219 24.683594 C 199.003906 24.453125 199.183594 24.210938 199.28125 23.921875 C 198.417969 24.421875 197.03125 24.625 196.714844 23.449219 C 196.5 23.515625 196.296875 23.605469 196.085938 23.671875 C 195.917969 23.726562 195.621094 23.84375 195.429688 23.742188 C 195.089844 23.558594 194.882812 23.3125 194.765625 23.039062 C 194.480469 22.511719 194.5625 22.003906 194.703125 21.34375 C 194.917969 20.324219 195.167969 19.316406 195.496094 18.324219 C 195.910156 17.085938 196.488281 15.878906 197.359375 14.894531 C 197.847656 14.34375 198.453125 13.730469 199.183594 13.523438 C 199.539062 13.425781 199.957031 13.464844 200.277344 13.65625 C 200.683594 13.902344 200.730469 14.453125 200.875 14.855469 C 202.039062 14.359375 202.753906 15.683594 202.855469 16.683594 C 202.902344 16.710938 202.953125 16.738281 203.003906 16.765625 C 203.066406 16.433594 203.105469 16.097656 203.09375 15.765625 C 203.078125 15.140625 202.917969 14.539062 202.953125 13.917969 C 202.492188 13.820312 201.921875 13.660156 201.859375 13.113281 C 201.796875 12.511719 202.1875 12.101562 202.753906 12.105469 C 202.730469 11.867188 202.792969 11.613281 202.996094 11.464844 C 203.167969 11.335938 203.378906 11.3125 203.582031 11.351562 C 203.59375 11.289062 203.601562 11.230469 203.613281 11.175781 C 203.394531 11.089844 203.253906 10.886719 203.277344 10.617188 C 203.296875 10.351562 203.492188 10.171875 203.734375 10.132812 C 203.527344 9.058594 203.71875 7.886719 203.214844 6.890625 C 203.203125 6.875 203.199219 6.851562 203.195312 6.835938 C 203.140625 6.722656 203.191406 6.546875 203.355469 6.519531 C 204.113281 6.394531 204.863281 6.371094 205.617188 6.472656 C 205.550781 6.136719 205.710938 5.75 206.003906 5.582031 C 205.902344 5.457031 205.832031 5.316406 205.804688 5.164062 C 205.785156 5.050781 205.851562 4.980469 205.9375 4.960938 C 205.949219 4.953125 205.964844 4.945312 205.980469 4.9375 C 206.101562 4.894531 206.179688 4.828125 206.226562 4.730469 C 206.054688 4.691406 205.886719 4.652344 205.714844 4.621094 C 205.660156 4.609375 205.621094 4.582031 205.59375 4.546875 C 205.511719 4.496094 205.460938 4.398438 205.527344 4.292969 C 205.65625 4.070312 205.695312 3.816406 205.746094 3.566406 C 205.757812 3.496094 205.800781 3.449219 205.851562 3.425781 C 205.894531 3.378906 205.960938 3.351562 206.042969 3.367188 C 206.144531 3.386719 206.328125 3.425781 206.507812 3.445312 C 206.492188 3.273438 206.460938 3.105469 206.433594 2.933594 C 206.429688 2.910156 206.429688 2.894531 206.429688 2.878906 C 206.414062 2.765625 206.46875 2.648438 206.613281 2.652344 C 206.804688 2.652344 207.03125 2.699219 207.226562 2.664062 C 207.175781 2.535156 207.179688 2.378906 207.242188 2.234375 C 207.363281 1.945312 207.683594 1.832031 207.980469 1.871094 C 208.265625 1.914062 208.53125 2.078125 208.582031 2.375 C 208.617188 2.578125 208.53125 2.777344 208.386719 2.914062 C 208.511719 3.003906 208.714844 3.039062 208.828125 3.085938 C 208.867188 3.101562 208.898438 3.128906 208.917969 3.15625 C 208.992188 3.226562 209.019531 3.335938 208.921875 3.425781 C 208.808594 3.53125 208.621094 3.699219 208.582031 3.855469 C 208.609375 3.863281 208.644531 3.867188 208.675781 3.867188 C 208.765625 3.863281 208.855469 3.851562 208.945312 3.839844 C 209.078125 3.820312 209.148438 3.910156 209.160156 4.011719 C 209.1875 4.050781 209.199219 4.101562 209.1875 4.160156 C 209.117188 4.515625 209.027344 4.867188 208.988281 5.226562 C 208.972656 5.371094 208.804688 5.421875 208.691406 5.375 C 208.601562 5.335938 208.515625 5.277344 208.429688 5.230469 C 208.410156 5.21875 208.386719 5.207031 208.363281 5.195312 C 208.367188 5.3125 208.40625 5.425781 208.511719 5.503906 C 208.605469 5.574219 208.605469 5.675781 208.554688 5.75 C 208.550781 5.777344 208.535156 5.804688 208.511719 5.832031 C 208.457031 5.890625 208.386719 5.945312 208.3125 5.988281 C 208.570312 6.257812 208.582031 6.710938 208.378906 7.015625 C 209.117188 7.207031 209.800781 7.515625 210.453125 7.914062 C 210.597656 8 210.578125 8.183594 210.484375 8.269531 C 210.472656 8.28125 210.460938 8.300781 210.445312 8.3125 C 209.601562 9.042969 209.335938 10.199219 208.738281 11.113281 C 208.945312 11.246094 209.058594 11.484375 208.980469 11.738281 C 208.898438 11.996094 208.691406 12.132812 208.457031 12.125 C 208.445312 12.183594 208.429688 12.238281 208.414062 12.300781 C 208.617188 12.34375 208.824219 12.445312 208.917969 12.628906 C 209.035156 12.859375 209.015625 13.097656 208.898438 13.3125 C 209.394531 13.523438 209.683594 14.074219 209.34375 14.585938 C 209.03125 15.050781 208.519531 15.003906 208.03125 14.914062 C 207.777344 15.652344 207.25 16.261719 207.050781 17.027344 C 206.824219 17.890625 206.746094 18.765625 206.675781 19.644531 C 206.65625 19.878906 206.632812 20.117188 206.609375 20.355469 C 207.984375 21.203125 209.605469 21.726562 211.148438 22.316406 C 211.148438 22.3125 211.78125 21.832031 211.882812 21.804688 C 212.324219 21.675781 212.898438 21.722656 213.242188 22.046875 C 213.398438 22.195312 213.566406 23.1875 213.496094 23.175781 " fill-opacity="1" fill-rule="nonzero"/></g></g></g><g clip-path="url(#id4)"><path fill="rgb(80.778503%, 29.019165%, 5.488586%)" d="M 16.175781 44.972656 C 16.027344 44.9375 15.085938 44.679688 14.085938 44.394531 C 13.089844 44.109375 12.144531 43.878906 11.988281 43.878906 C 11.835938 43.878906 10.800781 44.066406 9.691406 44.292969 C 7.757812 44.691406 7.660156 44.699219 7.210938 44.519531 C 6.949219 44.414062 6.703125 44.230469 6.660156 44.109375 C 6.605469 43.964844 6.5 43.914062 6.355469 43.964844 C 6.214844 44.007812 6.167969 43.988281 6.226562 43.90625 C 6.277344 43.835938 6.238281 43.75 6.144531 43.710938 C 6.046875 43.675781 6.125 43.667969 6.316406 43.699219 C 6.503906 43.730469 6.582031 43.726562 6.488281 43.691406 C 6.390625 43.652344 6.347656 43.574219 6.390625 43.515625 C 6.433594 43.453125 6.332031 43.417969 6.167969 43.4375 C 6 43.453125 5.835938 43.398438 5.800781 43.316406 C 5.769531 43.238281 5.835938 43.171875 5.949219 43.171875 C 6.066406 43.171875 6.191406 43.125 6.230469 43.074219 C 6.269531 43.019531 6.117188 43 5.890625 43.027344 C 5.410156 43.089844 5.378906 42.855469 5.832031 42.601562 C 6.09375 42.457031 6.089844 42.453125 5.753906 42.496094 C 5.476562 42.53125 5.347656 42.464844 5.171875 42.207031 C 4.953125 41.875 4.953125 41.871094 5.300781 41.871094 C 5.566406 41.871094 5.632812 41.824219 5.570312 41.6875 C 5.527344 41.582031 5.488281 41.476562 5.488281 41.453125 C 5.488281 41.425781 5.285156 41.433594 5.039062 41.46875 L 4.589844 41.53125 L 5.003906 41.347656 L 5.417969 41.167969 L 4.9375 41.226562 C 4.476562 41.28125 4.472656 41.277344 4.796875 41.140625 C 4.988281 41.0625 5.160156 40.992188 5.179688 40.980469 C 5.203125 40.972656 5.183594 40.878906 5.136719 40.78125 C 5.078125 40.644531 4.90625 40.613281 4.480469 40.648438 C 3.867188 40.695312 3.910156 40.648438 4.589844 40.511719 C 4.960938 40.4375 4.976562 40.417969 4.730469 40.332031 C 4.578125 40.28125 4.53125 40.234375 4.625 40.230469 C 4.722656 40.222656 4.796875 40.171875 4.796875 40.109375 C 4.796875 40.046875 4.609375 40.015625 4.375 40.042969 C 4.074219 40.074219 3.929688 40.03125 3.871094 39.886719 C 3.824219 39.777344 3.71875 39.652344 3.636719 39.601562 C 3.554688 39.554688 3.628906 39.515625 3.804688 39.515625 C 3.980469 39.515625 4.089844 39.5625 4.046875 39.621094 C 4.003906 39.679688 4.109375 39.695312 4.28125 39.652344 C 4.574219 39.585938 4.574219 39.578125 4.316406 39.53125 C 4.039062 39.480469 4.039062 39.480469 4.316406 39.382812 C 4.519531 39.308594 4.449219 39.292969 4.054688 39.308594 C 3.378906 39.34375 3.261719 39.121094 3.863281 38.949219 L 4.316406 38.820312 L 3.765625 38.867188 L 3.210938 38.917969 L 3.660156 38.785156 C 4.164062 38.636719 4.1875 38.589844 3.917969 38.273438 C 3.761719 38.089844 3.667969 38.070312 3.398438 38.175781 C 3.078125 38.304688 3.082031 38.308594 3.558594 38.425781 C 3.824219 38.492188 3.9375 38.550781 3.808594 38.558594 C 3.683594 38.5625 3.464844 38.601562 3.328125 38.640625 C 3.117188 38.699219 3.109375 38.6875 3.28125 38.582031 C 3.460938 38.472656 3.460938 38.453125 3.261719 38.453125 C 3.136719 38.453125 3 38.375 2.960938 38.285156 C 2.910156 38.167969 3.042969 38.078125 3.394531 37.992188 L 3.902344 37.867188 L 3.351562 37.917969 L 2.796875 37.964844 L 3.246094 37.835938 C 3.492188 37.765625 3.695312 37.65625 3.695312 37.59375 C 3.695312 37.53125 3.597656 37.515625 3.476562 37.554688 C 3.355469 37.59375 3.089844 37.652344 2.890625 37.6875 C 2.582031 37.738281 2.566406 37.730469 2.796875 37.636719 C 2.949219 37.578125 3.191406 37.496094 3.335938 37.457031 C 3.773438 37.335938 3.5 37.269531 3.03125 37.382812 C 2.765625 37.449219 2.5625 37.445312 2.515625 37.378906 C 2.472656 37.320312 2.582031 37.269531 2.753906 37.269531 C 2.929688 37.269531 3.167969 37.21875 3.28125 37.15625 C 3.429688 37.074219 3.351562 37.054688 3.003906 37.082031 C 2.738281 37.105469 2.648438 37.097656 2.796875 37.070312 C 3.367188 36.957031 3.367188 36.769531 2.796875 36.835938 L 2.246094 36.902344 L 2.699219 36.773438 C 3.277344 36.609375 3.191406 36.382812 2.554688 36.398438 C 2.179688 36.410156 2.082031 36.371094 2.140625 36.242188 C 2.183594 36.144531 2.324219 36.097656 2.472656 36.128906 C 2.613281 36.160156 2.769531 36.132812 2.816406 36.066406 C 2.875 35.988281 2.726562 35.960938 2.40625 35.992188 C 2.101562 36.023438 1.886719 35.988281 1.847656 35.902344 C 1.761719 35.710938 1.890625 35.617188 2.234375 35.632812 C 2.488281 35.640625 2.480469 35.65625 2.175781 35.742188 C 1.847656 35.839844 1.851562 35.84375 2.246094 35.820312 C 2.511719 35.804688 2.660156 35.734375 2.660156 35.621094 C 2.660156 35.488281 2.515625 35.449219 2.109375 35.464844 C 1.621094 35.484375 1.605469 35.476562 1.972656 35.402344 C 2.613281 35.277344 2.507812 34.964844 1.832031 34.992188 L 1.28125 35.015625 L 1.792969 34.875 C 2.40625 34.703125 2.324219 34.472656 1.617188 34.378906 C 1.273438 34.335938 1.21875 34.347656 1.417969 34.421875 C 1.636719 34.503906 1.652344 34.539062 1.488281 34.585938 C 1.375 34.617188 1.46875 34.628906 1.695312 34.609375 C 2.074219 34.574219 2.085938 34.582031 1.804688 34.699219 C 1.46875 34.839844 1.007812 34.742188 1.144531 34.558594 C 1.191406 34.492188 1.167969 34.441406 1.09375 34.441406 C 0.828125 34.441406 1.039062 34.03125 1.335938 33.972656 C 1.832031 33.871094 1.671875 33.683594 0.980469 33.554688 C 0.292969 33.429688 0 33.148438 0.546875 33.132812 C 0.808594 33.128906 0.824219 33.109375 0.625 33.042969 C 0.421875 32.976562 0.457031 32.925781 0.84375 32.746094 C 1.101562 32.628906 1.394531 32.367188 1.503906 32.160156 C 1.667969 31.839844 1.816406 31.761719 2.550781 31.597656 C 3.140625 31.46875 3.527344 31.300781 3.792969 31.054688 C 4.140625 30.738281 4.289062 30.695312 5.335938 30.621094 C 6.167969 30.5625 6.585938 30.472656 6.835938 30.308594 C 7.070312 30.148438 7.394531 30.074219 7.851562 30.074219 C 8.21875 30.074219 8.523438 30.023438 8.523438 29.960938 C 8.523438 29.898438 8.691406 29.773438 8.902344 29.683594 C 9.1875 29.558594 9.5625 29.542969 10.441406 29.609375 C 11.363281 29.683594 11.640625 29.667969 11.796875 29.535156 C 12.042969 29.324219 12.535156 29.324219 13.71875 29.535156 C 14.605469 29.691406 17.757812 29.921875 18.152344 29.855469 C 18.488281 29.800781 19.28125 30.09375 19.429688 30.328125 C 19.507812 30.457031 19.554688 30.726562 19.53125 30.933594 C 19.488281 31.289062 19.519531 31.3125 20.40625 31.601562 C 22.03125 32.136719 22.183594 32.457031 21.566406 34.085938 C 19.863281 38.566406 19.074219 40.597656 18.589844 41.753906 C 18.273438 42.5 17.886719 43.5 17.726562 43.976562 C 17.386719 44.992188 17.109375 45.171875 16.175781 44.972656 Z M 17.148438 44.613281 C 17.230469 44.566406 17.429688 44.15625 17.589844 43.699219 C 17.753906 43.246094 18.46875 41.414062 19.183594 39.632812 C 21.1875 34.609375 21.695312 33.109375 21.539062 32.652344 C 21.367188 32.132812 21 31.96875 17.949219 31.0625 C 12.601562 29.472656 12.261719 29.40625 11.917969 29.867188 C 11.710938 30.144531 10.875 32.183594 8.730469 37.625 C 8.027344 39.410156 7.378906 41.027344 7.289062 41.21875 C 7.039062 41.757812 7.199219 42.054688 7.867188 42.28125 C 8.1875 42.394531 9.601562 42.828125 11.003906 43.246094 C 12.410156 43.664062 14.054688 44.160156 14.660156 44.347656 C 15.71875 44.675781 16.84375 44.796875 17.148438 44.613281 Z M 16.738281 44.085938 C 16.949219 43.507812 17.085938 43.257812 17.15625 43.320312 C 17.265625 43.414062 16.914062 44.351562 16.765625 44.351562 C 16.699219 44.351562 16.683594 44.230469 16.738281 44.085938 Z M 16.011719 43.917969 C 15.902344 43.671875 16.257812 43.109375 16.527344 43.109375 C 16.796875 43.109375 16.863281 43.492188 16.652344 43.835938 C 16.449219 44.160156 16.136719 44.199219 16.011719 43.917969 Z M 16.660156 43.382812 C 16.660156 43.214844 16.417969 43.28125 16.332031 43.476562 C 16.179688 43.8125 16.25 43.941406 16.457031 43.707031 C 16.570312 43.582031 16.660156 43.4375 16.660156 43.382812 Z M 14.527344 42.757812 C 14.4375 42.128906 14.449219 42.097656 14.878906 41.785156 C 15.832031 41.09375 15.796875 41.089844 15.972656 41.824219 L 16.132812 42.488281 L 15.535156 42.941406 C 15.207031 43.195312 14.867188 43.402344 14.78125 43.402344 C 14.691406 43.40625 14.582031 43.117188 14.527344 42.757812 Z M 16.945312 42.554688 C 16.851562 42.34375 16.886719 42.242188 17.117188 42.089844 C 17.644531 41.734375 17.84375 42.160156 17.347656 42.582031 L 17.066406 42.820312 Z M 9.707031 41.664062 L 9.613281 40.988281 L 10.191406 40.539062 C 10.820312 40.050781 11.019531 40.035156 11.160156 40.464844 C 11.382812 41.152344 11.296875 41.414062 10.695312 41.882812 C 10.371094 42.128906 10.039062 42.335938 9.957031 42.339844 C 9.871094 42.34375 9.761719 42.042969 9.707031 41.664062 Z M 13.027344 41.273438 C 12.816406 40.671875 12.660156 40.109375 12.660156 39.96875 C 12.660156 39.878906 12.910156 39.671875 13.210938 39.511719 C 13.515625 39.351562 13.765625 39.179688 13.765625 39.132812 C 13.765625 39.082031 13.878906 39.042969 14.023438 39.042969 C 14.28125 39.042969 14.453125 39.4375 14.453125 40.035156 C 14.453125 40.355469 13.113281 41.523438 13.027344 41.273438 Z M 15.773438 40.023438 L 15.53125 39.367188 L 16.125 38.851562 C 16.988281 38.097656 17.082031 38.132812 17.261719 39.300781 C 17.324219 39.707031 17.285156 39.773438 16.675781 40.210938 L 16.015625 40.679688 Z M 11.085938 39.128906 C 11.035156 38.855469 10.960938 38.515625 10.917969 38.378906 C 10.863281 38.1875 10.992188 38.023438 11.484375 37.679688 C 11.863281 37.414062 12.171875 37.277344 12.246094 37.339844 C 12.3125 37.398438 12.40625 37.730469 12.453125 38.074219 C 12.535156 38.699219 12.53125 38.707031 11.945312 39.164062 C 11.617188 39.414062 11.3125 39.625 11.265625 39.625 C 11.21875 39.628906 11.136719 39.40625 11.085938 39.128906 Z M 16.953125 36.949219 L 16.769531 36.269531 L 17.4375 35.765625 C 18.03125 35.320312 18.125 35.28125 18.269531 35.453125 C 18.359375 35.554688 18.476562 35.859375 18.527344 36.125 C 18.621094 36.585938 18.597656 36.625 17.984375 37.113281 C 17.628906 37.394531 17.296875 37.625 17.238281 37.625 C 17.183594 37.625 17.054688 37.320312 16.953125 36.949219 Z M 12.3125 35.777344 L 12.085938 35.105469 L 12.613281 34.71875 C 13.375 34.160156 13.546875 34.199219 13.765625 34.976562 C 13.945312 35.613281 13.941406 35.632812 13.625 35.824219 C 13.445312 35.929688 13.183594 36.113281 13.046875 36.230469 C 12.664062 36.5625 12.558594 36.496094 12.3125 35.777344 Z M 14.917969 35.058594 L 14.773438 34.382812 L 15.269531 33.988281 C 15.539062 33.773438 15.867188 33.546875 15.996094 33.488281 C 16.261719 33.363281 16.339844 33.511719 16.410156 34.261719 C 16.449219 34.691406 16.394531 34.78125 15.816406 35.238281 C 15.46875 35.511719 15.15625 35.738281 15.121094 35.738281 C 15.089844 35.738281 15 35.433594 14.917969 35.058594 Z M 18.257812 34.765625 C 18.230469 34.683594 18.128906 34.386719 18.03125 34.105469 L 17.847656 33.59375 L 18.511719 33.074219 C 18.878906 32.785156 19.226562 32.550781 19.289062 32.550781 C 19.414062 32.550781 19.492188 32.75 19.625 33.429688 C 19.710938 33.867188 19.683594 33.914062 19.054688 34.402344 C 18.316406 34.972656 18.324219 34.96875 18.257812 34.765625 Z M 13.625 33.363281 C 13.625 33.222656 13.550781 32.898438 13.460938 32.640625 C 13.300781 32.1875 13.308594 32.160156 13.703125 31.917969 C 13.925781 31.78125 14.222656 31.570312 14.363281 31.449219 C 14.679688 31.179688 14.804688 31.28125 15.023438 31.984375 L 15.195312 32.535156 L 14.511719 33.070312 C 13.738281 33.679688 13.625 33.714844 13.625 33.363281 Z M 11.382812 32.679688 C 11.308594 32.441406 11.613281 31.960938 11.839844 31.960938 C 12.015625 31.960938 12.007812 32.394531 11.828125 32.679688 C 11.644531 32.96875 11.46875 32.96875 11.382812 32.679688 Z M 12.109375 31.308594 C 12.109375 30.910156 12.496094 30.285156 12.703125 30.34375 C 12.988281 30.421875 12.960938 30.957031 12.65625 31.289062 C 12.289062 31.691406 12.109375 31.695312 12.109375 31.308594 Z M 12.703125 30.550781 C 12.59375 30.445312 12.390625 30.839844 12.398438 31.136719 C 12.40625 31.394531 12.425781 31.382812 12.582031 31.019531 C 12.683594 30.792969 12.734375 30.582031 12.703125 30.550781 Z M 11.707031 31.386719 C 11.6875 31.105469 12.007812 30.3125 12.140625 30.3125 C 12.273438 30.3125 12.1875 30.613281 11.894531 31.195312 C 11.796875 31.390625 11.710938 31.476562 11.707031 31.386719 Z M 8.402344 44.253906 C 8.222656 44.230469 8.019531 44.261719 7.949219 44.320312 C 7.875 44.386719 8.003906 44.402344 8.277344 44.363281 C 8.660156 44.308594 8.679688 44.292969 8.402344 44.253906 Z M 7.5 44.070312 C 7.386719 43.996094 7.144531 43.378906 6.957031 42.699219 C 6.578125 41.304688 3.695312 31.570312 3.648438 31.53125 C 3.539062 31.433594 1.710938 32.074219 1.597656 32.246094 C 1.460938 32.453125 1.609375 32.898438 2.183594 34.027344 C 2.25 34.15625 2.683594 35.085938 3.148438 36.089844 C 3.613281 37.097656 4.078125 38.085938 4.1875 38.289062 C 4.292969 38.492188 4.621094 39.15625 4.914062 39.765625 C 5.671875 41.339844 6.453125 42.929688 6.675781 43.363281 C 6.78125 43.570312 6.867188 43.777344 6.867188 43.828125 C 6.867188 44.019531 7.316406 44.332031 7.503906 44.269531 C 7.675781 44.210938 7.675781 44.183594 7.5 44.070312 Z M 3.367188 35.148438 C 3.1875 34.992188 3.136719 34.835938 3.199219 34.621094 C 3.304688 34.265625 3.433594 34.246094 3.746094 34.542969 C 3.929688 34.714844 3.949219 34.828125 3.839844 35.074219 C 3.679688 35.4375 3.699219 35.433594 3.367188 35.148438 Z M 2.535156 33.421875 C 2.484375 32.992188 2.476562 32.609375 2.519531 32.574219 C 2.632812 32.476562 3.074219 32.894531 3.414062 33.421875 C 3.71875 33.890625 3.726562 34.105469 3.429688 33.800781 C 3.214844 33.578125 2.867188 33.691406 2.867188 33.980469 C 2.867188 34.105469 2.8125 34.203125 2.75 34.203125 C 2.683594 34.203125 2.589844 33.851562 2.535156 33.421875 Z M 3.070312 33.5 C 3.152344 33.386719 2.871094 32.90625 2.71875 32.90625 C 2.675781 32.90625 2.667969 33.066406 2.699219 33.261719 C 2.761719 33.613281 2.917969 33.714844 3.070312 33.5 Z M 10.109375 44.003906 C 10.65625 43.878906 10.925781 43.773438 10.730469 43.765625 C 10.386719 43.75 10.390625 43.746094 10.796875 43.574219 C 11.027344 43.480469 11.089844 43.433594 10.9375 43.472656 C 10.785156 43.511719 10.105469 43.644531 9.429688 43.769531 C 8.753906 43.894531 8.164062 44.03125 8.121094 44.070312 C 8.078125 44.113281 8.195312 44.117188 8.386719 44.078125 C 8.574219 44.039062 9.007812 43.980469 9.351562 43.945312 L 9.972656 43.882812 L 9.425781 44 C 9.128906 44.066406 8.855469 44.144531 8.816406 44.175781 C 8.691406 44.285156 9.15625 44.222656 10.109375 44.003906 Z M 10.003906 43.800781 C 10.101562 43.765625 10.253906 43.765625 10.351562 43.800781 C 10.445312 43.832031 10.367188 43.859375 10.179688 43.859375 C 9.988281 43.859375 9.910156 43.832031 10.003906 43.800781 Z M 8.417969 43.664062 C 7.742188 43.621094 7.417969 43.324219 7.417969 42.746094 C 7.417969 42.539062 7.335938 42.3125 7.234375 42.242188 C 7.078125 42.132812 7.082031 42.25 7.25 42.90625 C 7.5 43.890625 7.640625 44.007812 8.417969 43.832031 L 9 43.699219 Z M 11.519531 43.6875 C 11.472656 43.648438 11.355469 43.644531 11.253906 43.679688 C 11.144531 43.71875 11.179688 43.746094 11.339844 43.75 C 11.484375 43.753906 11.566406 43.726562 11.519531 43.6875 Z M 10.277344 43.453125 C 10.234375 43.414062 10.113281 43.410156 10.015625 43.445312 C 9.902344 43.480469 9.9375 43.507812 10.097656 43.515625 C 10.242188 43.519531 10.324219 43.492188 10.277344 43.453125 Z M 8.21875 43.023438 C 8.230469 42.679688 8.070312 42.46875 7.796875 42.464844 C 7.671875 42.460938 7.660156 43.21875 7.785156 43.328125 C 8.007812 43.515625 8.207031 43.375 8.21875 43.023438 Z M 9.972656 43.300781 L 10.382812 43.226562 L 9.832031 43.089844 C 8.613281 42.789062 8.382812 42.777344 8.382812 43.023438 C 8.382812 43.148438 8.425781 43.285156 8.476562 43.328125 C 8.585938 43.421875 9.394531 43.40625 9.972656 43.300781 Z M 6.140625 42.746094 C 6.09375 42.707031 5.976562 42.703125 5.875 42.734375 C 5.765625 42.773438 5.796875 42.800781 5.960938 42.808594 C 6.105469 42.8125 6.1875 42.785156 6.140625 42.746094 Z M 5.796875 42.265625 C 5.703125 42.234375 5.546875 42.234375 5.453125 42.265625 C 5.359375 42.300781 5.4375 42.324219 5.625 42.324219 C 5.816406 42.324219 5.894531 42.300781 5.796875 42.265625 Z M 5.660156 42.03125 C 5.566406 41.996094 5.410156 41.996094 5.316406 42.03125 C 5.222656 42.0625 5.296875 42.089844 5.488281 42.089844 C 5.679688 42.089844 5.753906 42.0625 5.660156 42.03125 Z M 6.984375 36.582031 C 6.84375 34.398438 6.691406 32.171875 6.644531 31.636719 L 6.566406 30.660156 L 6.0625 30.738281 C 5.785156 30.785156 5.214844 30.851562 4.796875 30.890625 C 4.066406 30.957031 4.039062 30.972656 3.996094 31.335938 C 3.972656 31.542969 4.109375 32.234375 4.300781 32.871094 C 4.492188 33.507812 5.089844 35.539062 5.628906 37.390625 C 6.167969 39.238281 6.671875 40.964844 6.753906 41.222656 L 6.902344 41.695312 L 7.074219 41.125 C 7.214844 40.652344 7.199219 39.851562 6.984375 36.582031 Z M 5.460938 34.367188 C 5.285156 34.214844 5.265625 34.105469 5.378906 33.832031 C 5.605469 33.273438 6.164062 33.648438 5.988281 34.246094 C 5.882812 34.605469 5.773438 34.632812 5.460938 34.367188 Z M 4.972656 32.996094 C 4.898438 32.914062 4.792969 32.6875 4.742188 32.492188 C 4.691406 32.296875 4.617188 32.046875 4.574219 31.933594 C 4.472656 31.632812 4.730469 31.679688 4.898438 31.992188 L 5.042969 32.257812 L 5.21875 31.933594 C 5.316406 31.753906 5.449219 31.609375 5.515625 31.609375 C 5.582031 31.609375 5.570312 31.714844 5.484375 31.847656 C 5.367188 32.039062 5.394531 32.148438 5.621094 32.394531 C 5.910156 32.710938 5.992188 33.023438 5.785156 33.023438 C 5.722656 33.023438 5.601562 32.890625 5.511719 32.730469 C 5.289062 32.308594 5.03125 32.351562 5.144531 32.789062 C 5.242188 33.167969 5.1875 33.230469 4.972656 32.996094 Z M 8.15625 36.269531 C 8.273438 33.011719 8.382812 30.917969 8.457031 30.515625 C 8.511719 30.207031 8.492188 30.191406 7.925781 30.191406 C 6.828125 30.191406 6.851562 30.117188 7.007812 33.261719 C 7.082031 34.785156 7.203125 36.75 7.277344 37.625 C 7.351562 38.5 7.414062 39.429688 7.421875 39.691406 L 7.433594 40.160156 L 7.75 39.453125 C 8.03125 38.828125 8.078125 38.457031 8.15625 36.269531 Z M 7.429688 33.808594 C 7.289062 33.582031 7.289062 33.480469 7.4375 33.277344 C 7.667969 32.960938 7.78125 32.960938 7.976562 33.269531 C 8.09375 33.457031 8.078125 33.574219 7.910156 33.800781 C 7.640625 34.148438 7.644531 34.148438 7.429688 33.808594 Z M 7.972656 32.550781 C 7.972656 32.488281 7.84375 32.433594 7.691406 32.433594 C 7.03125 32.433594 7 31.121094 7.660156 31.039062 C 7.988281 31 8.046875 31.121094 8.152344 32.109375 C 8.1875 32.417969 8.160156 32.671875 8.09375 32.671875 C 8.023438 32.671875 7.972656 32.617188 7.972656 32.550781 Z M 7.722656 32.175781 C 7.503906 31.988281 7.511719 31.71875 7.730469 31.757812 C 7.824219 31.773438 7.902344 31.679688 7.902344 31.550781 C 7.902344 31.179688 7.496094 31.265625 7.445312 31.644531 C 7.402344 31.945312 7.605469 32.316406 7.808594 32.316406 C 7.851562 32.316406 7.8125 32.253906 7.722656 32.175781 Z M 4.625 39.796875 C 4.578125 39.757812 4.457031 39.753906 4.359375 39.785156 C 4.25 39.824219 4.28125 39.851562 4.441406 39.855469 C 4.585938 39.863281 4.667969 39.835938 4.625 39.796875 Z M 4.179688 39.160156 C 4.453125 39.058594 4.453125 39.058594 4.179688 39.050781 C 4.027344 39.046875 3.808594 39.097656 3.695312 39.160156 C 3.511719 39.261719 3.511719 39.273438 3.695312 39.265625 C 3.808594 39.261719 4.027344 39.214844 4.179688 39.160156 Z M 9.566406 34.910156 C 10.042969 33.710938 10.472656 32.621094 10.523438 32.492188 C 10.601562 32.296875 10.589844 32.289062 10.457031 32.433594 C 10.328125 32.578125 10.3125 32.554688 10.386719 32.316406 C 10.535156 31.804688 10.757812 31.371094 10.871094 31.371094 C 10.972656 31.371094 11.597656 29.945312 11.523438 29.894531 C 11.503906 29.878906 10.945312 29.84375 10.285156 29.808594 C 9.472656 29.765625 9.042969 29.789062 8.957031 29.882812 C 8.890625 29.957031 8.792969 30.546875 8.746094 31.195312 C 8.617188 32.972656 8.519531 37.472656 8.617188 37.269531 C 8.664062 37.175781 9.09375 36.113281 9.566406 34.910156 Z M 9.296875 33.675781 C 9.078125 33.390625 9.078125 33.351562 9.304688 33.019531 C 9.4375 32.828125 9.59375 32.671875 9.652344 32.671875 C 9.875 32.671875 9.925781 33.277344 9.730469 33.621094 L 9.527344 33.980469 Z M 9.304688 32.121094 C 9.253906 32.078125 9.210938 31.964844 9.210938 31.871094 C 9.210938 31.726562 9.25 31.722656 9.425781 31.847656 C 9.71875 32.058594 9.90625 31.867188 10 31.269531 C 10.046875 30.964844 10.011719 30.71875 9.902344 30.605469 C 9.753906 30.453125 9.796875 30.429688 10.195312 30.433594 C 10.613281 30.4375 10.636719 30.453125 10.417969 30.59375 C 10.269531 30.691406 10.179688 30.910156 10.179688 31.171875 C 10.179688 31.921875 9.691406 32.449219 9.304688 32.121094 Z M 1.9375 34.242188 C 1.839844 34.210938 1.804688 34.125 1.855469 34.054688 C 1.914062 33.972656 1.863281 33.957031 1.707031 34.007812 C 1.574219 34.050781 1.363281 34.09375 1.234375 34.101562 C 1.109375 34.109375 1.191406 34.15625 1.417969 34.203125 C 1.898438 34.308594 2.1875 34.332031 1.9375 34.242188 Z M 1.488281 33.449219 C 1.488281 33.425781 1.394531 33.371094 1.28125 33.335938 C 1.167969 33.296875 1.074219 33.320312 1.074219 33.382812 C 1.074219 33.445312 1.167969 33.496094 1.28125 33.496094 C 1.394531 33.496094 1.488281 33.476562 1.488281 33.449219 Z M 0.832031 33.300781 C 0.738281 33.265625 0.582031 33.265625 0.488281 33.300781 C 0.394531 33.332031 0.472656 33.359375 0.660156 33.359375 C 0.851562 33.359375 0.929688 33.332031 0.832031 33.300781 Z M 1.449219 32.953125 C 1.40625 32.914062 1.285156 32.910156 1.1875 32.945312 C 1.078125 32.980469 1.109375 33.007812 1.269531 33.015625 C 1.414062 33.019531 1.496094 32.992188 1.449219 32.953125 Z M 10.863281 31.667969 C 10.863281 31.601562 10.804688 31.628906 10.730469 31.726562 C 10.65625 31.824219 10.597656 31.957031 10.597656 32.023438 C 10.597656 32.085938 10.65625 32.058594 10.730469 31.960938 C 10.804688 31.863281 10.863281 31.734375 10.863281 31.667969 Z M 19.28125 30.855469 C 19.28125 30.339844 19.019531 30.167969 18.136719 30.113281 C 17.089844 30.046875 14.714844 29.832031 14.316406 29.769531 C 14.125 29.738281 15.121094 30.054688 16.523438 30.476562 C 17.925781 30.894531 19.121094 31.238281 19.179688 31.246094 C 19.234375 31.25 19.28125 31.074219 19.28125 30.855469 Z M 5.039062 41.675781 C 5.136719 41.644531 5.289062 41.644531 5.386719 41.675781 C 5.480469 41.707031 5.402344 41.734375 5.210938 41.734375 C 5.023438 41.734375 4.945312 41.707031 5.039062 41.675781 Z M 4.558594 40.847656 C 4.695312 40.816406 4.878906 40.820312 4.972656 40.851562 C 5.066406 40.882812 4.957031 40.90625 4.730469 40.90625 C 4.503906 40.902344 4.425781 40.875 4.558594 40.847656 Z M 4.109375 40.339844 C 4.109375 40.273438 4.171875 40.21875 4.246094 40.21875 C 4.324219 40.21875 4.386719 40.273438 4.386719 40.339844 C 4.386719 40.402344 4.324219 40.457031 4.246094 40.457031 C 4.171875 40.457031 4.109375 40.402344 4.109375 40.339844 Z M 3.53125 38.253906 C 3.632812 38.21875 3.75 38.222656 3.796875 38.261719 C 3.839844 38.300781 3.761719 38.328125 3.613281 38.324219 C 3.453125 38.316406 3.421875 38.289062 3.53125 38.253906 Z M 2.316406 36.5625 C 2.429688 36.5 2.648438 36.453125 2.796875 36.457031 C 3.074219 36.460938 3.074219 36.460938 2.796875 36.5625 C 2.648438 36.621094 2.429688 36.667969 2.316406 36.671875 C 2.132812 36.675781 2.132812 36.664062 2.316406 36.5625 Z M 1.5 35.222656 C 1.664062 35.101562 2.332031 35.03125 2.25 35.144531 C 2.203125 35.210938 2 35.265625 1.800781 35.265625 C 1.605469 35.265625 1.46875 35.246094 1.5 35.222656 Z M 0.800781 33.863281 C 0.976562 33.753906 0.964844 33.734375 0.742188 33.734375 C 0.597656 33.734375 0.511719 33.703125 0.554688 33.667969 C 0.597656 33.628906 0.839844 33.652344 1.09375 33.714844 C 1.347656 33.777344 1.453125 33.832031 1.328125 33.839844 C 1.199219 33.84375 0.984375 33.882812 0.84375 33.921875 C 0.632812 33.976562 0.625 33.96875 0.800781 33.863281 Z M 0.800781 33.863281 " fill-opacity="1" fill-rule="nonzero"/></g><g fill="rgb(21.958923%, 20.388794%, 15.689087%)" fill-opacity="0.4"><g transform="translate(13.627082, 39.119529)"><g><path d="M 1.046875 0.0664062 C 1.488281 0.0664062 1.925781 -0.136719 2.332031 -0.84375 C 2.46875 -1.082031 2.671875 -1.316406 2.839844 -1.554688 C 2.941406 -1.722656 3.074219 -1.824219 3.175781 -1.824219 C 3.3125 -1.824219 3.378906 -1.722656 3.277344 -1.519531 C 3.210938 -1.351562 3.109375 -1.183594 3.042969 -1.015625 C 2.90625 -0.539062 2.941406 -0.0351562 3.582031 -0.0351562 C 4.089844 -0.0351562 4.429688 -0.371094 4.597656 -0.675781 C 5.070312 -1.621094 5.578125 -2.570312 5.949219 -3.515625 C 6.1875 -4.023438 6.492188 -4.191406 7.03125 -4.191406 L 9.769531 -4.191406 C 10.683594 -4.191406 11.5625 -4.191406 12.472656 -4.15625 C 13.015625 -4.15625 13.21875 -3.921875 13.25 -3.449219 C 13.285156 -2.570312 13.488281 -1.488281 13.488281 -0.574219 C 13.519531 0.0351562 13.859375 0.203125 14.332031 0.203125 C 14.738281 0.203125 15.007812 0.0351562 15.109375 -0.304688 C 15.179688 -0.742188 15.246094 -0.878906 15.414062 -0.878906 C 15.582031 -0.878906 15.652344 -0.777344 15.820312 -0.269531 C 15.921875 0.101562 16.257812 0.238281 16.734375 0.238281 C 17.171875 0.238281 17.511719 -0.136719 17.441406 -0.609375 L 14.636719 -21.5 C 14.535156 -22.039062 14.332031 -22.308594 13.996094 -22.308594 C 13.589844 -22.308594 13.320312 -22.074219 13.148438 -21.703125 L 12.980469 -21.398438 C 12.914062 -21.195312 12.777344 -21.09375 12.675781 -21.09375 C 12.542969 -21.09375 12.441406 -21.230469 12.472656 -21.429688 L 12.441406 -21.667969 C 12.472656 -22.140625 12.40625 -22.378906 11.933594 -22.378906 C 11.425781 -22.378906 11.054688 -22.109375 10.714844 -21.464844 L 0.777344 -1.046875 C 0.40625 -0.304688 0.539062 0.0664062 1.046875 0.0664062 Z M 11.527344 -15.347656 C 11.59375 -15.480469 11.695312 -15.550781 11.761719 -15.550781 C 11.832031 -15.550781 11.898438 -15.480469 11.933594 -15.347656 L 12.675781 -8.011719 C 12.742188 -7.46875 12.574219 -7.300781 11.933594 -7.300781 L 8.484375 -7.300781 C 7.910156 -7.300781 7.742188 -7.46875 8.011719 -7.976562 Z M 9.9375 -6.050781 C 11.222656 -6.050781 12.507812 -5.984375 12.710938 -5.78125 C 12.40625 -5.613281 11.289062 -5.542969 10.175781 -5.542969 C 8.855469 -5.542969 7.503906 -5.644531 7.300781 -5.847656 C 7.605469 -5.984375 8.753906 -6.050781 9.9375 -6.050781 Z M 9.9375 -6.050781 "/></g></g></g><g fill="rgb(21.958923%, 20.388794%, 15.689087%)" fill-opacity="0.4"><g transform="translate(31.981845, 39.119529)"><g><path d="M 7.910156 -21.398438 C 7.300781 -21.398438 6.964844 -21.027344 6.863281 -20.449219 L 6.828125 -20.25 C 6.792969 -20.078125 6.660156 -19.976562 6.558594 -19.976562 C 6.457031 -19.976562 6.355469 -20.046875 6.355469 -20.214844 L 6.355469 -20.550781 C 6.320312 -21.128906 6.1875 -21.398438 5.511719 -21.398438 C 4.96875 -21.398438 4.699219 -20.957031 4.632812 -20.417969 L 1.148438 -0.371094 C 1.046875 0.167969 1.285156 0.507812 1.792969 0.507812 C 2.398438 0.472656 2.738281 0.167969 2.941406 -0.609375 L 3.042969 -0.914062 C 3.109375 -1.21875 3.210938 -1.351562 3.378906 -1.351562 C 3.515625 -1.351562 3.617188 -1.25 3.550781 -1.015625 L 3.480469 -0.640625 C 3.449219 -0.101562 3.617188 0.269531 4.089844 0.269531 L 4.15625 0.269531 C 4.734375 0.269531 4.96875 -0.101562 5.070312 -0.574219 L 8.6875 -20.351562 C 8.789062 -21.128906 8.519531 -21.398438 7.910156 -21.398438 Z M 7.910156 -21.398438 "/></g></g></g><g fill="rgb(21.958923%, 20.388794%, 15.689087%)" fill-opacity="0.4"><g transform="translate(39.553639, 39.119529)"><g><path d="M 7.910156 -21.398438 C 7.300781 -21.398438 6.964844 -21.027344 6.863281 -20.449219 L 6.828125 -20.25 C 6.792969 -20.078125 6.660156 -19.976562 6.558594 -19.976562 C 6.457031 -19.976562 6.355469 -20.046875 6.355469 -20.214844 L 6.355469 -20.550781 C 6.320312 -21.128906 6.1875 -21.398438 5.511719 -21.398438 C 4.96875 -21.398438 4.699219 -20.957031 4.632812 -20.417969 L 1.148438 -0.371094 C 1.046875 0.167969 1.285156 0.507812 1.792969 0.507812 C 2.398438 0.472656 2.738281 0.167969 2.941406 -0.609375 L 3.042969 -0.914062 C 3.109375 -1.21875 3.210938 -1.351562 3.378906 -1.351562 C 3.515625 -1.351562 3.617188 -1.25 3.550781 -1.015625 L 3.480469 -0.640625 C 3.449219 -0.101562 3.617188 0.269531 4.089844 0.269531 L 4.15625 0.269531 C 4.734375 0.269531 4.96875 -0.101562 5.070312 -0.574219 L 8.6875 -20.351562 C 8.789062 -21.128906 8.519531 -21.398438 7.910156 -21.398438 Z M 7.910156 -21.398438 "/></g></g></g><g fill="rgb(21.958923%, 20.388794%, 15.689087%)" fill-opacity="0.4"><g transform="translate(47.125432, 39.119529)"><g/></g></g><g fill="rgb(21.958923%, 20.388794%, 15.689087%)" fill-opacity="0.4"><g transform="translate(51.046568, 39.119529)"><g><path d="M 7.976562 0.203125 C 10.378906 0.203125 13.996094 -1.824219 14.300781 -3.753906 C 14.601562 -5.746094 15.246094 -8.25 15.582031 -10.242188 C 15.753906 -11.324219 14.941406 -11.257812 14.976562 -11.492188 C 15.042969 -11.863281 15.785156 -11.628906 15.921875 -12.339844 C 15.957031 -12.675781 15.71875 -12.878906 15.144531 -12.878906 L 10.445312 -12.878906 C 9.769531 -12.878906 9.464844 -12.675781 9.398438 -12.304688 C 9.328125 -12 9.464844 -11.832031 9.769531 -11.761719 C 10.207031 -11.695312 10.34375 -11.5625 10.308594 -11.460938 C 10.277344 -11.359375 10.074219 -11.289062 9.769531 -11.222656 C 9.226562 -11.054688 8.925781 -10.917969 8.890625 -10.582031 C 8.789062 -10.140625 9.296875 -10.039062 9.734375 -10.039062 L 10.984375 -10.039062 C 11.425781 -10.039062 11.695312 -9.90625 11.59375 -9.261719 L 10.785156 -4.699219 C 10.648438 -4.054688 10.34375 -3.683594 9.835938 -3.414062 C 9.804688 -3.414062 9.363281 -3.074219 8.550781 -3.074219 C 6.894531 -3.074219 5.171875 -5.171875 6.320312 -11.695312 C 7.199219 -16.800781 9.601562 -19.066406 11.5625 -19.066406 C 12.777344 -19.066406 13.65625 -18.355469 14.199219 -17.511719 C 14.300781 -17.375 14.46875 -17.308594 14.671875 -17.308594 C 14.839844 -17.308594 15.007812 -17.339844 15.109375 -17.441406 C 15.480469 -17.714844 15.550781 -18.1875 15.378906 -18.523438 C 15.179688 -18.894531 14.804688 -19.269531 14.367188 -19.574219 C 14.097656 -19.707031 14.230469 -19.945312 14.5 -19.945312 C 14.601562 -19.945312 14.738281 -19.910156 14.839844 -19.808594 C 15.144531 -19.574219 15.414062 -19.402344 15.652344 -19.199219 C 15.855469 -19.03125 16.15625 -18.894531 16.429688 -18.894531 C 16.5625 -18.894531 16.699219 -18.929688 16.800781 -18.996094 C 17.238281 -19.335938 17.171875 -19.773438 16.96875 -20.148438 C 16.359375 -21.261719 14.265625 -22.378906 12.167969 -22.378906 C 6.894531 -22.378906 3.582031 -18.625 2.367188 -11.730469 C 0.675781 -2.164062 3.582031 0.167969 7.976562 0.203125 Z M 4.226562 -5.105469 C 4.328125 -3.988281 4.597656 -3.277344 5.308594 -2.601562 C 5.847656 -2.097656 6.625 -1.65625 7.742188 -1.417969 C 7.539062 -1.417969 6.015625 -1.519531 5.035156 -2.195312 L 5.375 -1.960938 C 4.292969 -2.601562 3.988281 -3.550781 4.226562 -5.105469 Z M 4.226562 -5.105469 "/></g></g></g><g fill="rgb(21.958923%, 20.388794%, 15.689087%)" fill-opacity="0.4"><g transform="translate(66.899951, 39.119529)"><g><path d="M 9.972656 -16.125 C 6.152344 -16.125 2.738281 -13.117188 1.894531 -8.28125 C 0.84375 -2.433594 3.347656 0.167969 7.402344 0.167969 C 10.378906 0.167969 14.230469 -2.230469 15.144531 -7.503906 C 16.191406 -13.351562 13.792969 -16.125 9.972656 -16.125 Z M 13.421875 -9.667969 C 13.351562 -12.441406 11.5625 -13.960938 10.039062 -14.433594 C 12.640625 -14.433594 14.0625 -12.371094 13.421875 -9.667969 Z M 11.324219 -7.84375 C 10.75 -4.632812 9.296875 -3.277344 7.808594 -3.277344 C 6.457031 -3.277344 5.171875 -4.597656 5.78125 -8.148438 C 6.253906 -10.851562 7.808594 -12.640625 9.363281 -12.640625 C 11.054688 -12.640625 11.863281 -10.882812 11.324219 -7.84375 Z M 11.324219 -7.84375 "/></g></g></g><g fill="rgb(21.958923%, 20.388794%, 15.689087%)" fill-opacity="0.4"><g transform="translate(81.942075, 39.119529)"><g><path d="M 9.972656 -16.125 C 6.152344 -16.125 2.738281 -13.117188 1.894531 -8.28125 C 0.84375 -2.433594 3.347656 0.167969 7.402344 0.167969 C 10.378906 0.167969 14.230469 -2.230469 15.144531 -7.503906 C 16.191406 -13.351562 13.792969 -16.125 9.972656 -16.125 Z M 13.421875 -9.667969 C 13.351562 -12.441406 11.5625 -13.960938 10.039062 -14.433594 C 12.640625 -14.433594 14.0625 -12.371094 13.421875 -9.667969 Z M 11.324219 -7.84375 C 10.75 -4.632812 9.296875 -3.277344 7.808594 -3.277344 C 6.457031 -3.277344 5.171875 -4.597656 5.78125 -8.148438 C 6.253906 -10.851562 7.808594 -12.640625 9.363281 -12.640625 C 11.054688 -12.640625 11.863281 -10.882812 11.324219 -7.84375 Z M 11.324219 -7.84375 "/></g></g></g><g fill="rgb(21.958923%, 20.388794%, 15.689087%)" fill-opacity="0.4"><g transform="translate(96.984199, 39.119529)"><g><path d="M 16.597656 -21.464844 C 15.957031 -21.464844 15.582031 -21.027344 15.449219 -20.316406 L 15.378906 -19.945312 C 15.378906 -19.84375 15.277344 -19.773438 15.210938 -19.773438 C 15.144531 -19.773438 15.078125 -19.84375 15.078125 -19.945312 L 15.042969 -20.550781 C 15.007812 -21.296875 14.773438 -21.601562 14.230469 -21.601562 C 13.722656 -21.601562 13.351562 -21.296875 13.21875 -20.621094 L 12.304688 -15.277344 C 12.269531 -15.109375 12.203125 -15.007812 12.101562 -15.007812 C 12.066406 -15.007812 12 -15.042969 11.898438 -15.179688 C 11.390625 -15.683594 10.480469 -16.125 9.296875 -16.125 C 6.355469 -16.125 3.378906 -14.230469 2.535156 -9.464844 L 2.128906 -7.132812 C 1.148438 -1.621094 3.109375 0.203125 6.589844 0.203125 C 8.6875 0.238281 10.074219 -0.304688 11.019531 -2.195312 C 11.1875 -2.433594 11.222656 -2.570312 11.324219 -2.570312 C 11.460938 -2.570312 11.527344 -2.46875 11.5625 -2.230469 L 11.933594 -0.914062 C 12.101562 -0.238281 12.238281 0.101562 12.777344 0.101562 L 12.8125 0.101562 C 13.320312 0.101562 13.589844 -0.304688 13.691406 -0.675781 C 13.757812 -0.84375 13.757812 -0.777344 13.757812 -0.945312 L 17.308594 -20.316406 C 17.441406 -21.027344 17.273438 -21.464844 16.597656 -21.464844 Z M 8.890625 -14.601562 C 6.828125 -13.960938 5.679688 -12.980469 4.867188 -11.121094 C 4.902344 -13.117188 6.761719 -14.601562 8.890625 -14.601562 Z M 10.242188 -3.785156 C 10.207031 -3.582031 10.140625 -3.480469 9.972656 -3.378906 C 9.464844 -3.175781 8.789062 -2.941406 8.046875 -2.941406 C 6.21875 -2.941406 5.308594 -3.820312 5.882812 -7.066406 L 6.289062 -9.464844 C 6.691406 -11.730469 7.976562 -12.675781 9.667969 -12.675781 C 10.613281 -12.675781 11.085938 -12.40625 11.492188 -12 C 11.59375 -11.863281 11.664062 -11.730469 11.628906 -11.527344 Z M 10.242188 -3.785156 "/></g></g></g><g fill="rgb(21.958923%, 20.388794%, 15.689087%)" fill-opacity="0.4"><g transform="translate(113.209408, 39.119529)"><g/></g></g><g fill="rgb(21.958923%, 20.388794%, 15.689087%)" fill-opacity="0.4"><g transform="translate(117.130546, 39.119529)"><g><path d="M 1.894531 0.101562 C 2.433594 0.101562 2.773438 -0.101562 2.875 -0.742188 L 3.042969 -1.519531 C 3.109375 -1.824219 3.246094 -1.960938 3.378906 -1.960938 C 3.550781 -1.960938 3.652344 -1.824219 3.582031 -1.519531 L 3.515625 -0.777344 C 3.414062 -0.238281 3.683594 0.101562 4.292969 0.136719 C 4.96875 0.136719 5.171875 -0.167969 5.339844 -0.84375 L 7.402344 -12.777344 C 7.4375 -12.914062 7.46875 -12.945312 7.539062 -12.945312 C 7.570312 -12.945312 7.640625 -12.914062 7.640625 -12.8125 L 9.53125 -5.679688 C 9.632812 -5.308594 9.804688 -5.136719 10.007812 -5.136719 C 10.175781 -5.136719 10.410156 -5.308594 10.648438 -5.679688 L 15.042969 -12.8125 C 15.078125 -12.878906 15.144531 -12.945312 15.210938 -12.945312 C 15.246094 -12.945312 15.277344 -12.914062 15.277344 -12.742188 L 13.183594 -0.84375 C 13.046875 -0.167969 13.21875 0.136719 13.824219 0.136719 C 14.433594 0.101562 14.875 -0.238281 14.941406 -0.777344 L 15.109375 -1.519531 C 15.179688 -1.792969 15.347656 -1.960938 15.480469 -1.960938 C 15.617188 -1.960938 15.753906 -1.792969 15.683594 -1.519531 L 15.550781 -0.742188 C 15.449219 -0.101562 15.683594 0.101562 16.257812 0.101562 C 16.800781 0.0664062 17.136719 -0.203125 17.273438 -1.25 L 20.722656 -21.398438 C 20.824219 -22.140625 20.585938 -22.546875 19.976562 -22.546875 C 19.4375 -22.546875 19.097656 -22.140625 18.964844 -21.464844 L 18.828125 -20.925781 C 18.792969 -20.753906 18.726562 -20.6875 18.660156 -20.6875 C 18.59375 -20.6875 18.523438 -20.753906 18.523438 -20.925781 L 18.558594 -21.5 C 18.59375 -22.308594 18.355469 -22.613281 17.816406 -22.613281 L 17.714844 -22.613281 C 17.207031 -22.613281 16.96875 -22.109375 16.632812 -21.566406 L 11.761719 -12.878906 C 11.59375 -12.542969 11.425781 -12.203125 11.222656 -12.203125 C 11.019531 -12.203125 10.984375 -12.542969 10.953125 -12.878906 L 9.128906 -21.566406 C 8.957031 -22.109375 8.925781 -22.613281 8.417969 -22.613281 L 8.316406 -22.613281 C 7.773438 -22.613281 7.46875 -22.34375 7.199219 -21.5 L 6.996094 -20.925781 C 6.929688 -20.753906 6.863281 -20.6875 6.792969 -20.6875 C 6.726562 -20.6875 6.691406 -20.753906 6.691406 -20.925781 L 6.761719 -21.464844 C 6.828125 -22.140625 6.660156 -22.511719 6.117188 -22.511719 C 5.476562 -22.511719 5.136719 -22.140625 5.003906 -21.398438 L 1.351562 -1.25 C 1.148438 -0.203125 1.351562 0.0664062 1.894531 0.101562 Z M 1.894531 0.101562 "/></g></g></g><g fill="rgb(21.958923%, 20.388794%, 15.689087%)" fill-opacity="0.4"><g transform="translate(136.397979, 39.119529)"><g><path d="M 10.546875 -16.125 C 5.984375 -16.125 3.277344 -12.742188 2.535156 -8.417969 C 1.488281 -2.570312 3.347656 0.203125 6.894531 0.203125 C 8.957031 0.203125 11.085938 -0.371094 12.914062 -1.925781 C 13.285156 -2.230469 13.589844 -2.773438 13.21875 -3.109375 C 13.117188 -3.246094 12.945312 -3.277344 12.8125 -3.277344 C 12.472656 -3.277344 12.101562 -3.109375 11.796875 -2.90625 C 11.492188 -2.703125 11.1875 -2.46875 10.816406 -2.265625 C 10.683594 -2.195312 10.582031 -2.164062 10.480469 -2.164062 C 10.277344 -2.164062 10.277344 -2.367188 10.546875 -2.570312 C 10.953125 -2.941406 11.664062 -3.449219 11.933594 -3.855469 C 12.101562 -4.054688 12.167969 -4.429688 12.035156 -4.597656 C 11.933594 -4.734375 11.761719 -4.800781 11.59375 -4.800781 C 11.425781 -4.800781 11.222656 -4.734375 11.054688 -4.5625 C 10.378906 -3.886719 9.128906 -3.210938 8.046875 -3.210938 C 6.421875 -3.210938 5.8125 -4.800781 6.421875 -8.28125 C 6.964844 -11.390625 8.214844 -12.878906 9.804688 -12.84375 C 11.121094 -12.84375 11.761719 -12.167969 11.628906 -11.324219 C 11.460938 -10.378906 10.511719 -9.667969 9.261719 -9.667969 L 8.855469 -9.667969 C 8.214844 -9.667969 7.945312 -9.429688 7.875 -9.027344 C 7.773438 -8.484375 8.046875 -8.382812 8.621094 -8.382812 L 8.789062 -8.382812 C 9.09375 -8.382812 9.128906 -8.148438 8.789062 -8.113281 L 8.550781 -8.078125 C 8.011719 -7.976562 7.707031 -7.773438 7.605469 -7.335938 C 7.570312 -6.894531 7.84375 -6.761719 8.957031 -6.761719 C 12.710938 -6.761719 14.875 -8.382812 15.347656 -11.121094 C 15.921875 -14.398438 14.230469 -16.125 10.546875 -16.125 Z M 13.757812 -11.019531 C 13.589844 -12.878906 12.8125 -13.859375 10.953125 -14.5 C 13.082031 -14.5 14.398438 -13.015625 13.757812 -11.019531 Z M 13.757812 -11.019531 "/></g></g></g><g fill="rgb(21.958923%, 20.388794%, 15.689087%)" fill-opacity="0.4"><g transform="translate(151.60912, 39.119529)"><g><path d="M 10.546875 -16.125 C 5.984375 -16.125 3.277344 -12.742188 2.535156 -8.417969 C 1.488281 -2.570312 3.347656 0.203125 6.894531 0.203125 C 8.957031 0.203125 11.085938 -0.371094 12.914062 -1.925781 C 13.285156 -2.230469 13.589844 -2.773438 13.21875 -3.109375 C 13.117188 -3.246094 12.945312 -3.277344 12.8125 -3.277344 C 12.472656 -3.277344 12.101562 -3.109375 11.796875 -2.90625 C 11.492188 -2.703125 11.1875 -2.46875 10.816406 -2.265625 C 10.683594 -2.195312 10.582031 -2.164062 10.480469 -2.164062 C 10.277344 -2.164062 10.277344 -2.367188 10.546875 -2.570312 C 10.953125 -2.941406 11.664062 -3.449219 11.933594 -3.855469 C 12.101562 -4.054688 12.167969 -4.429688 12.035156 -4.597656 C 11.933594 -4.734375 11.761719 -4.800781 11.59375 -4.800781 C 11.425781 -4.800781 11.222656 -4.734375 11.054688 -4.5625 C 10.378906 -3.886719 9.128906 -3.210938 8.046875 -3.210938 C 6.421875 -3.210938 5.8125 -4.800781 6.421875 -8.28125 C 6.964844 -11.390625 8.214844 -12.878906 9.804688 -12.84375 C 11.121094 -12.84375 11.761719 -12.167969 11.628906 -11.324219 C 11.460938 -10.378906 10.511719 -9.667969 9.261719 -9.667969 L 8.855469 -9.667969 C 8.214844 -9.667969 7.945312 -9.429688 7.875 -9.027344 C 7.773438 -8.484375 8.046875 -8.382812 8.621094 -8.382812 L 8.789062 -8.382812 C 9.09375 -8.382812 9.128906 -8.148438 8.789062 -8.113281 L 8.550781 -8.078125 C 8.011719 -7.976562 7.707031 -7.773438 7.605469 -7.335938 C 7.570312 -6.894531 7.84375 -6.761719 8.957031 -6.761719 C 12.710938 -6.761719 14.875 -8.382812 15.347656 -11.121094 C 15.921875 -14.398438 14.230469 -16.125 10.546875 -16.125 Z M 13.757812 -11.019531 C 13.589844 -12.878906 12.8125 -13.859375 10.953125 -14.5 C 13.082031 -14.5 14.398438 -13.015625 13.757812 -11.019531 Z M 13.757812 -11.019531 "/></g></g></g><g fill="rgb(21.958923%, 20.388794%, 15.689087%)" fill-opacity="0.4"><g transform="translate(166.820261, 39.119529)"><g><path d="M 11.019531 -16.089844 C 8.957031 -16.089844 7.539062 -15.550781 6.589844 -13.65625 C 6.492188 -13.421875 6.390625 -13.285156 6.289062 -13.285156 C 6.152344 -13.285156 6.117188 -13.386719 6.085938 -13.621094 L 5.679688 -14.941406 C 5.542969 -15.617188 5.410156 -15.957031 4.867188 -15.957031 L 4.800781 -15.957031 C 4.292969 -15.957031 4.023438 -15.582031 3.921875 -15.179688 L 3.855469 -14.90625 L 0.304688 4.460938 C 0.203125 5.171875 0.371094 5.613281 1.046875 5.613281 C 1.65625 5.613281 2.0625 5.171875 2.164062 4.460938 L 2.230469 4.089844 C 2.265625 3.988281 2.332031 3.921875 2.398438 3.921875 C 2.5 3.921875 2.570312 3.988281 2.535156 4.089844 L 2.570312 4.699219 C 2.636719 5.441406 2.875 5.710938 3.414062 5.710938 C 3.921875 5.710938 4.292969 5.441406 4.394531 4.765625 L 5.339844 -0.574219 C 5.375 -0.742188 5.410156 -0.878906 5.511719 -0.878906 C 5.578125 -0.878906 5.644531 -0.8125 5.746094 -0.675781 C 6.21875 -0.167969 7.167969 0.269531 8.316406 0.269531 C 11.257812 0.269531 14.230469 -1.621094 15.078125 -6.421875 L 15.480469 -8.722656 C 16.460938 -14.265625 14.5 -16.089844 11.019531 -16.089844 Z M 13.859375 -10.984375 C 13.691406 -12.878906 12.945312 -13.859375 11.054688 -14.5 C 13.21875 -14.5 14.535156 -13.015625 13.859375 -10.984375 Z M 11.324219 -6.421875 C 10.917969 -4.125 9.667969 -3.175781 7.976562 -3.175781 C 6.996094 -3.175781 6.523438 -3.449219 6.117188 -3.886719 C 6.050781 -3.988281 5.984375 -4.125 6.015625 -4.328125 L 7.402344 -12.066406 C 7.4375 -12.269531 7.46875 -12.371094 7.671875 -12.472656 C 8.148438 -12.710938 8.855469 -12.914062 9.566406 -12.914062 C 11.390625 -12.914062 12.304688 -12.035156 11.761719 -8.789062 Z M 11.324219 -6.421875 "/></g></g></g><g fill="rgb(21.958923%, 20.388794%, 15.689087%)" fill-opacity="0.4"><g transform="translate(182.301827, 39.119529)"><g><path d="M 7.910156 -21.398438 C 7.300781 -21.398438 6.964844 -21.027344 6.863281 -20.449219 L 6.828125 -20.25 C 6.792969 -20.078125 6.660156 -19.976562 6.558594 -19.976562 C 6.457031 -19.976562 6.355469 -20.046875 6.355469 -20.214844 L 6.355469 -20.550781 C 6.320312 -21.128906 6.1875 -21.398438 5.511719 -21.398438 C 4.96875 -21.398438 4.699219 -20.957031 4.632812 -20.417969 L 1.148438 -0.371094 C 1.046875 0.167969 1.285156 0.507812 1.792969 0.507812 C 2.398438 0.472656 2.738281 0.167969 2.941406 -0.609375 L 3.042969 -0.914062 C 3.109375 -1.21875 3.210938 -1.351562 3.378906 -1.351562 C 3.515625 -1.351562 3.617188 -1.25 3.550781 -1.015625 L 3.480469 -0.640625 C 3.449219 -0.101562 3.617188 0.269531 4.089844 0.269531 L 4.15625 0.269531 C 4.734375 0.269531 4.96875 -0.101562 5.070312 -0.574219 L 8.6875 -20.351562 C 8.789062 -21.128906 8.519531 -21.398438 7.910156 -21.398438 Z M 7.910156 -21.398438 "/></g></g></g><g fill="rgb(21.958923%, 20.388794%, 15.689087%)" fill-opacity="0.4"><g transform="translate(189.873618, 39.119529)"><g><path d="M 10.546875 -16.125 C 5.984375 -16.125 3.277344 -12.742188 2.535156 -8.417969 C 1.488281 -2.570312 3.347656 0.203125 6.894531 0.203125 C 8.957031 0.203125 11.085938 -0.371094 12.914062 -1.925781 C 13.285156 -2.230469 13.589844 -2.773438 13.21875 -3.109375 C 13.117188 -3.246094 12.945312 -3.277344 12.8125 -3.277344 C 12.472656 -3.277344 12.101562 -3.109375 11.796875 -2.90625 C 11.492188 -2.703125 11.1875 -2.46875 10.816406 -2.265625 C 10.683594 -2.195312 10.582031 -2.164062 10.480469 -2.164062 C 10.277344 -2.164062 10.277344 -2.367188 10.546875 -2.570312 C 10.953125 -2.941406 11.664062 -3.449219 11.933594 -3.855469 C 12.101562 -4.054688 12.167969 -4.429688 12.035156 -4.597656 C 11.933594 -4.734375 11.761719 -4.800781 11.59375 -4.800781 C 11.425781 -4.800781 11.222656 -4.734375 11.054688 -4.5625 C 10.378906 -3.886719 9.128906 -3.210938 8.046875 -3.210938 C 6.421875 -3.210938 5.8125 -4.800781 6.421875 -8.28125 C 6.964844 -11.390625 8.214844 -12.878906 9.804688 -12.84375 C 11.121094 -12.84375 11.761719 -12.167969 11.628906 -11.324219 C 11.460938 -10.378906 10.511719 -9.667969 9.261719 -9.667969 L 8.855469 -9.667969 C 8.214844 -9.667969 7.945312 -9.429688 7.875 -9.027344 C 7.773438 -8.484375 8.046875 -8.382812 8.621094 -8.382812 L 8.789062 -8.382812 C 9.09375 -8.382812 9.128906 -8.148438 8.789062 -8.113281 L 8.550781 -8.078125 C 8.011719 -7.976562 7.707031 -7.773438 7.605469 -7.335938 C 7.570312 -6.894531 7.84375 -6.761719 8.957031 -6.761719 C 12.710938 -6.761719 14.875 -8.382812 15.347656 -11.121094 C 15.921875 -14.398438 14.230469 -16.125 10.546875 -16.125 Z M 13.757812 -11.019531 C 13.589844 -12.878906 12.8125 -13.859375 10.953125 -14.5 C 13.082031 -14.5 14.398438 -13.015625 13.757812 -11.019531 Z M 13.757812 -11.019531 "/></g></g></g><g fill="rgb(97.648621%, 58.039856%, 23.139954%)" fill-opacity="1"><g transform="translate(12.133064, 37.62551)"><g><path d="M 1.046875 0.0664062 C 1.488281 0.0664062 1.925781 -0.136719 2.332031 -0.84375 C 2.46875 -1.082031 2.671875 -1.316406 2.839844 -1.554688 C 2.941406 -1.722656 3.074219 -1.824219 3.175781 -1.824219 C 3.3125 -1.824219 3.378906 -1.722656 3.277344 -1.519531 C 3.210938 -1.351562 3.109375 -1.183594 3.042969 -1.015625 C 2.90625 -0.539062 2.941406 -0.0351562 3.582031 -0.0351562 C 4.089844 -0.0351562 4.429688 -0.371094 4.597656 -0.675781 C 5.070312 -1.621094 5.578125 -2.570312 5.949219 -3.515625 C 6.1875 -4.023438 6.492188 -4.191406 7.03125 -4.191406 L 9.769531 -4.191406 C 10.683594 -4.191406 11.5625 -4.191406 12.472656 -4.15625 C 13.015625 -4.15625 13.21875 -3.921875 13.25 -3.449219 C 13.285156 -2.570312 13.488281 -1.488281 13.488281 -0.574219 C 13.519531 0.0351562 13.859375 0.203125 14.332031 0.203125 C 14.738281 0.203125 15.007812 0.0351562 15.109375 -0.304688 C 15.179688 -0.742188 15.246094 -0.878906 15.414062 -0.878906 C 15.582031 -0.878906 15.652344 -0.777344 15.820312 -0.269531 C 15.921875 0.101562 16.257812 0.238281 16.734375 0.238281 C 17.171875 0.238281 17.511719 -0.136719 17.441406 -0.609375 L 14.636719 -21.5 C 14.535156 -22.039062 14.332031 -22.308594 13.996094 -22.308594 C 13.589844 -22.308594 13.320312 -22.074219 13.148438 -21.703125 L 12.980469 -21.398438 C 12.914062 -21.195312 12.777344 -21.09375 12.675781 -21.09375 C 12.542969 -21.09375 12.441406 -21.230469 12.472656 -21.429688 L 12.441406 -21.667969 C 12.472656 -22.140625 12.40625 -22.378906 11.933594 -22.378906 C 11.425781 -22.378906 11.054688 -22.109375 10.714844 -21.464844 L 0.777344 -1.046875 C 0.40625 -0.304688 0.539062 0.0664062 1.046875 0.0664062 Z M 11.527344 -15.347656 C 11.59375 -15.480469 11.695312 -15.550781 11.761719 -15.550781 C 11.832031 -15.550781 11.898438 -15.480469 11.933594 -15.347656 L 12.675781 -8.011719 C 12.742188 -7.46875 12.574219 -7.300781 11.933594 -7.300781 L 8.484375 -7.300781 C 7.910156 -7.300781 7.742188 -7.46875 8.011719 -7.976562 Z M 9.9375 -6.050781 C 11.222656 -6.050781 12.507812 -5.984375 12.710938 -5.78125 C 12.40625 -5.613281 11.289062 -5.542969 10.175781 -5.542969 C 8.855469 -5.542969 7.503906 -5.644531 7.300781 -5.847656 C 7.605469 -5.984375 8.753906 -6.050781 9.9375 -6.050781 Z M 9.9375 -6.050781 "/></g></g></g><g fill="rgb(97.648621%, 58.039856%, 23.139954%)" fill-opacity="1"><g transform="translate(30.487826, 37.62551)"><g><path d="M 7.910156 -21.398438 C 7.300781 -21.398438 6.964844 -21.027344 6.863281 -20.449219 L 6.828125 -20.25 C 6.792969 -20.078125 6.660156 -19.976562 6.558594 -19.976562 C 6.457031 -19.976562 6.355469 -20.046875 6.355469 -20.214844 L 6.355469 -20.550781 C 6.320312 -21.128906 6.1875 -21.398438 5.511719 -21.398438 C 4.96875 -21.398438 4.699219 -20.957031 4.632812 -20.417969 L 1.148438 -0.371094 C 1.046875 0.167969 1.285156 0.507812 1.792969 0.507812 C 2.398438 0.472656 2.738281 0.167969 2.941406 -0.609375 L 3.042969 -0.914062 C 3.109375 -1.21875 3.210938 -1.351562 3.378906 -1.351562 C 3.515625 -1.351562 3.617188 -1.25 3.550781 -1.015625 L 3.480469 -0.640625 C 3.449219 -0.101562 3.617188 0.269531 4.089844 0.269531 L 4.15625 0.269531 C 4.734375 0.269531 4.96875 -0.101562 5.070312 -0.574219 L 8.6875 -20.351562 C 8.789062 -21.128906 8.519531 -21.398438 7.910156 -21.398438 Z M 7.910156 -21.398438 "/></g></g></g><g fill="rgb(97.648621%, 58.039856%, 23.139954%)" fill-opacity="1"><g transform="translate(38.05962, 37.62551)"><g><path d="M 7.910156 -21.398438 C 7.300781 -21.398438 6.964844 -21.027344 6.863281 -20.449219 L 6.828125 -20.25 C 6.792969 -20.078125 6.660156 -19.976562 6.558594 -19.976562 C 6.457031 -19.976562 6.355469 -20.046875 6.355469 -20.214844 L 6.355469 -20.550781 C 6.320312 -21.128906 6.1875 -21.398438 5.511719 -21.398438 C 4.96875 -21.398438 4.699219 -20.957031 4.632812 -20.417969 L 1.148438 -0.371094 C 1.046875 0.167969 1.285156 0.507812 1.792969 0.507812 C 2.398438 0.472656 2.738281 0.167969 2.941406 -0.609375 L 3.042969 -0.914062 C 3.109375 -1.21875 3.210938 -1.351562 3.378906 -1.351562 C 3.515625 -1.351562 3.617188 -1.25 3.550781 -1.015625 L 3.480469 -0.640625 C 3.449219 -0.101562 3.617188 0.269531 4.089844 0.269531 L 4.15625 0.269531 C 4.734375 0.269531 4.96875 -0.101562 5.070312 -0.574219 L 8.6875 -20.351562 C 8.789062 -21.128906 8.519531 -21.398438 7.910156 -21.398438 Z M 7.910156 -21.398438 "/></g></g></g><g fill="rgb(97.648621%, 58.039856%, 23.139954%)" fill-opacity="1"><g transform="translate(45.631414, 37.62551)"><g/></g></g><g fill="rgb(97.648621%, 58.039856%, 23.139954%)" fill-opacity="1"><g transform="translate(49.552549, 37.62551)"><g><path d="M 7.976562 0.203125 C 10.378906 0.203125 13.996094 -1.824219 14.300781 -3.753906 C 14.601562 -5.746094 15.246094 -8.25 15.582031 -10.242188 C 15.753906 -11.324219 14.941406 -11.257812 14.976562 -11.492188 C 15.042969 -11.863281 15.785156 -11.628906 15.921875 -12.339844 C 15.957031 -12.675781 15.71875 -12.878906 15.144531 -12.878906 L 10.445312 -12.878906 C 9.769531 -12.878906 9.464844 -12.675781 9.398438 -12.304688 C 9.328125 -12 9.464844 -11.832031 9.769531 -11.761719 C 10.207031 -11.695312 10.34375 -11.5625 10.308594 -11.460938 C 10.277344 -11.359375 10.074219 -11.289062 9.769531 -11.222656 C 9.226562 -11.054688 8.925781 -10.917969 8.890625 -10.582031 C 8.789062 -10.140625 9.296875 -10.039062 9.734375 -10.039062 L 10.984375 -10.039062 C 11.425781 -10.039062 11.695312 -9.90625 11.59375 -9.261719 L 10.785156 -4.699219 C 10.648438 -4.054688 10.34375 -3.683594 9.835938 -3.414062 C 9.804688 -3.414062 9.363281 -3.074219 8.550781 -3.074219 C 6.894531 -3.074219 5.171875 -5.171875 6.320312 -11.695312 C 7.199219 -16.800781 9.601562 -19.066406 11.5625 -19.066406 C 12.777344 -19.066406 13.65625 -18.355469 14.199219 -17.511719 C 14.300781 -17.375 14.46875 -17.308594 14.671875 -17.308594 C 14.839844 -17.308594 15.007812 -17.339844 15.109375 -17.441406 C 15.480469 -17.714844 15.550781 -18.1875 15.378906 -18.523438 C 15.179688 -18.894531 14.804688 -19.269531 14.367188 -19.574219 C 14.097656 -19.707031 14.230469 -19.945312 14.5 -19.945312 C 14.601562 -19.945312 14.738281 -19.910156 14.839844 -19.808594 C 15.144531 -19.574219 15.414062 -19.402344 15.652344 -19.199219 C 15.855469 -19.03125 16.15625 -18.894531 16.429688 -18.894531 C 16.5625 -18.894531 16.699219 -18.929688 16.800781 -18.996094 C 17.238281 -19.335938 17.171875 -19.773438 16.96875 -20.148438 C 16.359375 -21.261719 14.265625 -22.378906 12.167969 -22.378906 C 6.894531 -22.378906 3.582031 -18.625 2.367188 -11.730469 C 0.675781 -2.164062 3.582031 0.167969 7.976562 0.203125 Z M 4.226562 -5.105469 C 4.328125 -3.988281 4.597656 -3.277344 5.308594 -2.601562 C 5.847656 -2.097656 6.625 -1.65625 7.742188 -1.417969 C 7.539062 -1.417969 6.015625 -1.519531 5.035156 -2.195312 L 5.375 -1.960938 C 4.292969 -2.601562 3.988281 -3.550781 4.226562 -5.105469 Z M 4.226562 -5.105469 "/></g></g></g><g fill="rgb(97.648621%, 58.039856%, 23.139954%)" fill-opacity="1"><g transform="translate(65.405932, 37.62551)"><g><path d="M 9.972656 -16.125 C 6.152344 -16.125 2.738281 -13.117188 1.894531 -8.28125 C 0.84375 -2.433594 3.347656 0.167969 7.402344 0.167969 C 10.378906 0.167969 14.230469 -2.230469 15.144531 -7.503906 C 16.191406 -13.351562 13.792969 -16.125 9.972656 -16.125 Z M 13.421875 -9.667969 C 13.351562 -12.441406 11.5625 -13.960938 10.039062 -14.433594 C 12.640625 -14.433594 14.0625 -12.371094 13.421875 -9.667969 Z M 11.324219 -7.84375 C 10.75 -4.632812 9.296875 -3.277344 7.808594 -3.277344 C 6.457031 -3.277344 5.171875 -4.597656 5.78125 -8.148438 C 6.253906 -10.851562 7.808594 -12.640625 9.363281 -12.640625 C 11.054688 -12.640625 11.863281 -10.882812 11.324219 -7.84375 Z M 11.324219 -7.84375 "/></g></g></g><g fill="rgb(97.648621%, 58.039856%, 23.139954%)" fill-opacity="1"><g transform="translate(80.448056, 37.62551)"><g><path d="M 9.972656 -16.125 C 6.152344 -16.125 2.738281 -13.117188 1.894531 -8.28125 C 0.84375 -2.433594 3.347656 0.167969 7.402344 0.167969 C 10.378906 0.167969 14.230469 -2.230469 15.144531 -7.503906 C 16.191406 -13.351562 13.792969 -16.125 9.972656 -16.125 Z M 13.421875 -9.667969 C 13.351562 -12.441406 11.5625 -13.960938 10.039062 -14.433594 C 12.640625 -14.433594 14.0625 -12.371094 13.421875 -9.667969 Z M 11.324219 -7.84375 C 10.75 -4.632812 9.296875 -3.277344 7.808594 -3.277344 C 6.457031 -3.277344 5.171875 -4.597656 5.78125 -8.148438 C 6.253906 -10.851562 7.808594 -12.640625 9.363281 -12.640625 C 11.054688 -12.640625 11.863281 -10.882812 11.324219 -7.84375 Z M 11.324219 -7.84375 "/></g></g></g><g fill="rgb(97.648621%, 58.039856%, 23.139954%)" fill-opacity="1"><g transform="translate(95.490181, 37.62551)"><g><path d="M 16.597656 -21.464844 C 15.957031 -21.464844 15.582031 -21.027344 15.449219 -20.316406 L 15.378906 -19.945312 C 15.378906 -19.84375 15.277344 -19.773438 15.210938 -19.773438 C 15.144531 -19.773438 15.078125 -19.84375 15.078125 -19.945312 L 15.042969 -20.550781 C 15.007812 -21.296875 14.773438 -21.601562 14.230469 -21.601562 C 13.722656 -21.601562 13.351562 -21.296875 13.21875 -20.621094 L 12.304688 -15.277344 C 12.269531 -15.109375 12.203125 -15.007812 12.101562 -15.007812 C 12.066406 -15.007812 12 -15.042969 11.898438 -15.179688 C 11.390625 -15.683594 10.480469 -16.125 9.296875 -16.125 C 6.355469 -16.125 3.378906 -14.230469 2.535156 -9.464844 L 2.128906 -7.132812 C 1.148438 -1.621094 3.109375 0.203125 6.589844 0.203125 C 8.6875 0.238281 10.074219 -0.304688 11.019531 -2.195312 C 11.1875 -2.433594 11.222656 -2.570312 11.324219 -2.570312 C 11.460938 -2.570312 11.527344 -2.46875 11.5625 -2.230469 L 11.933594 -0.914062 C 12.101562 -0.238281 12.238281 0.101562 12.777344 0.101562 L 12.8125 0.101562 C 13.320312 0.101562 13.589844 -0.304688 13.691406 -0.675781 C 13.757812 -0.84375 13.757812 -0.777344 13.757812 -0.945312 L 17.308594 -20.316406 C 17.441406 -21.027344 17.273438 -21.464844 16.597656 -21.464844 Z M 8.890625 -14.601562 C 6.828125 -13.960938 5.679688 -12.980469 4.867188 -11.121094 C 4.902344 -13.117188 6.761719 -14.601562 8.890625 -14.601562 Z M 10.242188 -3.785156 C 10.207031 -3.582031 10.140625 -3.480469 9.972656 -3.378906 C 9.464844 -3.175781 8.789062 -2.941406 8.046875 -2.941406 C 6.21875 -2.941406 5.308594 -3.820312 5.882812 -7.066406 L 6.289062 -9.464844 C 6.691406 -11.730469 7.976562 -12.675781 9.667969 -12.675781 C 10.613281 -12.675781 11.085938 -12.40625 11.492188 -12 C 11.59375 -11.863281 11.664062 -11.730469 11.628906 -11.527344 Z M 10.242188 -3.785156 "/></g></g></g><g fill="rgb(97.648621%, 58.039856%, 23.139954%)" fill-opacity="1"><g transform="translate(111.715389, 37.62551)"><g/></g></g><g fill="rgb(97.648621%, 58.039856%, 23.139954%)" fill-opacity="1"><g transform="translate(115.636527, 37.62551)"><g><path d="M 1.894531 0.101562 C 2.433594 0.101562 2.773438 -0.101562 2.875 -0.742188 L 3.042969 -1.519531 C 3.109375 -1.824219 3.246094 -1.960938 3.378906 -1.960938 C 3.550781 -1.960938 3.652344 -1.824219 3.582031 -1.519531 L 3.515625 -0.777344 C 3.414062 -0.238281 3.683594 0.101562 4.292969 0.136719 C 4.96875 0.136719 5.171875 -0.167969 5.339844 -0.84375 L 7.402344 -12.777344 C 7.4375 -12.914062 7.46875 -12.945312 7.539062 -12.945312 C 7.570312 -12.945312 7.640625 -12.914062 7.640625 -12.8125 L 9.53125 -5.679688 C 9.632812 -5.308594 9.804688 -5.136719 10.007812 -5.136719 C 10.175781 -5.136719 10.410156 -5.308594 10.648438 -5.679688 L 15.042969 -12.8125 C 15.078125 -12.878906 15.144531 -12.945312 15.210938 -12.945312 C 15.246094 -12.945312 15.277344 -12.914062 15.277344 -12.742188 L 13.183594 -0.84375 C 13.046875 -0.167969 13.21875 0.136719 13.824219 0.136719 C 14.433594 0.101562 14.875 -0.238281 14.941406 -0.777344 L 15.109375 -1.519531 C 15.179688 -1.792969 15.347656 -1.960938 15.480469 -1.960938 C 15.617188 -1.960938 15.753906 -1.792969 15.683594 -1.519531 L 15.550781 -0.742188 C 15.449219 -0.101562 15.683594 0.101562 16.257812 0.101562 C 16.800781 0.0664062 17.136719 -0.203125 17.273438 -1.25 L 20.722656 -21.398438 C 20.824219 -22.140625 20.585938 -22.546875 19.976562 -22.546875 C 19.4375 -22.546875 19.097656 -22.140625 18.964844 -21.464844 L 18.828125 -20.925781 C 18.792969 -20.753906 18.726562 -20.6875 18.660156 -20.6875 C 18.59375 -20.6875 18.523438 -20.753906 18.523438 -20.925781 L 18.558594 -21.5 C 18.59375 -22.308594 18.355469 -22.613281 17.816406 -22.613281 L 17.714844 -22.613281 C 17.207031 -22.613281 16.96875 -22.109375 16.632812 -21.566406 L 11.761719 -12.878906 C 11.59375 -12.542969 11.425781 -12.203125 11.222656 -12.203125 C 11.019531 -12.203125 10.984375 -12.542969 10.953125 -12.878906 L 9.128906 -21.566406 C 8.957031 -22.109375 8.925781 -22.613281 8.417969 -22.613281 L 8.316406 -22.613281 C 7.773438 -22.613281 7.46875 -22.34375 7.199219 -21.5 L 6.996094 -20.925781 C 6.929688 -20.753906 6.863281 -20.6875 6.792969 -20.6875 C 6.726562 -20.6875 6.691406 -20.753906 6.691406 -20.925781 L 6.761719 -21.464844 C 6.828125 -22.140625 6.660156 -22.511719 6.117188 -22.511719 C 5.476562 -22.511719 5.136719 -22.140625 5.003906 -21.398438 L 1.351562 -1.25 C 1.148438 -0.203125 1.351562 0.0664062 1.894531 0.101562 Z M 1.894531 0.101562 "/></g></g></g><g fill="rgb(97.648621%, 58.039856%, 23.139954%)" fill-opacity="1"><g transform="translate(134.90396, 37.62551)"><g><path d="M 10.546875 -16.125 C 5.984375 -16.125 3.277344 -12.742188 2.535156 -8.417969 C 1.488281 -2.570312 3.347656 0.203125 6.894531 0.203125 C 8.957031 0.203125 11.085938 -0.371094 12.914062 -1.925781 C 13.285156 -2.230469 13.589844 -2.773438 13.21875 -3.109375 C 13.117188 -3.246094 12.945312 -3.277344 12.8125 -3.277344 C 12.472656 -3.277344 12.101562 -3.109375 11.796875 -2.90625 C 11.492188 -2.703125 11.1875 -2.46875 10.816406 -2.265625 C 10.683594 -2.195312 10.582031 -2.164062 10.480469 -2.164062 C 10.277344 -2.164062 10.277344 -2.367188 10.546875 -2.570312 C 10.953125 -2.941406 11.664062 -3.449219 11.933594 -3.855469 C 12.101562 -4.054688 12.167969 -4.429688 12.035156 -4.597656 C 11.933594 -4.734375 11.761719 -4.800781 11.59375 -4.800781 C 11.425781 -4.800781 11.222656 -4.734375 11.054688 -4.5625 C 10.378906 -3.886719 9.128906 -3.210938 8.046875 -3.210938 C 6.421875 -3.210938 5.8125 -4.800781 6.421875 -8.28125 C 6.964844 -11.390625 8.214844 -12.878906 9.804688 -12.84375 C 11.121094 -12.84375 11.761719 -12.167969 11.628906 -11.324219 C 11.460938 -10.378906 10.511719 -9.667969 9.261719 -9.667969 L 8.855469 -9.667969 C 8.214844 -9.667969 7.945312 -9.429688 7.875 -9.027344 C 7.773438 -8.484375 8.046875 -8.382812 8.621094 -8.382812 L 8.789062 -8.382812 C 9.09375 -8.382812 9.128906 -8.148438 8.789062 -8.113281 L 8.550781 -8.078125 C 8.011719 -7.976562 7.707031 -7.773438 7.605469 -7.335938 C 7.570312 -6.894531 7.84375 -6.761719 8.957031 -6.761719 C 12.710938 -6.761719 14.875 -8.382812 15.347656 -11.121094 C 15.921875 -14.398438 14.230469 -16.125 10.546875 -16.125 Z M 13.757812 -11.019531 C 13.589844 -12.878906 12.8125 -13.859375 10.953125 -14.5 C 13.082031 -14.5 14.398438 -13.015625 13.757812 -11.019531 Z M 13.757812 -11.019531 "/></g></g></g><g fill="rgb(97.648621%, 58.039856%, 23.139954%)" fill-opacity="1"><g transform="translate(150.115101, 37.62551)"><g><path d="M 10.546875 -16.125 C 5.984375 -16.125 3.277344 -12.742188 2.535156 -8.417969 C 1.488281 -2.570312 3.347656 0.203125 6.894531 0.203125 C 8.957031 0.203125 11.085938 -0.371094 12.914062 -1.925781 C 13.285156 -2.230469 13.589844 -2.773438 13.21875 -3.109375 C 13.117188 -3.246094 12.945312 -3.277344 12.8125 -3.277344 C 12.472656 -3.277344 12.101562 -3.109375 11.796875 -2.90625 C 11.492188 -2.703125 11.1875 -2.46875 10.816406 -2.265625 C 10.683594 -2.195312 10.582031 -2.164062 10.480469 -2.164062 C 10.277344 -2.164062 10.277344 -2.367188 10.546875 -2.570312 C 10.953125 -2.941406 11.664062 -3.449219 11.933594 -3.855469 C 12.101562 -4.054688 12.167969 -4.429688 12.035156 -4.597656 C 11.933594 -4.734375 11.761719 -4.800781 11.59375 -4.800781 C 11.425781 -4.800781 11.222656 -4.734375 11.054688 -4.5625 C 10.378906 -3.886719 9.128906 -3.210938 8.046875 -3.210938 C 6.421875 -3.210938 5.8125 -4.800781 6.421875 -8.28125 C 6.964844 -11.390625 8.214844 -12.878906 9.804688 -12.84375 C 11.121094 -12.84375 11.761719 -12.167969 11.628906 -11.324219 C 11.460938 -10.378906 10.511719 -9.667969 9.261719 -9.667969 L 8.855469 -9.667969 C 8.214844 -9.667969 7.945312 -9.429688 7.875 -9.027344 C 7.773438 -8.484375 8.046875 -8.382812 8.621094 -8.382812 L 8.789062 -8.382812 C 9.09375 -8.382812 9.128906 -8.148438 8.789062 -8.113281 L 8.550781 -8.078125 C 8.011719 -7.976562 7.707031 -7.773438 7.605469 -7.335938 C 7.570312 -6.894531 7.84375 -6.761719 8.957031 -6.761719 C 12.710938 -6.761719 14.875 -8.382812 15.347656 -11.121094 C 15.921875 -14.398438 14.230469 -16.125 10.546875 -16.125 Z M 13.757812 -11.019531 C 13.589844 -12.878906 12.8125 -13.859375 10.953125 -14.5 C 13.082031 -14.5 14.398438 -13.015625 13.757812 -11.019531 Z M 13.757812 -11.019531 "/></g></g></g><g fill="rgb(97.648621%, 58.039856%, 23.139954%)" fill-opacity="1"><g transform="translate(165.326242, 37.62551)"><g><path d="M 11.019531 -16.089844 C 8.957031 -16.089844 7.539062 -15.550781 6.589844 -13.65625 C 6.492188 -13.421875 6.390625 -13.285156 6.289062 -13.285156 C 6.152344 -13.285156 6.117188 -13.386719 6.085938 -13.621094 L 5.679688 -14.941406 C 5.542969 -15.617188 5.410156 -15.957031 4.867188 -15.957031 L 4.800781 -15.957031 C 4.292969 -15.957031 4.023438 -15.582031 3.921875 -15.179688 L 3.855469 -14.90625 L 0.304688 4.460938 C 0.203125 5.171875 0.371094 5.613281 1.046875 5.613281 C 1.65625 5.613281 2.0625 5.171875 2.164062 4.460938 L 2.230469 4.089844 C 2.265625 3.988281 2.332031 3.921875 2.398438 3.921875 C 2.5 3.921875 2.570312 3.988281 2.535156 4.089844 L 2.570312 4.699219 C 2.636719 5.441406 2.875 5.710938 3.414062 5.710938 C 3.921875 5.710938 4.292969 5.441406 4.394531 4.765625 L 5.339844 -0.574219 C 5.375 -0.742188 5.410156 -0.878906 5.511719 -0.878906 C 5.578125 -0.878906 5.644531 -0.8125 5.746094 -0.675781 C 6.21875 -0.167969 7.167969 0.269531 8.316406 0.269531 C 11.257812 0.269531 14.230469 -1.621094 15.078125 -6.421875 L 15.480469 -8.722656 C 16.460938 -14.265625 14.5 -16.089844 11.019531 -16.089844 Z M 13.859375 -10.984375 C 13.691406 -12.878906 12.945312 -13.859375 11.054688 -14.5 C 13.21875 -14.5 14.535156 -13.015625 13.859375 -10.984375 Z M 11.324219 -6.421875 C 10.917969 -4.125 9.667969 -3.175781 7.976562 -3.175781 C 6.996094 -3.175781 6.523438 -3.449219 6.117188 -3.886719 C 6.050781 -3.988281 5.984375 -4.125 6.015625 -4.328125 L 7.402344 -12.066406 C 7.4375 -12.269531 7.46875 -12.371094 7.671875 -12.472656 C 8.148438 -12.710938 8.855469 -12.914062 9.566406 -12.914062 C 11.390625 -12.914062 12.304688 -12.035156 11.761719 -8.789062 Z M 11.324219 -6.421875 "/></g></g></g><g fill="rgb(97.648621%, 58.039856%, 23.139954%)" fill-opacity="1"><g transform="translate(180.807808, 37.62551)"><g><path d="M 7.910156 -21.398438 C 7.300781 -21.398438 6.964844 -21.027344 6.863281 -20.449219 L 6.828125 -20.25 C 6.792969 -20.078125 6.660156 -19.976562 6.558594 -19.976562 C 6.457031 -19.976562 6.355469 -20.046875 6.355469 -20.214844 L 6.355469 -20.550781 C 6.320312 -21.128906 6.1875 -21.398438 5.511719 -21.398438 C 4.96875 -21.398438 4.699219 -20.957031 4.632812 -20.417969 L 1.148438 -0.371094 C 1.046875 0.167969 1.285156 0.507812 1.792969 0.507812 C 2.398438 0.472656 2.738281 0.167969 2.941406 -0.609375 L 3.042969 -0.914062 C 3.109375 -1.21875 3.210938 -1.351562 3.378906 -1.351562 C 3.515625 -1.351562 3.617188 -1.25 3.550781 -1.015625 L 3.480469 -0.640625 C 3.449219 -0.101562 3.617188 0.269531 4.089844 0.269531 L 4.15625 0.269531 C 4.734375 0.269531 4.96875 -0.101562 5.070312 -0.574219 L 8.6875 -20.351562 C 8.789062 -21.128906 8.519531 -21.398438 7.910156 -21.398438 Z M 7.910156 -21.398438 "/></g></g></g><g fill="rgb(97.648621%, 58.039856%, 23.139954%)" fill-opacity="1"><g transform="translate(188.379599, 37.62551)"><g><path d="M 10.546875 -16.125 C 5.984375 -16.125 3.277344 -12.742188 2.535156 -8.417969 C 1.488281 -2.570312 3.347656 0.203125 6.894531 0.203125 C 8.957031 0.203125 11.085938 -0.371094 12.914062 -1.925781 C 13.285156 -2.230469 13.589844 -2.773438 13.21875 -3.109375 C 13.117188 -3.246094 12.945312 -3.277344 12.8125 -3.277344 C 12.472656 -3.277344 12.101562 -3.109375 11.796875 -2.90625 C 11.492188 -2.703125 11.1875 -2.46875 10.816406 -2.265625 C 10.683594 -2.195312 10.582031 -2.164062 10.480469 -2.164062 C 10.277344 -2.164062 10.277344 -2.367188 10.546875 -2.570312 C 10.953125 -2.941406 11.664062 -3.449219 11.933594 -3.855469 C 12.101562 -4.054688 12.167969 -4.429688 12.035156 -4.597656 C 11.933594 -4.734375 11.761719 -4.800781 11.59375 -4.800781 C 11.425781 -4.800781 11.222656 -4.734375 11.054688 -4.5625 C 10.378906 -3.886719 9.128906 -3.210938 8.046875 -3.210938 C 6.421875 -3.210938 5.8125 -4.800781 6.421875 -8.28125 C 6.964844 -11.390625 8.214844 -12.878906 9.804688 -12.84375 C 11.121094 -12.84375 11.761719 -12.167969 11.628906 -11.324219 C 11.460938 -10.378906 10.511719 -9.667969 9.261719 -9.667969 L 8.855469 -9.667969 C 8.214844 -9.667969 7.945312 -9.429688 7.875 -9.027344 C 7.773438 -8.484375 8.046875 -8.382812 8.621094 -8.382812 L 8.789062 -8.382812 C 9.09375 -8.382812 9.128906 -8.148438 8.789062 -8.113281 L 8.550781 -8.078125 C 8.011719 -7.976562 7.707031 -7.773438 7.605469 -7.335938 C 7.570312 -6.894531 7.84375 -6.761719 8.957031 -6.761719 C 12.710938 -6.761719 14.875 -8.382812 15.347656 -11.121094 C 15.921875 -14.398438 14.230469 -16.125 10.546875 -16.125 Z M 13.757812 -11.019531 C 13.589844 -12.878906 12.8125 -13.859375 10.953125 -14.5 C 13.082031 -14.5 14.398438 -13.015625 13.757812 -11.019531 Z M 13.757812 -11.019531 "/></g></g></g></svg>