<svg xmlns="http://www.w3.org/2000/svg" width="68.75" height="50" viewBox="0 0 68.75 50">
  <path id="Icon_material-local-shipping" data-name="Icon material-local-shipping" d="M60.875,18.5H51.5V6H7.75A6.268,6.268,0,0,0,1.5,12.25V46.625H7.75a9.375,9.375,0,0,0,18.75,0H45.25a9.375,9.375,0,1,0,18.75,0h6.25V31ZM17.125,51.313a4.688,4.688,0,1,1,4.687-4.687A4.681,4.681,0,0,1,17.125,51.313ZM59.312,23.188,65.438,31H51.5V23.188ZM54.625,51.313a4.688,4.688,0,1,1,4.687-4.687A4.681,4.681,0,0,1,54.625,51.313Z" transform="translate(-1.5 -6)" fill="#f9943b"/>
</svg>
