<svg xmlns="http://www.w3.org/2000/svg" width="60" height="44" viewBox="0 0 60 44">
  <path id="Icon_ionic-ios-checkmark" data-name="Icon ionic-ios-checkmark" d="M70.117,17.356l-4.9-4.83a1.077,1.077,0,0,0-.78-.32h0a1.033,1.033,0,0,0-.78.32L29.66,45.32,17.289,33.472a1.111,1.111,0,0,0-1.56,0l-4.96,4.75a1.032,1.032,0,0,0,0,1.521l15.6,14.942a5.026,5.026,0,0,0,3.26,1.521,5.259,5.259,0,0,0,3.232-1.468h.028L70.145,18.877A1.105,1.105,0,0,0,70.117,17.356Z" transform="translate(-10.434 -12.206)" fill="#f9943b"/>
</svg>
