<svg xmlns="http://www.w3.org/2000/svg" width="25" height="22" viewBox="0 0 25 22">
  <g id="Icon_list" data-name="Icon list" transform="translate(-4.5 -7.313)">
    <path id="route_27" data-name="route 27" d="M8.438,18a1.969,1.969,0,1,1-1.969-1.969A1.969,1.969,0,0,1,8.438,18Z" transform="translate(0 0.312)" fill="#c6c6c6"/>
    <path id="route_28" data-name="route 28" d="M8.438,9.281A1.969,1.969,0,1,1,6.469,7.313,1.969,1.969,0,0,1,8.438,9.281Z" fill="#c6c6c6"/>
    <path id="route_29" data-name="route 29" d="M8.438,26.719A1.969,1.969,0,1,1,6.469,24.75a1.969,1.969,0,0,1,1.969,1.969Z" transform="translate(0 0.625)" fill="#c6c6c6"/>
    <path id="route_30" data-name="route 30" d="M30.375,16.875H13.465a1.125,1.125,0,0,0,0,2.25h16.91a1.125,1.125,0,0,0,0-2.25Z" transform="translate(-2 0.312)" fill="#c6c6c6"/>
    <path id="route_31" data-name="route 31" d="M30.375,25.594H13.465a1.125,1.125,0,0,0,0,2.25h16.91a1.125,1.125,0,0,0,0-2.25Z" transform="translate(-2 0.625)" fill="#c6c6c6"/>
    <path id="route_32" data-name="route 32" d="M13.465,10.406h16.91a1.125,1.125,0,0,0,0-2.25H13.465a1.125,1.125,0,0,0,0,2.25Z" transform="translate(-2)" fill="#c6c6c6"/>
  </g>
</svg>
