<svg xmlns="http://www.w3.org/2000/svg" width="21.002" height="21.002" viewBox="0 0 21.002 21.002">
  <path id="Icon_feather-phone" data-name="Icon feather-phone" d="M23.167,17.974v3.011a2.01,2.01,0,0,1-2.192,2.007A19.926,19.926,0,0,1,12.3,19.911a19.59,19.59,0,0,1-6.034-6.022,19.836,19.836,0,0,1-3.087-8.7A2.009,2.009,0,0,1,5.177,3H8.194a2.01,2.01,0,0,1,2.011,1.726,12.865,12.865,0,0,0,.7,2.82,2,2,0,0,1-.453,2.118L9.179,10.938a16.074,16.074,0,0,0,6.034,6.022l1.277-1.275a2.014,2.014,0,0,1,2.122-.452,12.933,12.933,0,0,0,2.826.7,2.008,2.008,0,0,1,1.73,2.037Z" transform="translate(-2.667 -2.5)" fill="none" stroke="#ce4a0e" stroke-linecap="round" stroke-linejoin="round" stroke-width="1"/>
</svg>
