<svg xmlns="http://www.w3.org/2000/svg" width="25" height="25" viewBox="0 0 25 25">
  <path id="Icon_wish_list_orange" data-name="Icon wish_list_orange" d="M21.644,3.938h-.06a6.78,6.78,0,0,0-5.709,3.25,6.779,6.779,0,0,0-5.709-3.25h-.06A6.937,6.937,0,0,0,3.375,11a15.606,15.606,0,0,0,2.873,8.294,51.194,51.194,0,0,0,9.627,9.644A51.194,51.194,0,0,0,25.5,19.294,15.606,15.606,0,0,0,28.375,11,6.937,6.937,0,0,0,21.644,3.938Zm2.5,14.325a46.99,46.99,0,0,1-8.269,8.475,47.062,47.062,0,0,1-8.269-8.481A13.83,13.83,0,0,1,5.058,11,5.4,5.4,0,0,1,6.536,7.262a4.98,4.98,0,0,1,3.582-1.569h.054a4.888,4.888,0,0,1,2.47.675A5.341,5.341,0,0,1,14.469,8.15a1.653,1.653,0,0,0,2.825,0A5.4,5.4,0,0,1,19.12,6.369a4.888,4.888,0,0,1,2.47-.675h.054a4.991,4.991,0,0,1,3.582,1.569A5.382,5.382,0,0,1,26.7,11,14,14,0,0,1,24.144,18.262Z" transform="translate(-3.375 -3.938)" fill="#ce4a0e"/>
</svg>
