<svg xmlns="http://www.w3.org/2000/svg" xmlns:xlink="http://www.w3.org/1999/xlink" width="300" zoomAndPan="magnify" viewBox="0 0 224.87999 149.999998" height="200" preserveAspectRatio="xMidYMid meet" version="1.0"><defs><g/><clipPath id="id1"><path d="M 172 58 L 217 58 L 217 109 L 172 109 Z M 172 58 " clip-rule="nonzero"/></clipPath><clipPath id="id2"><path d="M 180.046875 55.429688 L 224.933594 64.25 L 215.273438 113.410156 L 170.386719 104.589844 Z M 180.046875 55.429688 " clip-rule="nonzero"/></clipPath><clipPath id="id3"><path d="M 180.046875 55.429688 L 224.933594 64.25 L 215.273438 113.410156 L 170.386719 104.589844 Z M 180.046875 55.429688 " clip-rule="nonzero"/></clipPath><clipPath id="id4"><path d="M 18 34.601562 L 55.734375 34.601562 L 55.734375 61.832031 L 18 61.832031 Z M 18 34.601562 " clip-rule="nonzero"/></clipPath></defs><g clip-path="url(#id1)"><g clip-path="url(#id2)"><g clip-path="url(#id3)"><path fill="rgb(80.778503%, 29.019165%, 5.488586%)" d="M 182.941406 81 C 183.085938 80.78125 182.660156 79.859375 182.351562 79.898438 C 182.101562 79.929688 181.804688 80.441406 181.667969 80.628906 C 181.171875 81.3125 180.582031 81.941406 180.082031 82.628906 C 179.027344 84.078125 178.148438 85.648438 177.425781 87.292969 C 176.710938 88.917969 175.992188 90.550781 175.503906 92.265625 C 175.300781 93.003906 175.023438 93.867188 174.941406 94.617188 C 174.804688 95.886719 175.878906 95.058594 176.507812 94.925781 C 176.535156 94.847656 176.558594 94.769531 176.582031 94.691406 C 176.59375 94.695312 176.605469 94.695312 176.613281 94.695312 C 176.734375 93.835938 177.15625 92.949219 177.371094 92.175781 C 177.769531 90.753906 178.160156 89.328125 178.660156 87.9375 C 179.539062 85.496094 180.695312 83.164062 182.652344 81.4375 C 182.746094 81.292969 182.835938 81.152344 182.941406 81 Z M 186.269531 83.539062 C 186.269531 83.496094 186.273438 83.464844 186.269531 83.421875 C 186.226562 82.988281 185.914062 82.386719 185.625 82.015625 C 184.160156 80.109375 182.507812 82.601562 181.65625 83.734375 C 180.636719 85.101562 179.945312 86.703125 179.394531 88.300781 C 178.976562 89.511719 178.625 90.734375 178.277344 91.964844 C 177.980469 93.03125 177.371094 94.066406 177.375 95.199219 C 177.375 95.570312 177.457031 95.84375 177.597656 96.042969 C 178.175781 96.863281 179.753906 96.332031 180.605469 95.796875 C 179.910156 93.472656 180.710938 90.953125 181.792969 88.867188 C 182.824219 86.882812 184.121094 84.476562 186.269531 83.539062 Z M 186.28125 87.679688 C 186.578125 86.753906 186.921875 85.773438 187.160156 84.78125 C 186.722656 84.601562 186.273438 84.507812 185.8125 84.714844 C 185.210938 84.980469 184.804688 85.582031 184.414062 86.078125 C 183.648438 87.039062 183.066406 88.132812 182.527344 89.234375 C 181.660156 90.988281 180.890625 93.019531 181.25 94.992188 C 181.304688 94.960938 181.363281 94.941406 181.425781 94.941406 C 181.441406 94.9375 181.464844 94.933594 181.484375 94.9375 C 181.839844 95.003906 182.007812 95.039062 182.179688 95.089844 C 182.203125 95.054688 182.234375 95.019531 182.273438 94.992188 C 184.691406 93.230469 185.425781 90.386719 186.28125 87.679688 Z M 195.78125 67.183594 C 196.070312 66.925781 196.183594 66.378906 195.851562 66.105469 C 195.78125 66.046875 195.742188 65.980469 195.734375 65.910156 C 194.882812 66.089844 193.804688 65.90625 193.042969 65.445312 C 193.007812 65.480469 192.960938 65.507812 192.902344 65.523438 C 192.496094 65.65625 192.386719 66.203125 192.558594 66.550781 C 192.570312 66.566406 192.570312 66.578125 192.578125 66.597656 C 193.636719 66.789062 194.703125 66.945312 195.742188 67.226562 C 195.753906 67.210938 195.765625 67.199219 195.78125 67.183594 Z M 196.9375 63.722656 C 196.996094 63.382812 197.066406 63.042969 197.140625 62.703125 C 196.683594 62.714844 196.164062 62.609375 196.148438 62.082031 C 196.136719 61.742188 196.332031 61.417969 196.566406 61.148438 C 196.1875 60.996094 195.820312 60.816406 195.695312 60.398438 C 195.648438 60.238281 195.710938 60.109375 195.808594 60.023438 C 195.8125 60.019531 195.816406 60.019531 195.816406 60.015625 C 195.820312 60.011719 195.828125 60.007812 195.832031 60.003906 C 195.847656 59.992188 195.859375 59.984375 195.878906 59.972656 C 196.214844 59.777344 196.292969 59.390625 195.832031 59.300781 C 195.667969 59.269531 195.351562 59.238281 195.261719 59.425781 C 195.226562 59.492188 195.191406 59.570312 195.199219 59.648438 C 195.203125 59.671875 195.203125 59.683594 195.203125 59.691406 C 195.480469 59.773438 195.523438 60.078125 195.410156 60.257812 C 195.386719 60.308594 195.351562 60.351562 195.296875 60.390625 C 194.886719 60.683594 194.417969 60.667969 193.949219 60.640625 C 193.996094 60.941406 194.039062 61.246094 194.046875 61.550781 C 194.046875 61.671875 194 61.765625 193.925781 61.828125 C 193.875 61.941406 193.773438 62.027344 193.648438 62.023438 C 193.367188 62.007812 192.933594 61.941406 192.652344 61.890625 C 192.601562 62.15625 192.539062 62.421875 192.445312 62.671875 C 192.714844 62.730469 192.984375 62.792969 193.257812 62.851562 C 193.429688 62.882812 193.515625 63.007812 193.535156 63.144531 C 193.582031 63.210938 193.605469 63.296875 193.59375 63.402344 C 193.539062 63.84375 193.273438 64.191406 192.898438 64.402344 C 193.335938 65.171875 195.226562 65.480469 196.003906 65.058594 C 195.804688 64.753906 195.753906 64.359375 195.796875 63.996094 C 195.761719 63.851562 195.765625 63.710938 195.875 63.582031 C 196.011719 63.429688 196.222656 63.421875 196.40625 63.476562 C 196.597656 63.53125 196.769531 63.621094 196.9375 63.722656 Z M 196.722656 78.011719 C 196.828125 77.847656 196.960938 77.601562 196.835938 77.414062 C 196.519531 76.96875 192.578125 76.820312 192.695312 76.25 C 192.71875 76.128906 193.476562 76.183594 195.800781 76.65625 C 195.886719 76.386719 195.957031 76.050781 196.003906 75.824219 C 195.574219 75.703125 195.199219 75.59375 194.886719 75.5 C 194.476562 75.382812 194.152344 75.296875 193.910156 75.21875 C 193.429688 75.0625 193.253906 74.964844 193.265625 74.902344 C 193.28125 74.839844 193.480469 74.824219 193.984375 74.898438 C 194.238281 74.9375 194.566406 74.988281 194.988281 75.082031 C 195.253906 75.144531 196.851562 75.785156 196.800781 75.179688 C 196.746094 74.539062 193.925781 74.621094 194.015625 74.179688 C 194.039062 74.058594 194.609375 74.050781 196.367188 74.328125 C 197.539062 72.761719 197.980469 70.765625 199.359375 69.351562 C 198.339844 68.769531 197.277344 68.324219 196.125 68.050781 C 196.085938 68.054688 196.042969 68.050781 195.996094 68.035156 C 194.769531 67.660156 193.496094 67.5 192.242188 67.257812 C 192.207031 67.261719 192.167969 67.261719 192.125 67.253906 C 190.886719 67.03125 189.660156 67.042969 188.425781 67.207031 C 189.179688 69.066406 188.804688 71.121094 189.339844 73.042969 C 192.621094 73.710938 193.621094 74.019531 193.597656 74.136719 C 193.5 74.625 188.785156 73.035156 188.457031 73.632812 C 188.207031 74.085938 189.144531 73.925781 189.339844 73.941406 C 189.769531 73.984375 190.191406 74.066406 190.609375 74.164062 C 191.125 74.289062 191.519531 74.402344 191.820312 74.492188 C 192.417969 74.675781 192.640625 74.773438 192.628906 74.835938 C 192.617188 74.898438 192.371094 74.914062 191.746094 74.8125 C 191.433594 74.761719 191.035156 74.683594 190.523438 74.585938 C 190.121094 74.507812 189.644531 74.425781 189.09375 74.386719 C 189.09375 74.402344 189.09375 74.410156 189.09375 74.425781 C 189.054688 74.613281 189.003906 74.894531 188.972656 75.160156 C 189.15625 75.195312 189.328125 75.226562 189.484375 75.257812 C 189.851562 75.34375 190.136719 75.421875 190.347656 75.488281 C 190.777344 75.621094 190.933594 75.710938 190.921875 75.777344 C 190.910156 75.835938 190.730469 75.863281 190.28125 75.8125 C 190.054688 75.785156 189.769531 75.738281 189.402344 75.679688 C 189.003906 75.613281 188.054688 75.375 187.714844 75.621094 C 187.53125 75.761719 187.550781 76.03125 187.585938 76.238281 C 187.59375 76.273438 187.578125 76.351562 187.585938 76.355469 C 189.28125 76.6875 190.914062 77.007812 192.550781 77.328125 C 193.90625 77.59375 195.300781 77.96875 196.683594 78.117188 C 196.691406 78.089844 196.707031 78.042969 196.722656 78.011719 Z M 197.40625 80.25 C 197.804688 79.929688 197.785156 79.414062 197.429688 79.074219 C 197.058594 78.714844 196.613281 78.628906 196.113281 78.558594 C 195.660156 78.496094 195.203125 78.429688 194.757812 78.335938 C 193.839844 78.140625 192.917969 77.957031 191.996094 77.773438 C 190.859375 77.550781 189.722656 77.328125 188.589844 77.105469 C 187.84375 76.957031 187.347656 76.640625 186.628906 76.957031 C 186.410156 77.050781 186.238281 76.953125 186.121094 77.21875 C 186.023438 77.445312 185.957031 77.804688 186.113281 78.027344 C 186.398438 78.4375 187.003906 78.503906 187.460938 78.59375 C 187.5 78.601562 187.535156 78.617188 187.566406 78.632812 C 187.65625 78.640625 187.75 78.675781 187.816406 78.730469 C 190.578125 79.261719 193.363281 79.691406 196.113281 80.269531 C 196.160156 80.277344 196.195312 80.296875 196.226562 80.324219 C 196.621094 80.40625 197.109375 80.492188 197.40625 80.25 Z M 195.125 107.855469 C 195.417969 107.554688 195.769531 107.226562 195.925781 106.839844 C 195.617188 106.847656 195.328125 106.855469 195.0625 106.847656 C 194.742188 106.835938 194.449219 106.820312 194.183594 106.804688 C 193.921875 106.785156 193.691406 106.75 193.484375 106.722656 C 193.28125 106.691406 193.101562 106.671875 192.949219 106.628906 C 192.335938 106.488281 192.113281 106.390625 192.128906 106.332031 C 192.140625 106.265625 192.382812 106.246094 192.996094 106.304688 C 193.144531 106.320312 193.324219 106.328125 193.523438 106.335938 C 193.726562 106.347656 193.953125 106.367188 194.207031 106.378906 C 194.46875 106.382812 194.753906 106.390625 195.066406 106.394531 C 195.292969 106.390625 195.539062 106.386719 195.796875 106.382812 C 195.609375 106.207031 195.304688 106.09375 195.132812 106.019531 C 194.996094 105.957031 194.941406 105.847656 194.9375 105.734375 C 194.914062 105.675781 194.90625 105.609375 194.917969 105.542969 C 194.929688 105.488281 194.925781 105.417969 194.921875 105.347656 C 194.617188 105.40625 194.328125 105.414062 194.054688 105.417969 C 193.453125 105.429688 192.914062 105.335938 192.429688 105.292969 C 191.949219 105.234375 191.53125 105.132812 191.152344 105.066406 C 190.78125 104.988281 190.464844 104.90625 190.183594 104.839844 C 189.074219 104.566406 188.664062 104.417969 188.675781 104.355469 C 188.6875 104.292969 189.125 104.324219 190.253906 104.519531 C 190.535156 104.566406 190.855469 104.625 191.226562 104.6875 C 191.597656 104.738281 192.015625 104.820312 192.484375 104.867188 C 192.953125 104.902344 193.476562 104.976562 194.050781 104.964844 C 194.359375 104.957031 194.691406 104.933594 195.007812 104.855469 C 195.039062 104.824219 195.078125 104.796875 195.128906 104.78125 C 195.171875 104.769531 195.222656 104.761719 195.269531 104.769531 C 197.332031 103.773438 195.363281 101.984375 194.792969 100.734375 C 194.410156 99.882812 194.464844 99.097656 194.738281 98.273438 C 194.714844 98.34375 193.257812 98.027344 193.140625 98.011719 C 192.808594 97.964844 192.546875 97.921875 192.347656 97.875 C 191.953125 97.789062 191.8125 97.71875 191.816406 97.652344 C 191.832031 97.589844 191.992188 97.546875 192.390625 97.550781 C 192.585938 97.550781 192.84375 97.5625 193.175781 97.585938 C 193.371094 97.59375 193.601562 97.613281 193.847656 97.632812 C 192.550781 95.414062 192.511719 92.84375 192.761719 90.34375 C 192.945312 88.546875 192.96875 86.683594 193.421875 84.925781 C 193.609375 84.207031 193.8125 83.480469 194.183594 82.832031 C 194.601562 82.101562 195.0625 81.421875 195.296875 80.609375 C 192.84375 80.121094 190.371094 79.730469 187.917969 79.261719 C 187.777344 80.796875 188.296875 82.296875 188.027344 83.867188 C 187.71875 85.664062 187.101562 87.382812 186.585938 89.128906 C 185.863281 91.574219 184.84375 93.972656 182.738281 95.539062 C 184.011719 95.960938 185.117188 96.230469 186.046875 96.445312 C 187.109375 96.679688 187.941406 96.859375 188.574219 97 C 189.84375 97.285156 190.320312 97.441406 190.308594 97.503906 C 190.296875 97.566406 189.796875 97.535156 188.511719 97.332031 C 187.867188 97.230469 187.027344 97.101562 185.949219 96.878906 C 184.921875 96.667969 183.667969 96.414062 182.21875 95.886719 C 182.039062 95.851562 181.933594 95.777344 181.757812 95.738281 C 181.699219 96.609375 181.457031 97.335938 180.78125 97.980469 C 179.777344 98.921875 177.277344 99.832031 178.8125 101.535156 C 178.859375 101.546875 178.898438 101.570312 178.9375 101.601562 C 178.972656 101.632812 179 101.671875 179.019531 101.710938 C 179.03125 101.71875 179.042969 101.730469 179.050781 101.734375 C 179.390625 101.957031 179.765625 102.101562 180.136719 102.238281 C 180.882812 102.519531 181.566406 102.710938 182.175781 102.910156 C 182.789062 103.089844 183.351562 103.210938 183.839844 103.34375 C 184.335938 103.464844 184.773438 103.554688 185.144531 103.644531 C 186.648438 103.980469 187.214844 104.144531 187.203125 104.207031 C 187.1875 104.269531 186.601562 104.222656 185.078125 103.964844 C 184.703125 103.894531 184.257812 103.824219 183.757812 103.722656 C 183.257812 103.605469 182.6875 103.496094 182.058594 103.324219 C 181.429688 103.132812 180.726562 102.941406 179.980469 102.667969 C 179.640625 102.542969 179.277344 102.40625 178.917969 102.191406 C 178.882812 102.257812 178.855469 102.324219 178.84375 102.386719 C 178.828125 102.449219 178.792969 102.507812 178.753906 102.554688 C 178.707031 102.65625 178.613281 102.734375 178.464844 102.742188 C 178.3125 102.746094 178.09375 102.746094 177.890625 102.78125 C 178.839844 103.414062 179.886719 103.746094 180.839844 104.011719 C 181.90625 104.292969 182.898438 104.46875 183.785156 104.660156 C 185.554688 105.027344 186.933594 105.316406 187.988281 105.554688 C 189.039062 105.789062 189.765625 105.953125 190.226562 106.058594 C 190.6875 106.167969 190.882812 106.234375 190.882812 106.265625 C 190.875 106.296875 190.671875 106.292969 190.195312 106.234375 C 189.726562 106.179688 188.984375 106.078125 187.925781 105.878906 C 186.867188 105.683594 185.472656 105.421875 183.695312 105.082031 C 182.804688 104.898438 181.816406 104.734375 180.722656 104.453125 C 179.691406 104.167969 178.535156 103.8125 177.453125 103.042969 C 177.425781 103.105469 177.414062 103.171875 177.421875 103.253906 C 177.460938 103.679688 177.640625 104.089844 177.792969 104.492188 C 179.265625 104.976562 180.6875 105.640625 182.1875 106.035156 C 183.601562 106.402344 185.042969 106.613281 186.46875 106.933594 C 187.894531 107.253906 189.332031 107.613281 190.792969 107.730469 C 191.652344 107.796875 192.5 107.78125 193.359375 107.789062 C 193.84375 107.800781 194.601562 107.925781 195.125 107.855469 Z M 199.273438 96.273438 C 199.679688 95.523438 200.164062 94.796875 200.746094 94.199219 C 198.257812 93.253906 195.675781 92.375 193.433594 91.058594 C 193.285156 93.253906 193.328125 95.441406 194.542969 97.402344 C 194.566406 97.445312 194.578125 97.484375 194.585938 97.523438 C 194.769531 97.546875 194.945312 97.582031 195.097656 97.609375 C 195.132812 97.617188 195.164062 97.625 195.191406 97.636719 C 195.417969 97.644531 195.65625 97.878906 195.542969 98.15625 C 195.371094 98.578125 195.269531 98.972656 195.25 99.363281 C 196.023438 99.816406 196.792969 100.285156 197.558594 100.738281 C 197.921875 99.144531 198.601562 97.511719 199.273438 96.273438 Z M 202.988281 96.113281 C 203.460938 95.632812 204.808594 95.09375 204.722656 94.273438 C 204.640625 93.472656 203.304688 93.335938 202.710938 93.542969 C 201.289062 94.042969 200.300781 95.941406 199.722656 97.207031 C 199.023438 98.757812 198.296875 100.558594 198.144531 102.269531 C 198.113281 102.589844 198.105469 102.90625 198.125 103.210938 C 198.273438 103.410156 198.515625 103.5625 198.773438 103.695312 C 199.515625 104.066406 200.011719 103.921875 200.414062 103.492188 C 200.097656 100.859375 201.132812 98 202.988281 96.113281 Z M 205.539062 96.882812 C 205.597656 96.84375 205.652344 96.824219 205.707031 96.816406 C 205.714844 96.628906 205.699219 96.449219 205.617188 96.277344 C 204.804688 94.566406 203.261719 96.992188 202.8125 97.648438 C 202.3125 98.386719 199.796875 103.949219 202.230469 103.257812 C 202.4375 103.199219 202.605469 103.089844 202.757812 102.957031 C 202.804688 100.816406 203.722656 98.097656 205.539062 96.882812 Z M 206.71875 97.910156 C 206.460938 97.8125 206.179688 97.679688 205.96875 97.578125 C 204.964844 98.265625 204.355469 99.425781 203.988281 100.558594 C 203.828125 101.058594 203.570312 101.761719 203.601562 102.292969 C 203.621094 102.578125 203.507812 102.609375 203.738281 102.871094 C 203.789062 102.929688 204.242188 103.105469 204.234375 103.128906 C 204.261719 103.074219 204.28125 103.019531 204.308594 102.96875 C 204.128906 101.136719 205.480469 99.183594 206.71875 97.910156 Z M 211.910156 99.957031 C 212.046875 99.464844 212.15625 98.949219 212.070312 98.425781 C 211.230469 98.546875 210.363281 98.511719 209.492188 98.40625 C 209.367188 98.390625 208.09375 98.164062 207.515625 98.019531 C 207.503906 98.042969 207.484375 98.066406 207.464844 98.089844 C 206.085938 99.421875 204.257812 101.828125 205.222656 103.824219 C 205.238281 103.859375 205.246094 103.890625 205.253906 103.921875 C 205.863281 104.300781 206.421875 104.6875 206.792969 105.339844 C 207.167969 105.996094 207.371094 106.683594 207.53125 107.355469 C 207.859375 107.15625 208.144531 106.878906 208.359375 106.550781 C 207.8125 105.890625 207.492188 105.105469 208.152344 104.484375 C 208.628906 104.042969 209.386719 104.101562 209.96875 104.4375 C 210.261719 103.828125 210.535156 103.214844 210.792969 102.589844 C 210.007812 102.242188 209.195312 101.589844 209.722656 100.785156 C 210.132812 100.148438 211.054688 99.765625 211.910156 99.957031 Z M 212.113281 103.554688 C 212.597656 102.640625 213.074219 101.726562 213.171875 100.675781 C 212.980469 100.550781 212.777344 100.445312 212.5625 100.375 C 212.5625 100.378906 212.558594 100.378906 212.554688 100.382812 C 212.542969 100.421875 212.523438 100.457031 212.503906 100.484375 C 212.449219 100.65625 212.257812 100.785156 212.019531 100.671875 C 211.503906 100.4375 210.617188 100.648438 210.394531 101.105469 C 210.109375 101.6875 210.828125 101.917969 211.324219 102.101562 C 211.398438 102.125 211.449219 102.167969 211.488281 102.210938 C 211.597656 102.304688 211.660156 102.445312 211.601562 102.597656 C 211.265625 103.429688 210.898438 104.242188 210.511719 105.050781 C 210.480469 105.109375 210.441406 105.152344 210.394531 105.179688 C 210.253906 105.292969 209.996094 105.3125 209.820312 105.125 C 209.496094 104.78125 208.84375 104.734375 208.59375 105.09375 C 208.339844 105.460938 208.648438 105.875 208.9375 106.207031 C 209 106.234375 209.054688 106.273438 209.097656 106.320312 C 209.511719 106.453125 209.9375 106.550781 210.355469 106.675781 C 211.179688 105.796875 211.558594 104.605469 212.113281 103.554688 Z M 214.121094 102.292969 C 213.972656 102.179688 213.8125 102.089844 213.644531 102.007812 C 213.390625 102.761719 213 103.464844 212.628906 104.175781 C 212.328125 104.757812 212.074219 105.363281 211.765625 105.9375 C 211.96875 105.988281 212.164062 106.050781 212.359375 106.113281 C 212.980469 104.859375 213.558594 103.578125 214.121094 102.292969 Z M 215.820312 105.078125 C 215.992188 104.683594 216.136719 104.171875 215.777344 103.769531 C 215.417969 103.367188 214.898438 103.375 214.53125 103.667969 C 214.457031 103.726562 214.378906 103.746094 214.296875 103.746094 C 214.074219 104.238281 213.851562 104.730469 213.621094 105.222656 C 213.839844 105.726562 214.34375 106.382812 214.972656 106.039062 C 215.367188 105.824219 215.648438 105.472656 215.820312 105.078125 Z M 181.695312 79.445312 C 180.652344 78.976562 179.417969 80.265625 178.777344 80.890625 C 178.167969 81.480469 177.636719 82.140625 177.167969 82.84375 C 176.242188 84.238281 175.578125 85.792969 175.070312 87.382812 C 174.640625 88.730469 174.285156 90.097656 173.984375 91.480469 C 173.707031 92.765625 173.28125 93.90625 174.175781 95.023438 C 174.191406 94.980469 174.203125 94.933594 174.214844 94.890625 C 174.207031 94.847656 174.203125 94.804688 174.207031 94.757812 C 174.414062 92 175.710938 88.988281 176.886719 86.511719 C 177.523438 85.152344 178.253906 83.835938 179.105469 82.601562 C 179.328125 82.273438 181.347656 79.375 181.695312 79.445312 Z M 205.316406 95.183594 C 205.71875 95.363281 206.078125 95.640625 206.261719 96.03125 C 206.425781 96.367188 206.453125 96.722656 206.429688 97.074219 C 206.574219 97.140625 206.734375 97.210938 206.890625 97.273438 C 206.933594 97.25 206.992188 97.238281 207.066406 97.238281 C 207.398438 97.246094 207.71875 97.359375 208.007812 97.519531 C 208.042969 97.519531 208.078125 97.519531 208.117188 97.527344 C 209.472656 97.765625 210.832031 97.992188 212.140625 97.722656 C 212.195312 97.714844 212.242188 97.714844 212.292969 97.722656 C 212.449219 97.695312 212.625 97.761719 212.6875 97.957031 C 212.871094 98.578125 212.839844 99.160156 212.71875 99.742188 C 213.074219 99.859375 213.398438 100.039062 213.710938 100.25 C 213.757812 100.28125 213.789062 100.324219 213.8125 100.367188 C 213.878906 100.4375 213.917969 100.527344 213.914062 100.632812 C 213.902344 100.886719 213.863281 101.132812 213.8125 101.371094 C 214.132812 101.503906 214.429688 101.679688 214.691406 101.902344 C 214.863281 101.984375 214.996094 102.164062 214.910156 102.355469 C 214.839844 102.515625 214.769531 102.679688 214.703125 102.835938 C 215.179688 102.71875 215.710938 102.792969 216.132812 103.191406 C 216.789062 103.808594 216.847656 104.59375 216.539062 105.292969 C 216.25 105.957031 215.738281 106.640625 214.917969 106.777344 C 214.203125 106.894531 213.640625 106.503906 213.261719 105.976562 C 213.144531 106.21875 213.027344 106.460938 212.90625 106.703125 C 212.820312 106.871094 212.617188 106.90625 212.425781 106.832031 C 212.105469 106.691406 211.777344 106.59375 211.441406 106.53125 C 211.433594 106.527344 211.425781 106.523438 211.414062 106.527344 C 211.238281 106.789062 211.035156 107.039062 210.800781 107.273438 C 210.71875 107.351562 210.625 107.375 210.535156 107.367188 C 210.46875 107.375 210.40625 107.371094 210.332031 107.34375 C 209.886719 107.191406 209.433594 107.09375 208.984375 106.957031 C 208.621094 107.507812 208.09375 107.953125 207.464844 108.238281 C 207.234375 108.34375 206.933594 108.226562 206.886719 107.957031 C 206.738281 107.117188 206.574219 106.128906 205.980469 105.394531 C 205.625 104.953125 205.164062 104.648438 204.691406 104.351562 C 204.257812 104.167969 203.921875 103.558594 203.503906 103.503906 C 203.132812 103.453125 202.796875 103.855469 202.441406 103.917969 C 202.003906 103.992188 201.589844 103.90625 201.191406 103.707031 C 201.167969 103.742188 201.136719 103.773438 201.105469 103.800781 C 200.484375 104.53125 199.605469 104.910156 198.488281 104.28125 C 198.191406 104.113281 197.851562 103.898438 197.597656 103.636719 C 197.449219 103.597656 197.324219 103.484375 197.308594 103.285156 C 197.304688 103.246094 197.308594 103.207031 197.304688 103.171875 C 197.277344 103.085938 197.257812 102.996094 197.257812 102.898438 C 197.253906 102.742188 197.277344 102.59375 197.308594 102.449219 C 197.328125 102.113281 197.371094 101.769531 197.425781 101.417969 C 196.734375 101.007812 196.046875 100.585938 195.351562 100.171875 C 195.425781 100.40625 195.535156 100.636719 195.691406 100.878906 C 196.105469 101.496094 196.589844 102.035156 196.824219 102.753906 C 197.179688 103.863281 196.582031 104.859375 195.644531 105.371094 C 195.640625 105.40625 195.644531 105.433594 195.644531 105.46875 C 196.179688 105.734375 196.796875 106.160156 196.671875 106.828125 C 196.570312 107.378906 196.148438 107.824219 195.761719 108.226562 C 195.757812 108.351562 195.683594 108.464844 195.523438 108.503906 C 195.5 108.507812 195.480469 108.511719 195.460938 108.515625 C 195.390625 108.550781 195.320312 108.5625 195.25 108.550781 C 194.789062 108.605469 194.34375 108.519531 193.859375 108.511719 C 192.96875 108.496094 192.078125 108.511719 191.191406 108.46875 C 189.6875 108.394531 188.21875 108.058594 186.757812 107.730469 C 185.199219 107.378906 183.589844 107.179688 182.050781 106.734375 C 180.492188 106.277344 179.003906 105.613281 177.453125 105.125 C 177.355469 105.09375 177.285156 105.035156 177.242188 104.960938 C 177.207031 104.925781 177.175781 104.882812 177.152344 104.824219 C 176.9375 104.238281 176.550781 103.484375 176.753906 102.847656 C 176.953125 102.230469 177.613281 102.082031 178.199219 102.039062 C 178.214844 102.007812 178.222656 101.984375 178.238281 101.953125 C 177.5625 101.121094 177.386719 99.972656 178.136719 99.082031 C 178.625 98.5 179.289062 98.21875 179.890625 97.773438 C 180.417969 97.382812 180.726562 96.964844 180.894531 96.460938 C 179.414062 97.324219 177.023438 97.675781 176.480469 95.652344 C 176.113281 95.765625 175.761719 95.925781 175.402344 96.039062 C 175.113281 96.125 174.601562 96.332031 174.277344 96.160156 C 173.691406 95.839844 173.335938 95.421875 173.136719 94.945312 C 172.644531 94.039062 172.785156 93.171875 173.027344 92.039062 C 173.398438 90.285156 173.824219 88.550781 174.390625 86.847656 C 175.101562 84.722656 176.097656 82.644531 177.59375 80.949219 C 178.429688 80.003906 179.472656 78.957031 180.726562 78.601562 C 181.335938 78.429688 182.058594 78.496094 182.605469 78.828125 C 183.300781 79.25 183.386719 80.191406 183.632812 80.890625 C 185.636719 80.03125 186.859375 82.308594 187.039062 84.023438 C 187.117188 84.074219 187.203125 84.121094 187.289062 84.167969 C 187.398438 83.59375 187.460938 83.019531 187.445312 82.449219 C 187.417969 81.375 187.144531 80.339844 187.203125 79.273438 C 186.414062 79.109375 185.429688 78.828125 185.324219 77.894531 C 185.214844 76.859375 185.886719 76.15625 186.859375 76.160156 C 186.816406 75.75 186.929688 75.316406 187.277344 75.058594 C 187.570312 74.839844 187.9375 74.800781 188.285156 74.863281 C 188.300781 74.757812 188.316406 74.660156 188.335938 74.5625 C 187.960938 74.417969 187.71875 74.0625 187.757812 73.605469 C 187.792969 73.148438 188.128906 72.839844 188.542969 72.769531 C 188.1875 70.925781 188.519531 68.914062 187.652344 67.199219 C 187.636719 67.171875 187.625 67.136719 187.621094 67.105469 C 187.527344 66.910156 187.613281 66.605469 187.898438 66.558594 C 189.195312 66.351562 190.484375 66.304688 191.78125 66.480469 C 191.667969 65.90625 191.9375 65.242188 192.445312 64.949219 C 192.273438 64.738281 192.148438 64.5 192.101562 64.234375 C 192.070312 64.039062 192.1875 63.917969 192.332031 63.882812 C 192.355469 63.867188 192.378906 63.855469 192.40625 63.839844 C 192.613281 63.773438 192.75 63.65625 192.824219 63.488281 C 192.535156 63.421875 192.242188 63.355469 191.949219 63.300781 C 191.855469 63.28125 191.785156 63.230469 191.738281 63.171875 C 191.601562 63.085938 191.515625 62.921875 191.625 62.734375 C 191.851562 62.351562 191.914062 61.917969 192 61.488281 C 192.023438 61.363281 192.09375 61.285156 192.179688 61.246094 C 192.253906 61.164062 192.367188 61.117188 192.511719 61.144531 C 192.6875 61.179688 193.003906 61.242188 193.3125 61.28125 C 193.285156 60.988281 193.230469 60.695312 193.179688 60.402344 C 193.175781 60.363281 193.175781 60.332031 193.179688 60.304688 C 193.152344 60.113281 193.246094 59.910156 193.492188 59.914062 C 193.820312 59.921875 194.207031 60 194.542969 59.941406 C 194.460938 59.714844 194.46875 59.449219 194.574219 59.199219 C 194.785156 58.703125 195.328125 58.511719 195.839844 58.578125 C 196.328125 58.648438 196.789062 58.929688 196.875 59.441406 C 196.9375 59.792969 196.789062 60.132812 196.539062 60.367188 C 196.753906 60.519531 197.105469 60.585938 197.296875 60.664062 C 197.367188 60.691406 197.421875 60.734375 197.453125 60.785156 C 197.582031 60.902344 197.628906 61.09375 197.460938 61.246094 C 197.265625 61.429688 196.945312 61.714844 196.878906 61.984375 C 196.925781 61.996094 196.984375 62.003906 197.035156 62.003906 C 197.191406 61.996094 197.34375 61.976562 197.496094 61.957031 C 197.722656 61.921875 197.851562 62.078125 197.867188 62.253906 C 197.914062 62.320312 197.9375 62.40625 197.914062 62.511719 C 197.792969 63.117188 197.640625 63.722656 197.574219 64.34375 C 197.550781 64.585938 197.257812 64.675781 197.0625 64.59375 C 196.90625 64.527344 196.761719 64.429688 196.613281 64.347656 C 196.578125 64.328125 196.539062 64.308594 196.5 64.289062 C 196.503906 64.488281 196.574219 64.683594 196.753906 64.816406 C 196.914062 64.9375 196.914062 65.113281 196.832031 65.238281 C 196.816406 65.285156 196.792969 65.332031 196.753906 65.378906 C 196.65625 65.484375 196.542969 65.574219 196.414062 65.652344 C 196.851562 66.109375 196.875 66.890625 196.523438 67.414062 C 197.792969 67.742188 198.972656 68.273438 200.09375 68.957031 C 200.339844 69.109375 200.300781 69.417969 200.144531 69.566406 C 200.125 69.59375 200.105469 69.621094 200.078125 69.640625 C 198.628906 70.902344 198.171875 72.886719 197.144531 74.457031 C 197.5 74.679688 197.695312 75.09375 197.558594 75.53125 C 197.421875 75.96875 197.0625 76.203125 196.660156 76.195312 C 196.640625 76.292969 196.613281 76.390625 196.589844 76.496094 C 196.9375 76.570312 197.289062 76.742188 197.453125 77.058594 C 197.65625 77.453125 197.621094 77.863281 197.417969 78.238281 C 198.273438 78.59375 198.765625 79.542969 198.183594 80.421875 C 197.648438 81.21875 196.769531 81.144531 195.925781 80.988281 C 195.492188 82.257812 194.582031 83.300781 194.246094 84.621094 C 193.855469 86.101562 193.722656 87.601562 193.597656 89.117188 C 193.5625 89.519531 193.523438 89.925781 193.488281 90.332031 C 195.851562 91.796875 198.636719 92.691406 201.28125 93.707031 C 201.285156 93.699219 202.375 92.875 202.546875 92.824219 C 203.308594 92.605469 204.289062 92.6875 204.878906 93.242188 C 205.152344 93.5 205.4375 95.207031 205.316406 95.183594 " fill-opacity="1" fill-rule="nonzero"/></g></g></g><g clip-path="url(#id4)"><path fill="rgb(80.778503%, 29.019165%, 5.488586%)" d="M 45.410156 61.492188 C 45.152344 61.4375 43.535156 60.992188 41.820312 60.503906 C 40.105469 60.015625 38.484375 59.613281 38.214844 59.613281 C 37.949219 59.613281 36.171875 59.933594 34.269531 60.328125 C 30.945312 61.011719 30.777344 61.027344 30 60.714844 C 29.558594 60.535156 29.132812 60.21875 29.054688 60.011719 C 28.964844 59.765625 28.78125 59.679688 28.53125 59.761719 C 28.292969 59.839844 28.210938 59.804688 28.308594 59.667969 C 28.398438 59.546875 28.335938 59.394531 28.171875 59.328125 C 28.007812 59.265625 28.140625 59.257812 28.464844 59.308594 C 28.792969 59.363281 28.925781 59.355469 28.761719 59.292969 C 28.597656 59.226562 28.523438 59.089844 28.597656 58.988281 C 28.671875 58.886719 28.496094 58.828125 28.210938 58.855469 C 27.921875 58.882812 27.640625 58.789062 27.582031 58.652344 C 27.527344 58.511719 27.640625 58.398438 27.839844 58.398438 C 28.039062 58.398438 28.253906 58.324219 28.320312 58.230469 C 28.386719 58.140625 28.121094 58.105469 27.734375 58.15625 C 26.914062 58.257812 26.859375 57.859375 27.636719 57.425781 C 28.085938 57.171875 28.078125 57.164062 27.5 57.238281 C 27.027344 57.296875 26.800781 57.183594 26.503906 56.742188 C 26.121094 56.175781 26.125 56.167969 26.722656 56.167969 C 27.179688 56.167969 27.296875 56.089844 27.1875 55.847656 C 27.109375 55.671875 27.042969 55.492188 27.042969 55.445312 C 27.042969 55.402344 26.695312 55.414062 26.273438 55.472656 L 25.503906 55.578125 L 26.214844 55.269531 L 26.925781 54.957031 L 26.09375 55.054688 C 25.308594 55.152344 25.296875 55.144531 25.859375 54.914062 C 26.183594 54.777344 26.480469 54.65625 26.515625 54.636719 C 26.550781 54.617188 26.519531 54.464844 26.441406 54.292969 C 26.335938 54.0625 26.046875 54 25.308594 54.0625 C 24.261719 54.148438 24.328125 54.066406 25.503906 53.832031 C 26.140625 53.703125 26.164062 53.671875 25.738281 53.523438 C 25.480469 53.433594 25.398438 53.351562 25.5625 53.34375 C 25.726562 53.335938 25.859375 53.242188 25.859375 53.136719 C 25.859375 53.03125 25.53125 52.980469 25.132812 53.023438 C 24.613281 53.078125 24.367188 53.003906 24.261719 52.757812 C 24.183594 52.570312 24 52.351562 23.863281 52.269531 C 23.71875 52.183594 23.847656 52.117188 24.15625 52.117188 C 24.457031 52.117188 24.640625 52.195312 24.570312 52.296875 C 24.496094 52.398438 24.671875 52.425781 24.96875 52.355469 C 25.472656 52.238281 25.472656 52.226562 25.027344 52.144531 C 24.554688 52.058594 24.554688 52.058594 25.027344 51.890625 C 25.378906 51.765625 25.261719 51.734375 24.582031 51.765625 C 23.421875 51.820312 23.21875 51.4375 24.25 51.144531 L 25.027344 50.921875 L 24.082031 51.003906 L 23.132812 51.089844 L 23.902344 50.863281 C 24.769531 50.609375 24.808594 50.527344 24.34375 49.984375 C 24.074219 49.664062 23.917969 49.636719 23.457031 49.820312 C 22.902344 50.035156 22.90625 50.042969 23.726562 50.246094 C 24.183594 50.363281 24.378906 50.464844 24.160156 50.472656 C 23.941406 50.484375 23.570312 50.546875 23.332031 50.613281 C 22.96875 50.710938 22.957031 50.695312 23.25 50.515625 C 23.5625 50.324219 23.558594 50.296875 23.21875 50.292969 C 23.003906 50.289062 22.769531 50.160156 22.699219 50.003906 C 22.609375 49.804688 22.84375 49.648438 23.445312 49.5 L 24.316406 49.285156 L 23.371094 49.371094 L 22.421875 49.457031 L 23.191406 49.234375 C 23.617188 49.113281 23.960938 48.925781 23.960938 48.820312 C 23.960938 48.710938 23.792969 48.679688 23.585938 48.75 C 23.378906 48.816406 22.925781 48.917969 22.578125 48.976562 C 22.046875 49.066406 22.023438 49.050781 22.421875 48.890625 C 22.683594 48.785156 23.097656 48.644531 23.34375 48.578125 C 24.101562 48.371094 23.625 48.257812 22.824219 48.453125 C 22.367188 48.566406 22.019531 48.5625 21.9375 48.449219 C 21.863281 48.347656 22.046875 48.261719 22.347656 48.257812 C 22.648438 48.257812 23.054688 48.167969 23.25 48.0625 C 23.507812 47.921875 23.375 47.886719 22.777344 47.9375 C 22.320312 47.976562 22.160156 47.964844 22.421875 47.914062 C 23.398438 47.722656 23.398438 47.398438 22.421875 47.515625 L 21.472656 47.632812 L 22.25 47.410156 C 23.25 47.125 23.097656 46.734375 22.003906 46.761719 C 21.359375 46.78125 21.191406 46.714844 21.289062 46.492188 C 21.363281 46.328125 21.609375 46.246094 21.863281 46.300781 C 22.105469 46.355469 22.371094 46.304688 22.453125 46.191406 C 22.550781 46.054688 22.300781 46.011719 21.75 46.066406 C 21.222656 46.121094 20.851562 46.058594 20.785156 45.910156 C 20.636719 45.578125 20.863281 45.421875 21.453125 45.445312 C 21.890625 45.460938 21.878906 45.484375 21.355469 45.636719 C 20.789062 45.800781 20.792969 45.804688 21.472656 45.769531 C 21.925781 45.742188 22.183594 45.617188 22.183594 45.425781 C 22.183594 45.199219 21.9375 45.132812 21.238281 45.15625 C 20.402344 45.1875 20.375 45.175781 21 45.054688 C 22.105469 44.835938 21.925781 44.300781 20.761719 44.347656 L 19.816406 44.382812 L 20.695312 44.140625 C 21.75 43.851562 21.609375 43.457031 20.394531 43.292969 C 19.800781 43.214844 19.707031 43.234375 20.050781 43.367188 C 20.429688 43.507812 20.453125 43.566406 20.171875 43.648438 C 19.976562 43.703125 20.136719 43.722656 20.527344 43.6875 C 21.179688 43.628906 21.195312 43.640625 20.714844 43.839844 C 20.136719 44.082031 19.347656 43.917969 19.578125 43.601562 C 19.65625 43.488281 19.621094 43.398438 19.496094 43.398438 C 19.035156 43.398438 19.398438 42.695312 19.910156 42.589844 C 20.761719 42.417969 20.488281 42.09375 19.300781 41.875 C 18.113281 41.660156 17.617188 41.175781 18.550781 41.152344 C 19.007812 41.140625 19.03125 41.113281 18.6875 40.996094 C 18.335938 40.878906 18.398438 40.796875 19.066406 40.488281 C 19.503906 40.289062 20.011719 39.832031 20.195312 39.480469 C 20.480469 38.929688 20.734375 38.792969 21.996094 38.515625 C 23.007812 38.289062 23.671875 38 24.128906 37.582031 C 24.730469 37.035156 24.980469 36.964844 26.78125 36.835938 C 28.210938 36.734375 28.933594 36.582031 29.359375 36.296875 C 29.765625 36.023438 30.316406 35.898438 31.105469 35.898438 C 31.738281 35.898438 32.257812 35.808594 32.257812 35.699219 C 32.257812 35.589844 32.550781 35.375 32.910156 35.222656 C 33.402344 35.011719 34.042969 34.984375 35.554688 35.097656 C 37.136719 35.222656 37.613281 35.195312 37.882812 34.96875 C 38.304688 34.605469 39.152344 34.605469 41.1875 34.96875 C 42.707031 35.238281 48.125 35.632812 48.800781 35.519531 C 49.382812 35.421875 50.746094 35.925781 51 36.332031 C 51.136719 36.550781 51.214844 37.019531 51.175781 37.371094 C 51.101562 37.984375 51.15625 38.023438 52.675781 38.523438 C 55.472656 39.4375 55.730469 39.992188 54.667969 42.789062 C 51.75 50.484375 50.390625 53.980469 49.554688 55.964844 C 49.011719 57.246094 48.34375 58.964844 48.070312 59.785156 C 47.488281 61.53125 47.015625 61.835938 45.410156 61.492188 Z M 47.082031 60.878906 C 47.21875 60.796875 47.5625 60.089844 47.839844 59.308594 C 48.121094 58.53125 49.351562 55.382812 50.574219 52.316406 C 54.019531 43.6875 54.890625 41.109375 54.625 40.320312 C 54.328125 39.429688 53.699219 39.152344 48.453125 37.59375 C 39.265625 34.863281 38.683594 34.746094 38.09375 35.542969 C 37.738281 36.019531 36.296875 39.523438 32.613281 48.871094 C 31.40625 51.9375 30.292969 54.714844 30.140625 55.046875 C 29.710938 55.972656 29.988281 56.480469 31.128906 56.875 C 31.683594 57.0625 34.113281 57.808594 36.523438 58.527344 C 38.933594 59.246094 41.761719 60.101562 42.804688 60.425781 C 44.621094 60.988281 46.554688 61.191406 47.082031 60.878906 Z M 46.375 59.96875 C 46.734375 58.980469 46.972656 58.550781 47.09375 58.652344 C 47.285156 58.816406 46.675781 60.425781 46.425781 60.425781 C 46.304688 60.425781 46.285156 60.21875 46.375 59.96875 Z M 45.128906 59.683594 C 44.9375 59.261719 45.550781 58.296875 46.011719 58.296875 C 46.476562 58.296875 46.589844 58.953125 46.222656 59.539062 C 45.875 60.097656 45.34375 60.167969 45.128906 59.683594 Z M 46.242188 58.765625 C 46.242188 58.472656 45.824219 58.589844 45.671875 58.921875 C 45.414062 59.5 45.539062 59.722656 45.894531 59.320312 C 46.085938 59.105469 46.242188 58.855469 46.242188 58.765625 Z M 42.578125 57.6875 C 42.417969 56.609375 42.4375 56.554688 43.183594 56.015625 C 44.820312 54.828125 44.753906 54.824219 45.0625 56.085938 L 45.335938 57.226562 L 44.308594 58.007812 C 43.742188 58.4375 43.15625 58.792969 43.007812 58.796875 C 42.859375 58.800781 42.667969 58.308594 42.578125 57.6875 Z M 46.734375 57.339844 C 46.570312 56.976562 46.632812 56.804688 47.027344 56.539062 C 47.933594 55.929688 48.273438 56.660156 47.421875 57.390625 L 46.941406 57.800781 Z M 34.292969 55.8125 L 34.132812 54.648438 L 35.121094 53.878906 C 36.207031 53.035156 36.546875 53.007812 36.789062 53.75 C 37.175781 54.929688 37.027344 55.382812 35.992188 56.183594 C 35.4375 56.613281 34.863281 56.964844 34.71875 56.972656 C 34.574219 56.976562 34.382812 56.460938 34.292969 55.8125 Z M 39.996094 55.140625 C 39.636719 54.105469 39.367188 53.140625 39.367188 52.898438 C 39.367188 52.742188 39.792969 52.390625 40.316406 52.113281 C 40.835938 51.839844 41.265625 51.542969 41.265625 51.457031 C 41.265625 51.371094 41.464844 51.304688 41.707031 51.304688 C 42.152344 51.304688 42.449219 51.988281 42.449219 53.007812 C 42.449219 53.5625 40.144531 55.566406 39.996094 55.140625 Z M 44.71875 52.992188 L 44.304688 51.863281 L 45.320312 50.972656 C 46.804688 49.683594 46.960938 49.746094 47.277344 51.753906 C 47.386719 52.449219 47.3125 52.5625 46.265625 53.3125 L 45.136719 54.121094 Z M 36.660156 51.457031 C 36.574219 50.980469 36.445312 50.398438 36.375 50.164062 C 36.28125 49.832031 36.503906 49.554688 37.347656 48.964844 C 38 48.507812 38.527344 48.273438 38.65625 48.382812 C 38.773438 48.484375 38.933594 49.050781 39.011719 49.644531 C 39.15625 50.714844 39.148438 50.730469 38.136719 51.511719 C 37.574219 51.945312 37.050781 52.304688 36.96875 52.308594 C 36.886719 52.3125 36.75 51.929688 36.660156 51.457031 Z M 46.742188 47.707031 L 46.425781 46.539062 L 47.578125 45.675781 C 48.59375 44.910156 48.761719 44.847656 49.007812 45.136719 C 49.160156 45.316406 49.363281 45.835938 49.453125 46.289062 C 49.609375 47.082031 49.566406 47.152344 48.511719 47.992188 C 47.90625 48.476562 47.332031 48.871094 47.234375 48.871094 C 47.140625 48.871094 46.917969 48.347656 46.742188 47.707031 Z M 38.773438 45.691406 L 38.382812 44.539062 L 39.289062 43.875 C 40.59375 42.917969 40.894531 42.984375 41.265625 44.316406 C 41.574219 45.410156 41.566406 45.449219 41.023438 45.773438 C 40.714844 45.957031 40.269531 46.273438 40.035156 46.476562 C 39.371094 47.042969 39.195312 46.933594 38.773438 45.691406 Z M 43.25 44.460938 L 42.996094 43.296875 L 43.847656 42.621094 C 44.316406 42.25 44.878906 41.863281 45.097656 41.761719 C 45.558594 41.546875 45.691406 41.800781 45.8125 43.09375 C 45.878906 43.832031 45.789062 43.980469 44.792969 44.765625 C 44.191406 45.238281 43.65625 45.628906 43.597656 45.628906 C 43.542969 45.628906 43.386719 45.101562 43.25 44.460938 Z M 48.988281 43.953125 C 48.941406 43.816406 48.765625 43.304688 48.59375 42.824219 L 48.285156 41.941406 L 49.425781 41.046875 C 50.050781 40.554688 50.648438 40.152344 50.757812 40.152344 C 50.972656 40.152344 51.105469 40.496094 51.335938 41.65625 C 51.484375 42.414062 51.4375 42.496094 50.359375 43.332031 C 49.089844 44.3125 49.101562 44.304688 48.988281 43.953125 Z M 41.027344 41.546875 C 41.027344 41.308594 40.898438 40.75 40.742188 40.304688 C 40.472656 39.523438 40.484375 39.480469 41.15625 39.066406 C 41.539062 38.828125 42.050781 38.464844 42.292969 38.257812 C 42.839844 37.792969 43.050781 37.96875 43.425781 39.175781 L 43.722656 40.121094 L 42.550781 41.042969 C 41.222656 42.089844 41.027344 42.152344 41.027344 41.546875 Z M 37.171875 40.371094 C 37.046875 39.960938 37.570312 39.140625 37.960938 39.140625 C 38.257812 39.140625 38.246094 39.878906 37.9375 40.371094 C 37.625 40.871094 37.324219 40.871094 37.171875 40.371094 Z M 38.421875 38.015625 C 38.421875 37.332031 39.082031 36.253906 39.441406 36.355469 C 39.933594 36.492188 39.886719 37.414062 39.363281 37.984375 C 38.730469 38.671875 38.421875 38.679688 38.421875 38.015625 Z M 39.441406 36.714844 C 39.253906 36.535156 38.902344 37.210938 38.914062 37.722656 C 38.929688 38.167969 38.96875 38.140625 39.234375 37.519531 C 39.40625 37.128906 39.496094 36.765625 39.441406 36.714844 Z M 37.730469 38.152344 C 37.695312 37.671875 38.246094 36.300781 38.472656 36.300781 C 38.703125 36.300781 38.558594 36.824219 38.054688 37.824219 C 37.886719 38.15625 37.738281 38.304688 37.730469 38.152344 Z M 32.054688 60.261719 C 31.746094 60.222656 31.394531 60.273438 31.277344 60.375 C 31.144531 60.488281 31.367188 60.515625 31.835938 60.449219 C 32.496094 60.355469 32.527344 60.328125 32.054688 60.261719 Z M 30.5 59.945312 C 30.308594 59.820312 29.886719 58.757812 29.570312 57.585938 C 28.914062 55.191406 23.960938 38.464844 23.886719 38.398438 C 23.691406 38.234375 20.554688 39.328125 20.359375 39.628906 C 20.125 39.984375 20.378906 40.746094 21.367188 42.6875 C 21.480469 42.910156 22.226562 44.507812 23.023438 46.234375 C 23.820312 47.964844 24.625 49.664062 24.808594 50.011719 C 24.992188 50.359375 25.554688 51.5 26.058594 52.546875 C 27.359375 55.25 28.699219 57.988281 29.085938 58.734375 C 29.265625 59.082031 29.414062 59.441406 29.414062 59.527344 C 29.414062 59.859375 30.1875 60.390625 30.511719 60.285156 C 30.804688 60.191406 30.800781 60.140625 30.5 59.945312 Z M 23.402344 44.613281 C 23.089844 44.34375 23.003906 44.074219 23.109375 43.710938 C 23.289062 43.097656 23.515625 43.0625 24.050781 43.570312 C 24.367188 43.867188 24.398438 44.0625 24.214844 44.484375 C 23.933594 45.109375 23.96875 45.101562 23.402344 44.613281 Z M 21.972656 41.648438 C 21.882812 40.910156 21.871094 40.253906 21.945312 40.191406 C 22.140625 40.023438 22.894531 40.738281 23.480469 41.648438 C 24 42.453125 24.015625 42.824219 23.503906 42.300781 C 23.136719 41.917969 22.542969 42.109375 22.542969 42.609375 C 22.542969 42.820312 22.449219 42.992188 22.335938 42.992188 C 22.226562 42.992188 22.058594 42.386719 21.972656 41.648438 Z M 22.890625 41.785156 C 23.03125 41.585938 22.546875 40.761719 22.289062 40.761719 C 22.210938 40.761719 22.195312 41.035156 22.253906 41.371094 C 22.359375 41.976562 22.625 42.152344 22.890625 41.785156 Z M 34.984375 59.832031 C 35.921875 59.613281 36.386719 59.4375 36.050781 59.421875 C 35.464844 59.394531 35.464844 59.390625 36.167969 59.09375 C 36.558594 58.929688 36.667969 58.851562 36.40625 58.917969 C 36.144531 58.984375 34.980469 59.214844 33.820312 59.425781 C 32.65625 59.640625 31.644531 59.875 31.566406 59.945312 C 31.492188 60.019531 31.695312 60.023438 32.019531 59.957031 C 32.347656 59.890625 33.09375 59.789062 33.679688 59.730469 L 34.746094 59.621094 L 33.8125 59.824219 C 33.300781 59.9375 32.828125 60.074219 32.765625 60.125 C 32.546875 60.316406 33.347656 60.207031 34.984375 59.832031 Z M 34.804688 59.480469 C 34.96875 59.425781 35.234375 59.425781 35.398438 59.480469 C 35.5625 59.535156 35.429688 59.582031 35.101562 59.582031 C 34.777344 59.582031 34.644531 59.535156 34.804688 59.480469 Z M 32.082031 59.25 C 30.917969 59.175781 30.363281 58.664062 30.363281 57.667969 C 30.363281 57.316406 30.21875 56.925781 30.042969 56.800781 C 29.777344 56.613281 29.78125 56.816406 30.066406 57.941406 C 30.5 59.640625 30.746094 59.835938 32.078125 59.535156 L 33.082031 59.308594 Z M 37.40625 59.289062 C 37.328125 59.222656 37.125 59.214844 36.953125 59.273438 C 36.765625 59.339844 36.820312 59.386719 37.097656 59.394531 C 37.347656 59.40625 37.488281 59.355469 37.40625 59.289062 Z M 35.273438 58.882812 C 35.195312 58.816406 34.992188 58.808594 34.820312 58.867188 C 34.632812 58.933594 34.6875 58.980469 34.964844 58.992188 C 35.214844 59 35.355469 58.949219 35.273438 58.882812 Z M 31.734375 58.148438 C 31.753906 57.554688 31.484375 57.191406 31.015625 57.183594 C 30.792969 57.179688 30.777344 58.480469 30.992188 58.667969 C 31.371094 58.992188 31.714844 58.753906 31.734375 58.148438 Z M 34.746094 58.625 L 35.457031 58.492188 L 34.507812 58.261719 C 32.414062 57.746094 32.019531 57.726562 32.019531 58.144531 C 32.019531 58.359375 32.09375 58.59375 32.179688 58.667969 C 32.367188 58.832031 33.757812 58.808594 34.746094 58.625 Z M 28.164062 57.667969 C 28.085938 57.601562 27.882812 57.59375 27.710938 57.652344 C 27.519531 57.714844 27.578125 57.765625 27.855469 57.773438 C 28.105469 57.78125 28.242188 57.734375 28.164062 57.667969 Z M 27.578125 56.84375 C 27.414062 56.789062 27.148438 56.789062 26.984375 56.84375 C 26.820312 56.902344 26.957031 56.945312 27.28125 56.945312 C 27.605469 56.945312 27.738281 56.902344 27.578125 56.84375 Z M 27.339844 56.4375 C 27.175781 56.382812 26.910156 56.382812 26.746094 56.4375 C 26.585938 56.496094 26.71875 56.542969 27.042969 56.542969 C 27.371094 56.542969 27.503906 56.496094 27.339844 56.4375 Z M 29.617188 47.074219 C 29.371094 43.324219 29.109375 39.5 29.03125 38.578125 L 28.894531 36.898438 L 28.03125 37.039062 C 27.550781 37.113281 26.574219 37.230469 25.859375 37.296875 C 24.601562 37.414062 24.554688 37.441406 24.480469 38.066406 C 24.441406 38.421875 24.675781 39.605469 25.003906 40.699219 C 25.332031 41.792969 26.355469 45.289062 27.285156 48.464844 C 28.210938 51.644531 29.082031 54.609375 29.21875 55.054688 L 29.472656 55.863281 L 29.769531 54.878906 C 30.011719 54.070312 29.984375 52.691406 29.617188 47.078125 Z M 27 43.269531 C 26.691406 43.007812 26.664062 42.820312 26.855469 42.351562 C 27.246094 41.390625 28.203125 42.039062 27.902344 43.0625 C 27.722656 43.683594 27.53125 43.726562 27 43.269531 Z M 26.15625 40.914062 C 26.03125 40.773438 25.851562 40.386719 25.761719 40.050781 C 25.671875 39.71875 25.542969 39.285156 25.476562 39.089844 C 25.296875 38.574219 25.742188 38.65625 26.03125 39.191406 L 26.277344 39.648438 L 26.578125 39.089844 C 26.746094 38.78125 26.976562 38.53125 27.089844 38.53125 C 27.203125 38.53125 27.183594 38.71875 27.039062 38.941406 C 26.835938 39.273438 26.878906 39.460938 27.269531 39.882812 C 27.765625 40.425781 27.910156 40.964844 27.554688 40.964844 C 27.445312 40.964844 27.234375 40.738281 27.085938 40.457031 C 26.703125 39.734375 26.257812 39.804688 26.453125 40.558594 C 26.617188 41.210938 26.53125 41.320312 26.15625 40.914062 Z M 31.628906 46.539062 C 31.832031 40.945312 32.019531 37.34375 32.144531 36.65625 C 32.242188 36.121094 32.203125 36.097656 31.230469 36.097656 C 29.347656 36.097656 29.386719 35.96875 29.65625 41.371094 C 29.785156 43.988281 29.992188 47.363281 30.117188 48.871094 C 30.242188 50.375 30.355469 51.972656 30.367188 52.417969 L 30.386719 53.230469 L 30.929688 52.011719 C 31.414062 50.9375 31.492188 50.300781 31.628906 46.539062 Z M 30.378906 42.308594 C 30.136719 41.921875 30.140625 41.75 30.398438 41.398438 C 30.792969 40.855469 30.988281 40.851562 31.320312 41.382812 C 31.523438 41.710938 31.496094 41.910156 31.203125 42.296875 C 30.742188 42.898438 30.75 42.898438 30.378906 42.308594 Z M 31.308594 40.152344 C 31.308594 40.042969 31.09375 39.949219 30.832031 39.949219 C 29.695312 39.949219 29.644531 37.695312 30.777344 37.554688 C 31.34375 37.484375 31.441406 37.695312 31.621094 39.394531 C 31.679688 39.921875 31.632812 40.355469 31.519531 40.355469 C 31.402344 40.355469 31.308594 40.265625 31.308594 40.152344 Z M 30.882812 39.503906 C 30.511719 39.1875 30.519531 38.722656 30.894531 38.785156 C 31.058594 38.8125 31.191406 38.652344 31.191406 38.429688 C 31.191406 37.792969 30.492188 37.941406 30.402344 38.59375 C 30.335938 39.109375 30.683594 39.75 31.03125 39.75 C 31.105469 39.75 31.039062 39.636719 30.882812 39.503906 Z M 25.558594 52.597656 C 25.480469 52.53125 25.273438 52.523438 25.105469 52.582031 C 24.914062 52.648438 24.96875 52.695312 25.246094 52.707031 C 25.496094 52.714844 25.636719 52.667969 25.558594 52.597656 Z M 24.792969 51.503906 C 25.265625 51.332031 25.265625 51.332031 24.792969 51.320312 C 24.53125 51.3125 24.160156 51.398438 23.964844 51.503906 C 23.648438 51.679688 23.648438 51.699219 23.964844 51.691406 C 24.160156 51.683594 24.53125 51.601562 24.792969 51.503906 Z M 34.054688 44.207031 C 34.871094 42.144531 35.609375 40.273438 35.699219 40.050781 C 35.832031 39.714844 35.8125 39.699219 35.582031 39.949219 C 35.359375 40.195312 35.335938 40.160156 35.457031 39.746094 C 35.71875 38.867188 36.101562 38.125 36.292969 38.125 C 36.464844 38.125 37.542969 35.671875 37.410156 35.582031 C 37.378906 35.5625 36.421875 35.496094 35.285156 35.4375 C 33.890625 35.367188 33.148438 35.410156 33.003906 35.5625 C 32.886719 35.691406 32.722656 36.707031 32.640625 37.820312 C 32.417969 40.878906 32.253906 48.609375 32.421875 48.261719 C 32.503906 48.09375 33.238281 46.269531 34.054688 44.207031 Z M 33.585938 42.082031 C 33.210938 41.59375 33.210938 41.527344 33.601562 40.957031 C 33.832031 40.628906 34.101562 40.355469 34.199219 40.355469 C 34.585938 40.355469 34.671875 41.398438 34.335938 41.992188 L 33.988281 42.605469 Z M 33.601562 39.410156 C 33.515625 39.335938 33.441406 39.140625 33.441406 38.980469 C 33.441406 38.738281 33.507812 38.730469 33.808594 38.945312 C 34.3125 39.300781 34.636719 38.980469 34.796875 37.949219 C 34.878906 37.425781 34.816406 37.003906 34.628906 36.808594 C 34.375 36.546875 34.445312 36.503906 35.132812 36.511719 C 35.847656 36.515625 35.886719 36.546875 35.515625 36.785156 C 35.257812 36.957031 35.101562 37.328125 35.101562 37.785156 C 35.101562 39.070312 34.265625 39.976562 33.601562 39.410156 Z M 20.941406 43.058594 C 20.777344 43.003906 20.714844 42.859375 20.800781 42.738281 C 20.902344 42.59375 20.8125 42.566406 20.546875 42.652344 C 20.320312 42.726562 19.953125 42.800781 19.738281 42.8125 C 19.519531 42.824219 19.660156 42.90625 20.050781 42.992188 C 20.875 43.171875 21.371094 43.207031 20.941406 43.058594 Z M 20.171875 41.695312 C 20.171875 41.652344 20.011719 41.5625 19.816406 41.5 C 19.621094 41.433594 19.460938 41.472656 19.460938 41.578125 C 19.460938 41.6875 19.621094 41.773438 19.816406 41.773438 C 20.011719 41.773438 20.171875 41.738281 20.171875 41.695312 Z M 19.046875 41.4375 C 18.882812 41.382812 18.617188 41.382812 18.453125 41.4375 C 18.289062 41.496094 18.421875 41.539062 18.75 41.539062 C 19.074219 41.539062 19.207031 41.496094 19.046875 41.4375 Z M 20.105469 40.84375 C 20.027344 40.773438 19.824219 40.765625 19.652344 40.824219 C 19.464844 40.890625 19.519531 40.9375 19.796875 40.949219 C 20.046875 40.957031 20.1875 40.910156 20.105469 40.84375 Z M 36.28125 38.632812 C 36.28125 38.523438 36.175781 38.566406 36.050781 38.734375 C 35.925781 38.902344 35.820312 39.128906 35.820312 39.242188 C 35.820312 39.351562 35.925781 39.308594 36.050781 39.140625 C 36.175781 38.972656 36.28125 38.746094 36.28125 38.632812 Z M 50.746094 37.238281 C 50.746094 36.347656 50.296875 36.054688 48.78125 35.960938 C 46.976562 35.84375 42.898438 35.480469 42.210938 35.371094 C 41.886719 35.320312 43.59375 35.863281 46.003906 36.582031 C 48.414062 37.300781 50.46875 37.898438 50.566406 37.90625 C 50.664062 37.917969 50.746094 37.617188 50.746094 37.238281 Z M 26.273438 55.832031 C 26.4375 55.773438 26.703125 55.773438 26.867188 55.832031 C 27.03125 55.886719 26.894531 55.933594 26.570312 55.933594 C 26.246094 55.933594 26.109375 55.886719 26.273438 55.832031 Z M 25.449219 54.40625 C 25.679688 54.355469 26 54.359375 26.160156 54.414062 C 26.320312 54.46875 26.132812 54.511719 25.742188 54.507812 C 25.351562 54.503906 25.21875 54.457031 25.449219 54.40625 Z M 24.675781 53.53125 C 24.675781 53.421875 24.78125 53.328125 24.910156 53.328125 C 25.042969 53.328125 25.148438 53.421875 25.148438 53.53125 C 25.148438 53.644531 25.042969 53.734375 24.910156 53.734375 C 24.78125 53.734375 24.675781 53.644531 24.675781 53.53125 Z M 23.683594 49.949219 C 23.851562 49.890625 24.058594 49.898438 24.136719 49.964844 C 24.214844 50.03125 24.074219 50.078125 23.824219 50.070312 C 23.550781 50.0625 23.492188 50.011719 23.683594 49.949219 Z M 21.59375 47.046875 C 21.789062 46.9375 22.160156 46.855469 22.421875 46.859375 C 22.898438 46.871094 22.898438 46.871094 22.421875 47.046875 C 22.160156 47.140625 21.789062 47.226562 21.59375 47.230469 C 21.277344 47.242188 21.277344 47.21875 21.59375 47.046875 Z M 20.191406 44.742188 C 20.46875 44.539062 21.617188 44.414062 21.480469 44.605469 C 21.398438 44.722656 21.050781 44.816406 20.710938 44.816406 C 20.371094 44.816406 20.136719 44.78125 20.191406 44.742188 Z M 18.984375 42.40625 C 19.289062 42.21875 19.273438 42.1875 18.886719 42.183594 C 18.636719 42.183594 18.492188 42.128906 18.566406 42.066406 C 18.636719 42.003906 19.054688 42.042969 19.492188 42.152344 C 19.929688 42.257812 20.113281 42.355469 19.894531 42.363281 C 19.675781 42.375 19.304688 42.4375 19.066406 42.503906 C 18.703125 42.605469 18.691406 42.585938 18.984375 42.40625 Z M 18.984375 42.40625 " fill-opacity="1" fill-rule="nonzero"/></g><g fill="rgb(21.958923%, 20.388794%, 15.689087%)" fill-opacity="0.4"><g transform="translate(43.821775, 51.437953)"><g><path d="M 1.800781 0.117188 C 2.554688 0.117188 3.3125 -0.230469 4.007812 -1.453125 C 4.238281 -1.859375 4.589844 -2.265625 4.878906 -2.671875 C 5.054688 -2.960938 5.285156 -3.136719 5.460938 -3.136719 C 5.691406 -3.136719 5.808594 -2.960938 5.632812 -2.613281 C 5.519531 -2.324219 5.34375 -2.03125 5.226562 -1.742188 C 4.996094 -0.929688 5.054688 -0.0585938 6.15625 -0.0585938 C 7.027344 -0.0585938 7.609375 -0.640625 7.898438 -1.160156 C 8.710938 -2.789062 9.585938 -4.414062 10.222656 -6.039062 C 10.628906 -6.914062 11.152344 -7.203125 12.082031 -7.203125 L 16.785156 -7.203125 C 18.355469 -7.203125 19.863281 -7.203125 21.433594 -7.144531 C 22.363281 -7.144531 22.710938 -6.738281 22.769531 -5.925781 C 22.828125 -4.414062 23.175781 -2.554688 23.175781 -0.988281 C 23.234375 0.0585938 23.816406 0.347656 24.628906 0.347656 C 25.324219 0.347656 25.789062 0.0585938 25.964844 -0.523438 C 26.082031 -1.277344 26.195312 -1.511719 26.488281 -1.511719 C 26.777344 -1.511719 26.894531 -1.335938 27.183594 -0.464844 C 27.359375 0.175781 27.9375 0.40625 28.753906 0.40625 C 29.507812 0.40625 30.089844 -0.230469 29.972656 -1.046875 L 25.152344 -36.941406 C 24.976562 -37.871094 24.628906 -38.335938 24.046875 -38.335938 C 23.351562 -38.335938 22.886719 -37.929688 22.59375 -37.289062 L 22.304688 -36.769531 C 22.1875 -36.417969 21.957031 -36.246094 21.78125 -36.246094 C 21.550781 -36.246094 21.375 -36.476562 21.433594 -36.824219 L 21.375 -37.234375 C 21.433594 -38.046875 21.316406 -38.453125 20.503906 -38.453125 C 19.632812 -38.453125 18.992188 -37.988281 18.414062 -36.882812 L 1.335938 -1.800781 C 0.695312 -0.523438 0.929688 0.117188 1.800781 0.117188 Z M 19.808594 -26.371094 C 19.921875 -26.601562 20.097656 -26.71875 20.214844 -26.71875 C 20.328125 -26.71875 20.445312 -26.601562 20.503906 -26.371094 L 21.78125 -13.765625 C 21.898438 -12.835938 21.609375 -12.546875 20.503906 -12.546875 L 14.578125 -12.546875 C 13.59375 -12.546875 13.300781 -12.835938 13.765625 -13.707031 Z M 17.078125 -10.398438 C 19.285156 -10.398438 21.492188 -10.28125 21.839844 -9.933594 C 21.316406 -9.640625 19.398438 -9.527344 17.484375 -9.527344 C 15.21875 -9.527344 12.894531 -9.699219 12.546875 -10.046875 C 13.070312 -10.28125 15.042969 -10.398438 17.078125 -10.398438 Z M 17.078125 -10.398438 "/></g></g></g><g fill="rgb(21.958923%, 20.388794%, 15.689087%)" fill-opacity="0.4"><g transform="translate(75.360911, 51.437953)"><g><path d="M 13.59375 -36.769531 C 12.546875 -36.769531 11.964844 -36.128906 11.792969 -35.140625 L 11.734375 -34.792969 C 11.675781 -34.503906 11.441406 -34.328125 11.269531 -34.328125 C 11.09375 -34.328125 10.921875 -34.445312 10.921875 -34.734375 L 10.921875 -35.316406 C 10.863281 -36.304688 10.628906 -36.769531 9.46875 -36.769531 C 8.539062 -36.769531 8.074219 -36.011719 7.957031 -35.082031 L 1.976562 -0.640625 C 1.800781 0.289062 2.207031 0.871094 3.078125 0.871094 C 4.125 0.8125 4.703125 0.289062 5.054688 -1.046875 L 5.226562 -1.566406 C 5.34375 -2.089844 5.519531 -2.324219 5.808594 -2.324219 C 6.039062 -2.324219 6.214844 -2.148438 6.097656 -1.742188 L 5.984375 -1.105469 C 5.925781 -0.175781 6.214844 0.464844 7.027344 0.464844 L 7.144531 0.464844 C 8.132812 0.464844 8.539062 -0.175781 8.710938 -0.988281 L 14.929688 -34.96875 C 15.101562 -36.304688 14.636719 -36.769531 13.59375 -36.769531 Z M 13.59375 -36.769531 "/></g></g></g><g fill="rgb(21.958923%, 20.388794%, 15.689087%)" fill-opacity="0.4"><g transform="translate(88.371585, 51.437953)"><g><path d="M 13.59375 -36.769531 C 12.546875 -36.769531 11.964844 -36.128906 11.792969 -35.140625 L 11.734375 -34.792969 C 11.675781 -34.503906 11.441406 -34.328125 11.269531 -34.328125 C 11.09375 -34.328125 10.921875 -34.445312 10.921875 -34.734375 L 10.921875 -35.316406 C 10.863281 -36.304688 10.628906 -36.769531 9.46875 -36.769531 C 8.539062 -36.769531 8.074219 -36.011719 7.957031 -35.082031 L 1.976562 -0.640625 C 1.800781 0.289062 2.207031 0.871094 3.078125 0.871094 C 4.125 0.8125 4.703125 0.289062 5.054688 -1.046875 L 5.226562 -1.566406 C 5.34375 -2.089844 5.519531 -2.324219 5.808594 -2.324219 C 6.039062 -2.324219 6.214844 -2.148438 6.097656 -1.742188 L 5.984375 -1.105469 C 5.925781 -0.175781 6.214844 0.464844 7.027344 0.464844 L 7.144531 0.464844 C 8.132812 0.464844 8.539062 -0.175781 8.710938 -0.988281 L 14.929688 -34.96875 C 15.101562 -36.304688 14.636719 -36.769531 13.59375 -36.769531 Z M 13.59375 -36.769531 "/></g></g></g><g fill="rgb(21.958923%, 20.388794%, 15.689087%)" fill-opacity="0.4"><g transform="translate(101.382258, 51.437953)"><g/></g></g><g fill="rgb(21.958923%, 20.388794%, 15.689087%)" fill-opacity="0.4"><g transform="translate(108.119977, 51.437953)"><g><path d="M 13.707031 0.347656 C 17.832031 0.347656 24.046875 -3.136719 24.570312 -6.449219 C 25.09375 -9.875 26.195312 -14.171875 26.777344 -17.601562 C 27.066406 -19.457031 25.671875 -19.34375 25.730469 -19.75 C 25.847656 -20.386719 27.125 -19.980469 27.359375 -21.199219 C 27.417969 -21.78125 27.007812 -22.128906 26.023438 -22.128906 L 17.949219 -22.128906 C 16.785156 -22.128906 16.265625 -21.78125 16.148438 -21.144531 C 16.03125 -20.621094 16.265625 -20.328125 16.785156 -20.214844 C 17.542969 -20.097656 17.773438 -19.863281 17.714844 -19.691406 C 17.65625 -19.515625 17.308594 -19.398438 16.785156 -19.285156 C 15.855469 -18.992188 15.335938 -18.761719 15.277344 -18.179688 C 15.101562 -17.425781 15.972656 -17.25 16.726562 -17.25 L 18.878906 -17.25 C 19.632812 -17.25 20.097656 -17.019531 19.921875 -15.914062 L 18.527344 -8.074219 C 18.296875 -6.96875 17.773438 -6.332031 16.902344 -5.867188 C 16.84375 -5.867188 16.089844 -5.285156 14.695312 -5.285156 C 11.847656 -5.285156 8.886719 -8.886719 10.863281 -20.097656 C 12.371094 -28.867188 16.496094 -32.761719 19.863281 -32.761719 C 21.957031 -32.761719 23.464844 -31.539062 24.394531 -30.089844 C 24.570312 -29.855469 24.859375 -29.738281 25.207031 -29.738281 C 25.5 -29.738281 25.789062 -29.796875 25.964844 -29.972656 C 26.601562 -30.4375 26.71875 -31.25 26.429688 -31.832031 C 26.082031 -32.46875 25.441406 -33.109375 24.6875 -33.632812 C 24.222656 -33.863281 24.453125 -34.269531 24.917969 -34.269531 C 25.09375 -34.269531 25.324219 -34.210938 25.5 -34.039062 C 26.023438 -33.632812 26.488281 -33.339844 26.894531 -32.992188 C 27.242188 -32.703125 27.765625 -32.46875 28.230469 -32.46875 C 28.460938 -32.46875 28.695312 -32.527344 28.867188 -32.644531 C 29.625 -33.222656 29.507812 -33.980469 29.160156 -34.617188 C 28.113281 -36.535156 24.511719 -38.453125 20.910156 -38.453125 C 11.847656 -38.453125 6.15625 -32.003906 4.066406 -20.15625 C 1.160156 -3.71875 6.15625 0.289062 13.707031 0.347656 Z M 7.261719 -8.769531 C 7.433594 -6.855469 7.898438 -5.632812 9.121094 -4.472656 C 10.046875 -3.601562 11.382812 -2.847656 13.300781 -2.441406 C 12.953125 -2.441406 10.339844 -2.613281 8.65625 -3.777344 L 9.234375 -3.367188 C 7.375 -4.472656 6.855469 -6.097656 7.261719 -8.769531 Z M 7.261719 -8.769531 "/></g></g></g><g fill="rgb(21.958923%, 20.388794%, 15.689087%)" fill-opacity="0.4"><g transform="translate(135.360972, 51.437953)"><g><path d="M 17.136719 -27.707031 C 10.570312 -27.707031 4.703125 -22.535156 3.253906 -14.230469 C 1.453125 -4.183594 5.75 0.289062 12.71875 0.289062 C 17.832031 0.289062 24.453125 -3.832031 26.023438 -12.894531 C 27.824219 -22.945312 23.699219 -27.707031 17.136719 -27.707031 Z M 23.058594 -16.613281 C 22.945312 -21.375 19.863281 -23.988281 17.25 -24.800781 C 21.722656 -24.800781 24.164062 -21.257812 23.058594 -16.613281 Z M 19.457031 -13.476562 C 18.472656 -7.957031 15.972656 -5.632812 13.417969 -5.632812 C 11.09375 -5.632812 8.886719 -7.898438 9.933594 -14 C 10.746094 -18.644531 13.417969 -21.722656 16.089844 -21.722656 C 18.992188 -21.722656 20.386719 -18.703125 19.457031 -13.476562 Z M 19.457031 -13.476562 "/></g></g></g><g fill="rgb(21.958923%, 20.388794%, 15.689087%)" fill-opacity="0.4"><g transform="translate(161.207975, 51.437953)"><g><path d="M 17.136719 -27.707031 C 10.570312 -27.707031 4.703125 -22.535156 3.253906 -14.230469 C 1.453125 -4.183594 5.75 0.289062 12.71875 0.289062 C 17.832031 0.289062 24.453125 -3.832031 26.023438 -12.894531 C 27.824219 -22.945312 23.699219 -27.707031 17.136719 -27.707031 Z M 23.058594 -16.613281 C 22.945312 -21.375 19.863281 -23.988281 17.25 -24.800781 C 21.722656 -24.800781 24.164062 -21.257812 23.058594 -16.613281 Z M 19.457031 -13.476562 C 18.472656 -7.957031 15.972656 -5.632812 13.417969 -5.632812 C 11.09375 -5.632812 8.886719 -7.898438 9.933594 -14 C 10.746094 -18.644531 13.417969 -21.722656 16.089844 -21.722656 C 18.992188 -21.722656 20.386719 -18.703125 19.457031 -13.476562 Z M 19.457031 -13.476562 "/></g></g></g><g fill="rgb(21.958923%, 20.388794%, 15.689087%)" fill-opacity="0.4"><g transform="translate(187.054978, 51.437953)"><g><path d="M 28.519531 -36.882812 C 27.417969 -36.882812 26.777344 -36.128906 26.542969 -34.910156 L 26.429688 -34.269531 C 26.429688 -34.097656 26.253906 -33.980469 26.136719 -33.980469 C 26.023438 -33.980469 25.90625 -34.097656 25.90625 -34.269531 L 25.847656 -35.316406 C 25.789062 -36.59375 25.382812 -37.117188 24.453125 -37.117188 C 23.582031 -37.117188 22.945312 -36.59375 22.710938 -35.433594 L 21.144531 -26.253906 C 21.085938 -25.964844 20.96875 -25.789062 20.792969 -25.789062 C 20.738281 -25.789062 20.621094 -25.847656 20.445312 -26.082031 C 19.574219 -26.953125 18.007812 -27.707031 15.972656 -27.707031 C 10.921875 -27.707031 5.808594 -24.453125 4.355469 -16.265625 L 3.660156 -12.257812 C 1.976562 -2.789062 5.34375 0.347656 11.328125 0.347656 C 14.929688 0.40625 17.308594 -0.523438 18.9375 -3.777344 C 19.226562 -4.183594 19.285156 -4.414062 19.457031 -4.414062 C 19.691406 -4.414062 19.808594 -4.238281 19.863281 -3.832031 L 20.503906 -1.566406 C 20.792969 -0.40625 21.027344 0.175781 21.957031 0.175781 L 22.015625 0.175781 C 22.886719 0.175781 23.351562 -0.523438 23.523438 -1.160156 C 23.640625 -1.453125 23.640625 -1.335938 23.640625 -1.625 L 29.738281 -34.910156 C 29.972656 -36.128906 29.679688 -36.882812 28.519531 -36.882812 Z M 15.277344 -25.09375 C 11.734375 -23.988281 9.757812 -22.304688 8.363281 -19.109375 C 8.421875 -22.535156 11.617188 -25.09375 15.277344 -25.09375 Z M 17.601562 -6.503906 C 17.542969 -6.15625 17.425781 -5.984375 17.136719 -5.808594 C 16.265625 -5.460938 15.101562 -5.054688 13.824219 -5.054688 C 10.6875 -5.054688 9.121094 -6.5625 10.105469 -12.140625 L 10.804688 -16.265625 C 11.5 -20.15625 13.707031 -21.78125 16.613281 -21.78125 C 18.238281 -21.78125 19.050781 -21.316406 19.75 -20.621094 C 19.921875 -20.386719 20.039062 -20.15625 19.980469 -19.808594 Z M 17.601562 -6.503906 "/></g></g></g><g fill="rgb(97.648621%, 58.039856%, 23.139954%)" fill-opacity="1"><g transform="translate(41.25459, 48.870767)"><g><path d="M 1.800781 0.117188 C 2.554688 0.117188 3.3125 -0.230469 4.007812 -1.453125 C 4.238281 -1.859375 4.589844 -2.265625 4.878906 -2.671875 C 5.054688 -2.960938 5.285156 -3.136719 5.460938 -3.136719 C 5.691406 -3.136719 5.808594 -2.960938 5.632812 -2.613281 C 5.519531 -2.324219 5.34375 -2.03125 5.226562 -1.742188 C 4.996094 -0.929688 5.054688 -0.0585938 6.15625 -0.0585938 C 7.027344 -0.0585938 7.609375 -0.640625 7.898438 -1.160156 C 8.710938 -2.789062 9.585938 -4.414062 10.222656 -6.039062 C 10.628906 -6.914062 11.152344 -7.203125 12.082031 -7.203125 L 16.785156 -7.203125 C 18.355469 -7.203125 19.863281 -7.203125 21.433594 -7.144531 C 22.363281 -7.144531 22.710938 -6.738281 22.769531 -5.925781 C 22.828125 -4.414062 23.175781 -2.554688 23.175781 -0.988281 C 23.234375 0.0585938 23.816406 0.347656 24.628906 0.347656 C 25.324219 0.347656 25.789062 0.0585938 25.964844 -0.523438 C 26.082031 -1.277344 26.195312 -1.511719 26.488281 -1.511719 C 26.777344 -1.511719 26.894531 -1.335938 27.183594 -0.464844 C 27.359375 0.175781 27.9375 0.40625 28.753906 0.40625 C 29.507812 0.40625 30.089844 -0.230469 29.972656 -1.046875 L 25.152344 -36.941406 C 24.976562 -37.871094 24.628906 -38.335938 24.046875 -38.335938 C 23.351562 -38.335938 22.886719 -37.929688 22.59375 -37.289062 L 22.304688 -36.769531 C 22.1875 -36.417969 21.957031 -36.246094 21.78125 -36.246094 C 21.550781 -36.246094 21.375 -36.476562 21.433594 -36.824219 L 21.375 -37.234375 C 21.433594 -38.046875 21.316406 -38.453125 20.503906 -38.453125 C 19.632812 -38.453125 18.992188 -37.988281 18.414062 -36.882812 L 1.335938 -1.800781 C 0.695312 -0.523438 0.929688 0.117188 1.800781 0.117188 Z M 19.808594 -26.371094 C 19.921875 -26.601562 20.097656 -26.71875 20.214844 -26.71875 C 20.328125 -26.71875 20.445312 -26.601562 20.503906 -26.371094 L 21.78125 -13.765625 C 21.898438 -12.835938 21.609375 -12.546875 20.503906 -12.546875 L 14.578125 -12.546875 C 13.59375 -12.546875 13.300781 -12.835938 13.765625 -13.707031 Z M 17.078125 -10.398438 C 19.285156 -10.398438 21.492188 -10.28125 21.839844 -9.933594 C 21.316406 -9.640625 19.398438 -9.527344 17.484375 -9.527344 C 15.21875 -9.527344 12.894531 -9.699219 12.546875 -10.046875 C 13.070312 -10.28125 15.042969 -10.398438 17.078125 -10.398438 Z M 17.078125 -10.398438 "/></g></g></g><g fill="rgb(97.648621%, 58.039856%, 23.139954%)" fill-opacity="1"><g transform="translate(72.793726, 48.870767)"><g><path d="M 13.59375 -36.769531 C 12.546875 -36.769531 11.964844 -36.128906 11.792969 -35.140625 L 11.734375 -34.792969 C 11.675781 -34.503906 11.441406 -34.328125 11.269531 -34.328125 C 11.09375 -34.328125 10.921875 -34.445312 10.921875 -34.734375 L 10.921875 -35.316406 C 10.863281 -36.304688 10.628906 -36.769531 9.46875 -36.769531 C 8.539062 -36.769531 8.074219 -36.011719 7.957031 -35.082031 L 1.976562 -0.640625 C 1.800781 0.289062 2.207031 0.871094 3.078125 0.871094 C 4.125 0.8125 4.703125 0.289062 5.054688 -1.046875 L 5.226562 -1.566406 C 5.34375 -2.089844 5.519531 -2.324219 5.808594 -2.324219 C 6.039062 -2.324219 6.214844 -2.148438 6.097656 -1.742188 L 5.984375 -1.105469 C 5.925781 -0.175781 6.214844 0.464844 7.027344 0.464844 L 7.144531 0.464844 C 8.132812 0.464844 8.539062 -0.175781 8.710938 -0.988281 L 14.929688 -34.96875 C 15.101562 -36.304688 14.636719 -36.769531 13.59375 -36.769531 Z M 13.59375 -36.769531 "/></g></g></g><g fill="rgb(97.648621%, 58.039856%, 23.139954%)" fill-opacity="1"><g transform="translate(85.8044, 48.870767)"><g><path d="M 13.59375 -36.769531 C 12.546875 -36.769531 11.964844 -36.128906 11.792969 -35.140625 L 11.734375 -34.792969 C 11.675781 -34.503906 11.441406 -34.328125 11.269531 -34.328125 C 11.09375 -34.328125 10.921875 -34.445312 10.921875 -34.734375 L 10.921875 -35.316406 C 10.863281 -36.304688 10.628906 -36.769531 9.46875 -36.769531 C 8.539062 -36.769531 8.074219 -36.011719 7.957031 -35.082031 L 1.976562 -0.640625 C 1.800781 0.289062 2.207031 0.871094 3.078125 0.871094 C 4.125 0.8125 4.703125 0.289062 5.054688 -1.046875 L 5.226562 -1.566406 C 5.34375 -2.089844 5.519531 -2.324219 5.808594 -2.324219 C 6.039062 -2.324219 6.214844 -2.148438 6.097656 -1.742188 L 5.984375 -1.105469 C 5.925781 -0.175781 6.214844 0.464844 7.027344 0.464844 L 7.144531 0.464844 C 8.132812 0.464844 8.539062 -0.175781 8.710938 -0.988281 L 14.929688 -34.96875 C 15.101562 -36.304688 14.636719 -36.769531 13.59375 -36.769531 Z M 13.59375 -36.769531 "/></g></g></g><g fill="rgb(97.648621%, 58.039856%, 23.139954%)" fill-opacity="1"><g transform="translate(98.815073, 48.870767)"><g/></g></g><g fill="rgb(97.648621%, 58.039856%, 23.139954%)" fill-opacity="1"><g transform="translate(105.552792, 48.870767)"><g><path d="M 13.707031 0.347656 C 17.832031 0.347656 24.046875 -3.136719 24.570312 -6.449219 C 25.09375 -9.875 26.195312 -14.171875 26.777344 -17.601562 C 27.066406 -19.457031 25.671875 -19.34375 25.730469 -19.75 C 25.847656 -20.386719 27.125 -19.980469 27.359375 -21.199219 C 27.417969 -21.78125 27.007812 -22.128906 26.023438 -22.128906 L 17.949219 -22.128906 C 16.785156 -22.128906 16.265625 -21.78125 16.148438 -21.144531 C 16.03125 -20.621094 16.265625 -20.328125 16.785156 -20.214844 C 17.542969 -20.097656 17.773438 -19.863281 17.714844 -19.691406 C 17.65625 -19.515625 17.308594 -19.398438 16.785156 -19.285156 C 15.855469 -18.992188 15.335938 -18.761719 15.277344 -18.179688 C 15.101562 -17.425781 15.972656 -17.25 16.726562 -17.25 L 18.878906 -17.25 C 19.632812 -17.25 20.097656 -17.019531 19.921875 -15.914062 L 18.527344 -8.074219 C 18.296875 -6.96875 17.773438 -6.332031 16.902344 -5.867188 C 16.84375 -5.867188 16.089844 -5.285156 14.695312 -5.285156 C 11.847656 -5.285156 8.886719 -8.886719 10.863281 -20.097656 C 12.371094 -28.867188 16.496094 -32.761719 19.863281 -32.761719 C 21.957031 -32.761719 23.464844 -31.539062 24.394531 -30.089844 C 24.570312 -29.855469 24.859375 -29.738281 25.207031 -29.738281 C 25.5 -29.738281 25.789062 -29.796875 25.964844 -29.972656 C 26.601562 -30.4375 26.71875 -31.25 26.429688 -31.832031 C 26.082031 -32.46875 25.441406 -33.109375 24.6875 -33.632812 C 24.222656 -33.863281 24.453125 -34.269531 24.917969 -34.269531 C 25.09375 -34.269531 25.324219 -34.210938 25.5 -34.039062 C 26.023438 -33.632812 26.488281 -33.339844 26.894531 -32.992188 C 27.242188 -32.703125 27.765625 -32.46875 28.230469 -32.46875 C 28.460938 -32.46875 28.695312 -32.527344 28.867188 -32.644531 C 29.625 -33.222656 29.507812 -33.980469 29.160156 -34.617188 C 28.113281 -36.535156 24.511719 -38.453125 20.910156 -38.453125 C 11.847656 -38.453125 6.15625 -32.003906 4.066406 -20.15625 C 1.160156 -3.71875 6.15625 0.289062 13.707031 0.347656 Z M 7.261719 -8.769531 C 7.433594 -6.855469 7.898438 -5.632812 9.121094 -4.472656 C 10.046875 -3.601562 11.382812 -2.847656 13.300781 -2.441406 C 12.953125 -2.441406 10.339844 -2.613281 8.65625 -3.777344 L 9.234375 -3.367188 C 7.375 -4.472656 6.855469 -6.097656 7.261719 -8.769531 Z M 7.261719 -8.769531 "/></g></g></g><g fill="rgb(97.648621%, 58.039856%, 23.139954%)" fill-opacity="1"><g transform="translate(132.793787, 48.870767)"><g><path d="M 17.136719 -27.707031 C 10.570312 -27.707031 4.703125 -22.535156 3.253906 -14.230469 C 1.453125 -4.183594 5.75 0.289062 12.71875 0.289062 C 17.832031 0.289062 24.453125 -3.832031 26.023438 -12.894531 C 27.824219 -22.945312 23.699219 -27.707031 17.136719 -27.707031 Z M 23.058594 -16.613281 C 22.945312 -21.375 19.863281 -23.988281 17.25 -24.800781 C 21.722656 -24.800781 24.164062 -21.257812 23.058594 -16.613281 Z M 19.457031 -13.476562 C 18.472656 -7.957031 15.972656 -5.632812 13.417969 -5.632812 C 11.09375 -5.632812 8.886719 -7.898438 9.933594 -14 C 10.746094 -18.644531 13.417969 -21.722656 16.089844 -21.722656 C 18.992188 -21.722656 20.386719 -18.703125 19.457031 -13.476562 Z M 19.457031 -13.476562 "/></g></g></g><g fill="rgb(97.648621%, 58.039856%, 23.139954%)" fill-opacity="1"><g transform="translate(158.64079, 48.870767)"><g><path d="M 17.136719 -27.707031 C 10.570312 -27.707031 4.703125 -22.535156 3.253906 -14.230469 C 1.453125 -4.183594 5.75 0.289062 12.71875 0.289062 C 17.832031 0.289062 24.453125 -3.832031 26.023438 -12.894531 C 27.824219 -22.945312 23.699219 -27.707031 17.136719 -27.707031 Z M 23.058594 -16.613281 C 22.945312 -21.375 19.863281 -23.988281 17.25 -24.800781 C 21.722656 -24.800781 24.164062 -21.257812 23.058594 -16.613281 Z M 19.457031 -13.476562 C 18.472656 -7.957031 15.972656 -5.632812 13.417969 -5.632812 C 11.09375 -5.632812 8.886719 -7.898438 9.933594 -14 C 10.746094 -18.644531 13.417969 -21.722656 16.089844 -21.722656 C 18.992188 -21.722656 20.386719 -18.703125 19.457031 -13.476562 Z M 19.457031 -13.476562 "/></g></g></g><g fill="rgb(97.648621%, 58.039856%, 23.139954%)" fill-opacity="1"><g transform="translate(184.487793, 48.870767)"><g><path d="M 28.519531 -36.882812 C 27.417969 -36.882812 26.777344 -36.128906 26.542969 -34.910156 L 26.429688 -34.269531 C 26.429688 -34.097656 26.253906 -33.980469 26.136719 -33.980469 C 26.023438 -33.980469 25.90625 -34.097656 25.90625 -34.269531 L 25.847656 -35.316406 C 25.789062 -36.59375 25.382812 -37.117188 24.453125 -37.117188 C 23.582031 -37.117188 22.945312 -36.59375 22.710938 -35.433594 L 21.144531 -26.253906 C 21.085938 -25.964844 20.96875 -25.789062 20.792969 -25.789062 C 20.738281 -25.789062 20.621094 -25.847656 20.445312 -26.082031 C 19.574219 -26.953125 18.007812 -27.707031 15.972656 -27.707031 C 10.921875 -27.707031 5.808594 -24.453125 4.355469 -16.265625 L 3.660156 -12.257812 C 1.976562 -2.789062 5.34375 0.347656 11.328125 0.347656 C 14.929688 0.40625 17.308594 -0.523438 18.9375 -3.777344 C 19.226562 -4.183594 19.285156 -4.414062 19.457031 -4.414062 C 19.691406 -4.414062 19.808594 -4.238281 19.863281 -3.832031 L 20.503906 -1.566406 C 20.792969 -0.40625 21.027344 0.175781 21.957031 0.175781 L 22.015625 0.175781 C 22.886719 0.175781 23.351562 -0.523438 23.523438 -1.160156 C 23.640625 -1.453125 23.640625 -1.335938 23.640625 -1.625 L 29.738281 -34.910156 C 29.972656 -36.128906 29.679688 -36.882812 28.519531 -36.882812 Z M 15.277344 -25.09375 C 11.734375 -23.988281 9.757812 -22.304688 8.363281 -19.109375 C 8.421875 -22.535156 11.617188 -25.09375 15.277344 -25.09375 Z M 17.601562 -6.503906 C 17.542969 -6.15625 17.425781 -5.984375 17.136719 -5.808594 C 16.265625 -5.460938 15.101562 -5.054688 13.824219 -5.054688 C 10.6875 -5.054688 9.121094 -6.5625 10.105469 -12.140625 L 10.804688 -16.265625 C 11.5 -20.15625 13.707031 -21.78125 16.613281 -21.78125 C 18.238281 -21.78125 19.050781 -21.316406 19.75 -20.621094 C 19.921875 -20.386719 20.039062 -20.15625 19.980469 -19.808594 Z M 17.601562 -6.503906 "/></g></g></g><g fill="rgb(21.958923%, 20.388794%, 15.689087%)" fill-opacity="0.4"><g transform="translate(20.024512, 106.826738)"><g><path d="M 3.253906 0.175781 C 4.183594 0.175781 4.761719 -0.175781 4.9375 -1.277344 L 5.226562 -2.613281 C 5.34375 -3.136719 5.574219 -3.367188 5.808594 -3.367188 C 6.097656 -3.367188 6.273438 -3.136719 6.15625 -2.613281 L 6.039062 -1.335938 C 5.867188 -0.40625 6.332031 0.175781 7.375 0.230469 C 8.539062 0.230469 8.886719 -0.289062 9.175781 -1.453125 L 12.71875 -21.957031 C 12.777344 -22.1875 12.835938 -22.246094 12.953125 -22.246094 C 13.011719 -22.246094 13.128906 -22.1875 13.128906 -22.015625 L 16.378906 -9.757812 C 16.554688 -9.121094 16.84375 -8.828125 17.191406 -8.828125 C 17.484375 -8.828125 17.890625 -9.121094 18.296875 -9.757812 L 25.847656 -22.015625 C 25.90625 -22.128906 26.023438 -22.246094 26.136719 -22.246094 C 26.195312 -22.246094 26.253906 -22.1875 26.253906 -21.898438 L 22.652344 -1.453125 C 22.421875 -0.289062 22.710938 0.230469 23.757812 0.230469 C 24.800781 0.175781 25.558594 -0.40625 25.671875 -1.335938 L 25.964844 -2.613281 C 26.082031 -3.078125 26.371094 -3.367188 26.601562 -3.367188 C 26.835938 -3.367188 27.066406 -3.078125 26.953125 -2.613281 L 26.71875 -1.277344 C 26.542969 -0.175781 26.953125 0.175781 27.9375 0.175781 C 28.867188 0.117188 29.449219 -0.347656 29.679688 -2.148438 L 35.605469 -36.769531 C 35.78125 -38.046875 35.375 -38.742188 34.328125 -38.742188 C 33.398438 -38.742188 32.816406 -38.046875 32.585938 -36.882812 L 32.351562 -35.953125 C 32.296875 -35.664062 32.179688 -35.546875 32.0625 -35.546875 C 31.945312 -35.546875 31.832031 -35.664062 31.832031 -35.953125 L 31.886719 -36.941406 C 31.945312 -38.335938 31.539062 -38.859375 30.609375 -38.859375 L 30.4375 -38.859375 C 29.566406 -38.859375 29.160156 -37.988281 28.578125 -37.058594 L 20.214844 -22.128906 C 19.921875 -21.550781 19.632812 -20.96875 19.285156 -20.96875 C 18.9375 -20.96875 18.878906 -21.550781 18.820312 -22.128906 L 15.683594 -37.058594 C 15.390625 -37.988281 15.335938 -38.859375 14.464844 -38.859375 L 14.289062 -38.859375 C 13.359375 -38.859375 12.835938 -38.394531 12.371094 -36.941406 L 12.023438 -35.953125 C 11.90625 -35.664062 11.792969 -35.546875 11.675781 -35.546875 C 11.558594 -35.546875 11.5 -35.664062 11.5 -35.953125 L 11.617188 -36.882812 C 11.734375 -38.046875 11.441406 -38.683594 10.511719 -38.683594 C 9.410156 -38.683594 8.828125 -38.046875 8.597656 -36.769531 L 2.324219 -2.148438 C 1.976562 -0.347656 2.324219 0.117188 3.253906 0.175781 Z M 3.253906 0.175781 "/></g></g></g><g fill="rgb(21.958923%, 20.388794%, 15.689087%)" fill-opacity="0.4"><g transform="translate(53.131893, 106.826738)"><g><path d="M 18.121094 -27.707031 C 10.28125 -27.707031 5.632812 -21.898438 4.355469 -14.464844 C 2.554688 -4.414062 5.75 0.347656 11.847656 0.347656 C 15.390625 0.347656 19.050781 -0.640625 22.1875 -3.3125 C 22.828125 -3.832031 23.351562 -4.761719 22.710938 -5.34375 C 22.535156 -5.574219 22.246094 -5.632812 22.015625 -5.632812 C 21.433594 -5.632812 20.792969 -5.34375 20.273438 -4.996094 C 19.75 -4.648438 19.226562 -4.238281 18.585938 -3.890625 C 18.355469 -3.777344 18.179688 -3.71875 18.007812 -3.71875 C 17.65625 -3.71875 17.65625 -4.066406 18.121094 -4.414062 C 18.820312 -5.054688 20.039062 -5.925781 20.503906 -6.621094 C 20.792969 -6.96875 20.910156 -7.609375 20.679688 -7.898438 C 20.503906 -8.132812 20.214844 -8.25 19.921875 -8.25 C 19.632812 -8.25 19.285156 -8.132812 18.992188 -7.839844 C 17.832031 -6.679688 15.683594 -5.519531 13.824219 -5.519531 C 11.035156 -5.519531 9.992188 -8.25 11.035156 -14.230469 C 11.964844 -19.574219 14.113281 -22.128906 16.84375 -22.074219 C 19.109375 -22.074219 20.214844 -20.910156 19.980469 -19.457031 C 19.691406 -17.832031 18.0625 -16.613281 15.914062 -16.613281 L 15.21875 -16.613281 C 14.113281 -16.613281 13.648438 -16.207031 13.535156 -15.507812 C 13.359375 -14.578125 13.824219 -14.40625 14.8125 -14.40625 L 15.101562 -14.40625 C 15.625 -14.40625 15.683594 -14 15.101562 -13.941406 L 14.695312 -13.882812 C 13.765625 -13.707031 13.242188 -13.359375 13.070312 -12.605469 C 13.011719 -11.847656 13.476562 -11.617188 15.390625 -11.617188 C 21.839844 -11.617188 25.558594 -14.40625 26.371094 -19.109375 C 27.359375 -24.746094 24.453125 -27.707031 18.121094 -27.707031 Z M 23.640625 -18.9375 C 23.351562 -22.128906 22.015625 -23.816406 18.820312 -24.917969 C 22.480469 -24.917969 24.746094 -22.363281 23.640625 -18.9375 Z M 23.640625 -18.9375 "/></g></g></g><g fill="rgb(21.958923%, 20.388794%, 15.689087%)" fill-opacity="0.4"><g transform="translate(79.269314, 106.826738)"><g><path d="M 18.121094 -27.707031 C 10.28125 -27.707031 5.632812 -21.898438 4.355469 -14.464844 C 2.554688 -4.414062 5.75 0.347656 11.847656 0.347656 C 15.390625 0.347656 19.050781 -0.640625 22.1875 -3.3125 C 22.828125 -3.832031 23.351562 -4.761719 22.710938 -5.34375 C 22.535156 -5.574219 22.246094 -5.632812 22.015625 -5.632812 C 21.433594 -5.632812 20.792969 -5.34375 20.273438 -4.996094 C 19.75 -4.648438 19.226562 -4.238281 18.585938 -3.890625 C 18.355469 -3.777344 18.179688 -3.71875 18.007812 -3.71875 C 17.65625 -3.71875 17.65625 -4.066406 18.121094 -4.414062 C 18.820312 -5.054688 20.039062 -5.925781 20.503906 -6.621094 C 20.792969 -6.96875 20.910156 -7.609375 20.679688 -7.898438 C 20.503906 -8.132812 20.214844 -8.25 19.921875 -8.25 C 19.632812 -8.25 19.285156 -8.132812 18.992188 -7.839844 C 17.832031 -6.679688 15.683594 -5.519531 13.824219 -5.519531 C 11.035156 -5.519531 9.992188 -8.25 11.035156 -14.230469 C 11.964844 -19.574219 14.113281 -22.128906 16.84375 -22.074219 C 19.109375 -22.074219 20.214844 -20.910156 19.980469 -19.457031 C 19.691406 -17.832031 18.0625 -16.613281 15.914062 -16.613281 L 15.21875 -16.613281 C 14.113281 -16.613281 13.648438 -16.207031 13.535156 -15.507812 C 13.359375 -14.578125 13.824219 -14.40625 14.8125 -14.40625 L 15.101562 -14.40625 C 15.625 -14.40625 15.683594 -14 15.101562 -13.941406 L 14.695312 -13.882812 C 13.765625 -13.707031 13.242188 -13.359375 13.070312 -12.605469 C 13.011719 -11.847656 13.476562 -11.617188 15.390625 -11.617188 C 21.839844 -11.617188 25.558594 -14.40625 26.371094 -19.109375 C 27.359375 -24.746094 24.453125 -27.707031 18.121094 -27.707031 Z M 23.640625 -18.9375 C 23.351562 -22.128906 22.015625 -23.816406 18.820312 -24.917969 C 22.480469 -24.917969 24.746094 -22.363281 23.640625 -18.9375 Z M 23.640625 -18.9375 "/></g></g></g><g fill="rgb(21.958923%, 20.388794%, 15.689087%)" fill-opacity="0.4"><g transform="translate(105.406731, 106.826738)"><g><path d="M 18.9375 -27.648438 C 15.390625 -27.648438 12.953125 -26.71875 11.328125 -23.464844 C 11.152344 -23.058594 10.976562 -22.828125 10.804688 -22.828125 C 10.570312 -22.828125 10.511719 -23 10.457031 -23.410156 L 9.757812 -25.671875 C 9.527344 -26.835938 9.292969 -27.417969 8.363281 -27.417969 L 8.25 -27.417969 C 7.375 -27.417969 6.914062 -26.777344 6.738281 -26.082031 L 6.621094 -25.617188 L 0.523438 7.667969 C 0.347656 8.886719 0.640625 9.640625 1.800781 9.640625 C 2.847656 9.640625 3.542969 8.886719 3.71875 7.667969 L 3.832031 7.027344 C 3.890625 6.855469 4.007812 6.738281 4.125 6.738281 C 4.296875 6.738281 4.414062 6.855469 4.355469 7.027344 L 4.414062 8.074219 C 4.53125 9.351562 4.9375 9.816406 5.867188 9.816406 C 6.738281 9.816406 7.375 9.351562 7.550781 8.191406 L 9.175781 -0.988281 C 9.234375 -1.277344 9.292969 -1.511719 9.46875 -1.511719 C 9.585938 -1.511719 9.699219 -1.394531 9.875 -1.160156 C 10.6875 -0.289062 12.3125 0.464844 14.289062 0.464844 C 19.34375 0.464844 24.453125 -2.789062 25.90625 -11.035156 L 26.601562 -14.984375 C 28.289062 -24.511719 24.917969 -27.648438 18.9375 -27.648438 Z M 23.816406 -18.878906 C 23.523438 -22.128906 22.246094 -23.816406 18.992188 -24.917969 C 22.710938 -24.917969 24.976562 -22.363281 23.816406 -18.878906 Z M 19.457031 -11.035156 C 18.761719 -7.085938 16.613281 -5.460938 13.707031 -5.460938 C 12.023438 -5.460938 11.210938 -5.925781 10.511719 -6.679688 C 10.398438 -6.855469 10.28125 -7.085938 10.339844 -7.433594 L 12.71875 -20.738281 C 12.777344 -21.085938 12.835938 -21.257812 13.183594 -21.433594 C 14 -21.839844 15.21875 -22.1875 16.4375 -22.1875 C 19.574219 -22.1875 21.144531 -20.679688 20.214844 -15.101562 Z M 19.457031 -11.035156 "/></g></g></g><g fill="rgb(21.958923%, 20.388794%, 15.689087%)" fill-opacity="0.4"><g transform="translate(132.008814, 106.826738)"><g><path d="M 13.59375 -36.769531 C 12.546875 -36.769531 11.964844 -36.128906 11.792969 -35.140625 L 11.734375 -34.792969 C 11.675781 -34.503906 11.441406 -34.328125 11.269531 -34.328125 C 11.09375 -34.328125 10.921875 -34.445312 10.921875 -34.734375 L 10.921875 -35.316406 C 10.863281 -36.304688 10.628906 -36.769531 9.46875 -36.769531 C 8.539062 -36.769531 8.074219 -36.011719 7.957031 -35.082031 L 1.976562 -0.640625 C 1.800781 0.289062 2.207031 0.871094 3.078125 0.871094 C 4.125 0.8125 4.703125 0.289062 5.054688 -1.046875 L 5.226562 -1.566406 C 5.34375 -2.089844 5.519531 -2.324219 5.808594 -2.324219 C 6.039062 -2.324219 6.214844 -2.148438 6.097656 -1.742188 L 5.984375 -1.105469 C 5.925781 -0.175781 6.214844 0.464844 7.027344 0.464844 L 7.144531 0.464844 C 8.132812 0.464844 8.539062 -0.175781 8.710938 -0.988281 L 14.929688 -34.96875 C 15.101562 -36.304688 14.636719 -36.769531 13.59375 -36.769531 Z M 13.59375 -36.769531 "/></g></g></g><g fill="rgb(21.958923%, 20.388794%, 15.689087%)" fill-opacity="0.4"><g transform="translate(145.019484, 106.826738)"><g><path d="M 18.121094 -27.707031 C 10.28125 -27.707031 5.632812 -21.898438 4.355469 -14.464844 C 2.554688 -4.414062 5.75 0.347656 11.847656 0.347656 C 15.390625 0.347656 19.050781 -0.640625 22.1875 -3.3125 C 22.828125 -3.832031 23.351562 -4.761719 22.710938 -5.34375 C 22.535156 -5.574219 22.246094 -5.632812 22.015625 -5.632812 C 21.433594 -5.632812 20.792969 -5.34375 20.273438 -4.996094 C 19.75 -4.648438 19.226562 -4.238281 18.585938 -3.890625 C 18.355469 -3.777344 18.179688 -3.71875 18.007812 -3.71875 C 17.65625 -3.71875 17.65625 -4.066406 18.121094 -4.414062 C 18.820312 -5.054688 20.039062 -5.925781 20.503906 -6.621094 C 20.792969 -6.96875 20.910156 -7.609375 20.679688 -7.898438 C 20.503906 -8.132812 20.214844 -8.25 19.921875 -8.25 C 19.632812 -8.25 19.285156 -8.132812 18.992188 -7.839844 C 17.832031 -6.679688 15.683594 -5.519531 13.824219 -5.519531 C 11.035156 -5.519531 9.992188 -8.25 11.035156 -14.230469 C 11.964844 -19.574219 14.113281 -22.128906 16.84375 -22.074219 C 19.109375 -22.074219 20.214844 -20.910156 19.980469 -19.457031 C 19.691406 -17.832031 18.0625 -16.613281 15.914062 -16.613281 L 15.21875 -16.613281 C 14.113281 -16.613281 13.648438 -16.207031 13.535156 -15.507812 C 13.359375 -14.578125 13.824219 -14.40625 14.8125 -14.40625 L 15.101562 -14.40625 C 15.625 -14.40625 15.683594 -14 15.101562 -13.941406 L 14.695312 -13.882812 C 13.765625 -13.707031 13.242188 -13.359375 13.070312 -12.605469 C 13.011719 -11.847656 13.476562 -11.617188 15.390625 -11.617188 C 21.839844 -11.617188 25.558594 -14.40625 26.371094 -19.109375 C 27.359375 -24.746094 24.453125 -27.707031 18.121094 -27.707031 Z M 23.640625 -18.9375 C 23.351562 -22.128906 22.015625 -23.816406 18.820312 -24.917969 C 22.480469 -24.917969 24.746094 -22.363281 23.640625 -18.9375 Z M 23.640625 -18.9375 "/></g></g></g><g fill="rgb(97.648621%, 58.039856%, 23.139954%)" fill-opacity="1"><g transform="translate(17.457326, 104.259556)"><g><path d="M 3.253906 0.175781 C 4.183594 0.175781 4.761719 -0.175781 4.9375 -1.277344 L 5.226562 -2.613281 C 5.34375 -3.136719 5.574219 -3.367188 5.808594 -3.367188 C 6.097656 -3.367188 6.273438 -3.136719 6.15625 -2.613281 L 6.039062 -1.335938 C 5.867188 -0.40625 6.332031 0.175781 7.375 0.230469 C 8.539062 0.230469 8.886719 -0.289062 9.175781 -1.453125 L 12.71875 -21.957031 C 12.777344 -22.1875 12.835938 -22.246094 12.953125 -22.246094 C 13.011719 -22.246094 13.128906 -22.1875 13.128906 -22.015625 L 16.378906 -9.757812 C 16.554688 -9.121094 16.84375 -8.828125 17.191406 -8.828125 C 17.484375 -8.828125 17.890625 -9.121094 18.296875 -9.757812 L 25.847656 -22.015625 C 25.90625 -22.128906 26.023438 -22.246094 26.136719 -22.246094 C 26.195312 -22.246094 26.253906 -22.1875 26.253906 -21.898438 L 22.652344 -1.453125 C 22.421875 -0.289062 22.710938 0.230469 23.757812 0.230469 C 24.800781 0.175781 25.558594 -0.40625 25.671875 -1.335938 L 25.964844 -2.613281 C 26.082031 -3.078125 26.371094 -3.367188 26.601562 -3.367188 C 26.835938 -3.367188 27.066406 -3.078125 26.953125 -2.613281 L 26.71875 -1.277344 C 26.542969 -0.175781 26.953125 0.175781 27.9375 0.175781 C 28.867188 0.117188 29.449219 -0.347656 29.679688 -2.148438 L 35.605469 -36.769531 C 35.78125 -38.046875 35.375 -38.742188 34.328125 -38.742188 C 33.398438 -38.742188 32.816406 -38.046875 32.585938 -36.882812 L 32.351562 -35.953125 C 32.296875 -35.664062 32.179688 -35.546875 32.0625 -35.546875 C 31.945312 -35.546875 31.832031 -35.664062 31.832031 -35.953125 L 31.886719 -36.941406 C 31.945312 -38.335938 31.539062 -38.859375 30.609375 -38.859375 L 30.4375 -38.859375 C 29.566406 -38.859375 29.160156 -37.988281 28.578125 -37.058594 L 20.214844 -22.128906 C 19.921875 -21.550781 19.632812 -20.96875 19.285156 -20.96875 C 18.9375 -20.96875 18.878906 -21.550781 18.820312 -22.128906 L 15.683594 -37.058594 C 15.390625 -37.988281 15.335938 -38.859375 14.464844 -38.859375 L 14.289062 -38.859375 C 13.359375 -38.859375 12.835938 -38.394531 12.371094 -36.941406 L 12.023438 -35.953125 C 11.90625 -35.664062 11.792969 -35.546875 11.675781 -35.546875 C 11.558594 -35.546875 11.5 -35.664062 11.5 -35.953125 L 11.617188 -36.882812 C 11.734375 -38.046875 11.441406 -38.683594 10.511719 -38.683594 C 9.410156 -38.683594 8.828125 -38.046875 8.597656 -36.769531 L 2.324219 -2.148438 C 1.976562 -0.347656 2.324219 0.117188 3.253906 0.175781 Z M 3.253906 0.175781 "/></g></g></g><g fill="rgb(97.648621%, 58.039856%, 23.139954%)" fill-opacity="1"><g transform="translate(50.564707, 104.259556)"><g><path d="M 18.121094 -27.707031 C 10.28125 -27.707031 5.632812 -21.898438 4.355469 -14.464844 C 2.554688 -4.414062 5.75 0.347656 11.847656 0.347656 C 15.390625 0.347656 19.050781 -0.640625 22.1875 -3.3125 C 22.828125 -3.832031 23.351562 -4.761719 22.710938 -5.34375 C 22.535156 -5.574219 22.246094 -5.632812 22.015625 -5.632812 C 21.433594 -5.632812 20.792969 -5.34375 20.273438 -4.996094 C 19.75 -4.648438 19.226562 -4.238281 18.585938 -3.890625 C 18.355469 -3.777344 18.179688 -3.71875 18.007812 -3.71875 C 17.65625 -3.71875 17.65625 -4.066406 18.121094 -4.414062 C 18.820312 -5.054688 20.039062 -5.925781 20.503906 -6.621094 C 20.792969 -6.96875 20.910156 -7.609375 20.679688 -7.898438 C 20.503906 -8.132812 20.214844 -8.25 19.921875 -8.25 C 19.632812 -8.25 19.285156 -8.132812 18.992188 -7.839844 C 17.832031 -6.679688 15.683594 -5.519531 13.824219 -5.519531 C 11.035156 -5.519531 9.992188 -8.25 11.035156 -14.230469 C 11.964844 -19.574219 14.113281 -22.128906 16.84375 -22.074219 C 19.109375 -22.074219 20.214844 -20.910156 19.980469 -19.457031 C 19.691406 -17.832031 18.0625 -16.613281 15.914062 -16.613281 L 15.21875 -16.613281 C 14.113281 -16.613281 13.648438 -16.207031 13.535156 -15.507812 C 13.359375 -14.578125 13.824219 -14.40625 14.8125 -14.40625 L 15.101562 -14.40625 C 15.625 -14.40625 15.683594 -14 15.101562 -13.941406 L 14.695312 -13.882812 C 13.765625 -13.707031 13.242188 -13.359375 13.070312 -12.605469 C 13.011719 -11.847656 13.476562 -11.617188 15.390625 -11.617188 C 21.839844 -11.617188 25.558594 -14.40625 26.371094 -19.109375 C 27.359375 -24.746094 24.453125 -27.707031 18.121094 -27.707031 Z M 23.640625 -18.9375 C 23.351562 -22.128906 22.015625 -23.816406 18.820312 -24.917969 C 22.480469 -24.917969 24.746094 -22.363281 23.640625 -18.9375 Z M 23.640625 -18.9375 "/></g></g></g><g fill="rgb(97.648621%, 58.039856%, 23.139954%)" fill-opacity="1"><g transform="translate(76.702128, 104.259556)"><g><path d="M 18.121094 -27.707031 C 10.28125 -27.707031 5.632812 -21.898438 4.355469 -14.464844 C 2.554688 -4.414062 5.75 0.347656 11.847656 0.347656 C 15.390625 0.347656 19.050781 -0.640625 22.1875 -3.3125 C 22.828125 -3.832031 23.351562 -4.761719 22.710938 -5.34375 C 22.535156 -5.574219 22.246094 -5.632812 22.015625 -5.632812 C 21.433594 -5.632812 20.792969 -5.34375 20.273438 -4.996094 C 19.75 -4.648438 19.226562 -4.238281 18.585938 -3.890625 C 18.355469 -3.777344 18.179688 -3.71875 18.007812 -3.71875 C 17.65625 -3.71875 17.65625 -4.066406 18.121094 -4.414062 C 18.820312 -5.054688 20.039062 -5.925781 20.503906 -6.621094 C 20.792969 -6.96875 20.910156 -7.609375 20.679688 -7.898438 C 20.503906 -8.132812 20.214844 -8.25 19.921875 -8.25 C 19.632812 -8.25 19.285156 -8.132812 18.992188 -7.839844 C 17.832031 -6.679688 15.683594 -5.519531 13.824219 -5.519531 C 11.035156 -5.519531 9.992188 -8.25 11.035156 -14.230469 C 11.964844 -19.574219 14.113281 -22.128906 16.84375 -22.074219 C 19.109375 -22.074219 20.214844 -20.910156 19.980469 -19.457031 C 19.691406 -17.832031 18.0625 -16.613281 15.914062 -16.613281 L 15.21875 -16.613281 C 14.113281 -16.613281 13.648438 -16.207031 13.535156 -15.507812 C 13.359375 -14.578125 13.824219 -14.40625 14.8125 -14.40625 L 15.101562 -14.40625 C 15.625 -14.40625 15.683594 -14 15.101562 -13.941406 L 14.695312 -13.882812 C 13.765625 -13.707031 13.242188 -13.359375 13.070312 -12.605469 C 13.011719 -11.847656 13.476562 -11.617188 15.390625 -11.617188 C 21.839844 -11.617188 25.558594 -14.40625 26.371094 -19.109375 C 27.359375 -24.746094 24.453125 -27.707031 18.121094 -27.707031 Z M 23.640625 -18.9375 C 23.351562 -22.128906 22.015625 -23.816406 18.820312 -24.917969 C 22.480469 -24.917969 24.746094 -22.363281 23.640625 -18.9375 Z M 23.640625 -18.9375 "/></g></g></g><g fill="rgb(97.648621%, 58.039856%, 23.139954%)" fill-opacity="1"><g transform="translate(102.839545, 104.259556)"><g><path d="M 18.9375 -27.648438 C 15.390625 -27.648438 12.953125 -26.71875 11.328125 -23.464844 C 11.152344 -23.058594 10.976562 -22.828125 10.804688 -22.828125 C 10.570312 -22.828125 10.511719 -23 10.457031 -23.410156 L 9.757812 -25.671875 C 9.527344 -26.835938 9.292969 -27.417969 8.363281 -27.417969 L 8.25 -27.417969 C 7.375 -27.417969 6.914062 -26.777344 6.738281 -26.082031 L 6.621094 -25.617188 L 0.523438 7.667969 C 0.347656 8.886719 0.640625 9.640625 1.800781 9.640625 C 2.847656 9.640625 3.542969 8.886719 3.71875 7.667969 L 3.832031 7.027344 C 3.890625 6.855469 4.007812 6.738281 4.125 6.738281 C 4.296875 6.738281 4.414062 6.855469 4.355469 7.027344 L 4.414062 8.074219 C 4.53125 9.351562 4.9375 9.816406 5.867188 9.816406 C 6.738281 9.816406 7.375 9.351562 7.550781 8.191406 L 9.175781 -0.988281 C 9.234375 -1.277344 9.292969 -1.511719 9.46875 -1.511719 C 9.585938 -1.511719 9.699219 -1.394531 9.875 -1.160156 C 10.6875 -0.289062 12.3125 0.464844 14.289062 0.464844 C 19.34375 0.464844 24.453125 -2.789062 25.90625 -11.035156 L 26.601562 -14.984375 C 28.289062 -24.511719 24.917969 -27.648438 18.9375 -27.648438 Z M 23.816406 -18.878906 C 23.523438 -22.128906 22.246094 -23.816406 18.992188 -24.917969 C 22.710938 -24.917969 24.976562 -22.363281 23.816406 -18.878906 Z M 19.457031 -11.035156 C 18.761719 -7.085938 16.613281 -5.460938 13.707031 -5.460938 C 12.023438 -5.460938 11.210938 -5.925781 10.511719 -6.679688 C 10.398438 -6.855469 10.28125 -7.085938 10.339844 -7.433594 L 12.71875 -20.738281 C 12.777344 -21.085938 12.835938 -21.257812 13.183594 -21.433594 C 14 -21.839844 15.21875 -22.1875 16.4375 -22.1875 C 19.574219 -22.1875 21.144531 -20.679688 20.214844 -15.101562 Z M 19.457031 -11.035156 "/></g></g></g><g fill="rgb(97.648621%, 58.039856%, 23.139954%)" fill-opacity="1"><g transform="translate(129.441629, 104.259556)"><g><path d="M 13.59375 -36.769531 C 12.546875 -36.769531 11.964844 -36.128906 11.792969 -35.140625 L 11.734375 -34.792969 C 11.675781 -34.503906 11.441406 -34.328125 11.269531 -34.328125 C 11.09375 -34.328125 10.921875 -34.445312 10.921875 -34.734375 L 10.921875 -35.316406 C 10.863281 -36.304688 10.628906 -36.769531 9.46875 -36.769531 C 8.539062 -36.769531 8.074219 -36.011719 7.957031 -35.082031 L 1.976562 -0.640625 C 1.800781 0.289062 2.207031 0.871094 3.078125 0.871094 C 4.125 0.8125 4.703125 0.289062 5.054688 -1.046875 L 5.226562 -1.566406 C 5.34375 -2.089844 5.519531 -2.324219 5.808594 -2.324219 C 6.039062 -2.324219 6.214844 -2.148438 6.097656 -1.742188 L 5.984375 -1.105469 C 5.925781 -0.175781 6.214844 0.464844 7.027344 0.464844 L 7.144531 0.464844 C 8.132812 0.464844 8.539062 -0.175781 8.710938 -0.988281 L 14.929688 -34.96875 C 15.101562 -36.304688 14.636719 -36.769531 13.59375 -36.769531 Z M 13.59375 -36.769531 "/></g></g></g><g fill="rgb(97.648621%, 58.039856%, 23.139954%)" fill-opacity="1"><g transform="translate(142.452298, 104.259556)"><g><path d="M 18.121094 -27.707031 C 10.28125 -27.707031 5.632812 -21.898438 4.355469 -14.464844 C 2.554688 -4.414062 5.75 0.347656 11.847656 0.347656 C 15.390625 0.347656 19.050781 -0.640625 22.1875 -3.3125 C 22.828125 -3.832031 23.351562 -4.761719 22.710938 -5.34375 C 22.535156 -5.574219 22.246094 -5.632812 22.015625 -5.632812 C 21.433594 -5.632812 20.792969 -5.34375 20.273438 -4.996094 C 19.75 -4.648438 19.226562 -4.238281 18.585938 -3.890625 C 18.355469 -3.777344 18.179688 -3.71875 18.007812 -3.71875 C 17.65625 -3.71875 17.65625 -4.066406 18.121094 -4.414062 C 18.820312 -5.054688 20.039062 -5.925781 20.503906 -6.621094 C 20.792969 -6.96875 20.910156 -7.609375 20.679688 -7.898438 C 20.503906 -8.132812 20.214844 -8.25 19.921875 -8.25 C 19.632812 -8.25 19.285156 -8.132812 18.992188 -7.839844 C 17.832031 -6.679688 15.683594 -5.519531 13.824219 -5.519531 C 11.035156 -5.519531 9.992188 -8.25 11.035156 -14.230469 C 11.964844 -19.574219 14.113281 -22.128906 16.84375 -22.074219 C 19.109375 -22.074219 20.214844 -20.910156 19.980469 -19.457031 C 19.691406 -17.832031 18.0625 -16.613281 15.914062 -16.613281 L 15.21875 -16.613281 C 14.113281 -16.613281 13.648438 -16.207031 13.535156 -15.507812 C 13.359375 -14.578125 13.824219 -14.40625 14.8125 -14.40625 L 15.101562 -14.40625 C 15.625 -14.40625 15.683594 -14 15.101562 -13.941406 L 14.695312 -13.882812 C 13.765625 -13.707031 13.242188 -13.359375 13.070312 -12.605469 C 13.011719 -11.847656 13.476562 -11.617188 15.390625 -11.617188 C 21.839844 -11.617188 25.558594 -14.40625 26.371094 -19.109375 C 27.359375 -24.746094 24.453125 -27.707031 18.121094 -27.707031 Z M 23.640625 -18.9375 C 23.351562 -22.128906 22.015625 -23.816406 18.820312 -24.917969 C 22.480469 -24.917969 24.746094 -22.363281 23.640625 -18.9375 Z M 23.640625 -18.9375 "/></g></g></g></svg>